<svg xmlns="http://www.w3.org/2000/svg" width="2800" height="2800"><g fill="#0080ff"><path d="M1576.781 1630.544l2.067-54.992-20.818-11.905a29513.814 29513.814 0 00-32.896-18.786l-12.079-6.88.757 70.727.757 70.727 28.304 14.86 28.304 14.862 1.768-11.81c.973-6.496 2.7-36.557 3.836-66.803zm8.547 84.386c-.962-1.54-3.266-2.78-5.12-2.757-2.025.026-1.676 1.126.875 2.757 5.437 3.476 6.417 3.476 4.245 0zm38.21 21.052c0-.738-5.094-3.913-11.321-7.055-6.227-3.142-11.322-5.087-11.322-4.323 0 .764 4.777 3.884 10.614 6.932 12.01 6.27 12.03 6.277 12.03 4.446zm-205.952 399.555l-.75-98.679h9.09c6.313 0 43.21 17.566 120.785 57.502 61.431 31.625 112.646 56.505 113.81 55.287 1.165-1.217 8.655-14.38 16.645-29.25l14.528-27.035-20.633-11.082c-11.349-6.094-42.286-22.133-68.75-35.64-99.767-50.925-178.436-91.793-181.852-94.473-2.71-2.125-3.538-25.648-3.538-100.41v-97.636h8.834c5.22 0 21.445 6.48 39.652 15.837 16.95 8.71 31.262 15.324 31.804 14.697.543-.627 7.523-13.737 15.512-29.134 12.698-24.473 13.973-28.4 10.142-31.222-2.41-1.775-27.233-14.987-55.163-29.36l-50.781-26.131v-217.02l7.784-.002c4.918-.002 40.958 18.803 97.916 51.09l90.132 51.091-1.624 25.194c-.894 13.857-2.432 42.328-3.418 63.269l-1.792 38.074 10.932 1.786c10.373 1.695 60.066 2.633 60.82 1.148.196-.385 1.151-18.966 2.123-41.29l1.767-40.592h7.278c4.23 0 41.423 19.349 88.791 46.19l81.513 46.19-1.84 47.59c-2.5 64.61-9.782 225.552-11.16 246.636l-1.117 17.087 35.637 1.666c19.6.916 35.85 1.414 36.11 1.108.26-.306 2.545-49.056 5.078-108.333 2.534-59.277 5.392-118.798 6.353-132.27 1.725-24.203 1.835-24.495 9.253-24.495 4.534 0 39.832 18.354 89.115 46.337 44.884 25.485 81.92 45.955 82.3 45.49.382-.466 8.069-13.324 17.082-28.573 14.023-23.724 15.77-28.169 12.108-30.793-2.354-1.688-40.068-23.223-83.809-47.858-72.736-40.964-79.538-45.43-79.638-52.276-.1-6.827 9.567-13.592 109.785-76.83l109.893-69.344-18.435-28.335-18.435-28.334-127.858 80.67c-70.322 44.368-130.547 80.67-133.833 80.67-3.286 0-43.01-21.016-88.276-46.701-98.497-55.892-95.364-51.197-52.305-78.398 15.567-9.834 30.105-18.944 32.307-20.243 3.594-2.122-7.08-21.604-31.138-56.834-.914-1.338-24.737 12.206-52.94 30.098-31.395 19.917-53.464 32.178-56.914 31.62-3.099-.501-45.82-23.586-94.934-51.3-86.613-48.873-89.279-50.632-88.605-58.493.643-7.504 7.293-11.902 89.852-59.417 49.036-28.222 91.595-51.344 94.574-51.383 2.98-.038 28.327 14.5 56.327 32.307 28 17.806 51.672 31.255 52.605 29.886 24.314-35.672 34.775-54.763 31.173-56.89-2.202-1.3-16.74-10.419-32.307-20.265-43.038-27.223-45.546-23.333 50.947-79.045 51.274-29.604 82.142-45.805 87.442-45.894 6.022-.1 42.058 21.243 136.082 80.6l127.892 80.736 18.376-28.311 18.377-28.311-111.224-69.922c-97.678-61.405-111.23-70.774-111.27-76.92-.042-6.243 9.121-12.242 84.89-55.577l84.936-48.578-5.333-8.809c-2.933-4.845-10.76-17.971-17.394-29.17l-12.062-20.36-10.252 5.985c-88.52 51.678-156.327 89.324-160.89 89.324-6.992 0-7.235-2.76-13.817-156.765-2.534-59.277-4.778-107.976-4.987-108.221-.21-.245-16.51.248-36.223 1.096l-35.841 1.542 1.18 14.3c2.298 27.881 9.856 210.901 10.456 253.22l.609 42.963-79.25 45.79c-57.156 33.024-81.816 45.826-88.45 45.918l-9.2.126v-31.843c0-17.513-.795-35.78-1.768-40.59l-1.77-8.749-24.411.031c-13.427.017-29.332.835-35.345 1.817l-10.932 1.786 1.792 38.074c.986 20.941 2.489 49.412 3.34 63.269l1.546 25.194-91.865 52.489c-50.526 28.868-94.566 52.488-97.867 52.488h-6.003l.737-124.96.736-124.959 53.777-27.911c29.578-15.351 54.176-28.274 54.664-28.717 1.018-.925-20.776-44.35-26.893-53.585l-4.077-6.154-31.916 16.58c-17.554 9.119-35.106 16.58-39.004 16.58h-7.087l-2.004-95.088c-1.266-60.115-.992-96.924.745-100.078 1.512-2.744 64.003-36.438 138.87-74.876 74.868-38.437 135.776-70.56 135.353-71.384-.423-.824-7.487-14.474-15.698-30.334l-14.93-28.836-20.421 10.97c-87.558 47.033-208.905 106.889-216.7 106.889h-8.925V530.794h-70.76v170.762h-6.442c-5.42 0-69.552-31.948-207.877-103.554l-26.1-13.511-15.982 29.47c-12.613 23.257-15.166 29.969-12.11 31.838 2.129 1.303 63.406 32.962 136.17 70.353l132.3 67.985.017 100.078.016 100.078-6.369-.099c-3.502-.054-20.976-7.546-38.83-16.65-17.853-9.103-32.673-16.302-32.932-15.997-.258.304-7.087 13.643-15.173 29.643-11.518 22.786-13.888 29.616-10.94 31.52 2.071 1.336 26.373 14.062 54.004 28.278l50.24 25.848v247.784h-7.565c-4.657 0-45.731-21.638-106.847-56.285-54.605-30.957-100.43-57.35-101.833-58.65-1.513-1.403-1.35-28.327.398-66.188 1.621-35.103 2.77-63.995 2.55-64.204-.218-.21-16.636-.897-36.484-1.527l-36.087-1.146-.016 23.922c-.01 13.157-.832 32.425-1.825 42.818-1.604 16.802-2.464 18.89-7.763 18.846-3.278-.028-42.259-20.712-86.625-45.965l-80.666-45.914-.84-21.914c-.46-12.052 1.77-79.233 4.959-149.292 3.188-70.058 5.795-130.704 5.792-134.767l-.004-7.39-34.114-2.027c-18.763-1.115-34.71-1.439-35.437-.72-1.196 1.183-12.401 229.72-12.492 254.773-.033 9.81-.599 10.497-8.607 10.497-7.217 0-78.942-38.124-137.405-73.035l-8.701-5.195-16.065 27.468c-8.836 15.107-16.046 28.615-16.022 30.017.024 1.402 31.277 20.185 69.453 41.74 67.706 38.23 69.39 39.396 68.594 47.492-.751 7.638-9.434 13.736-108.875 76.474l-108.059 68.175 17.487 27.697c11.642 18.44 18.818 27.237 21.47 26.321 2.192-.757 59.796-36.612 128.009-79.677 70.029-44.212 126.824-78.284 130.458-78.26 3.54.021 42.735 20.644 87.101 45.829 99.802 56.652 97.247 52.568 50.727 81.095-23.412 14.357-30.862 20.297-29.585 23.589.938 2.42 8.776 15.429 17.417 28.91l15.71 24.51 14.614-9.224c73.584-46.447 87.513-54.781 91.558-54.781 2.552 0 9.846 2.964 16.21 6.588 6.363 3.623 53.282 30.22 104.264 59.105 85.184 48.262 92.687 53.116 92.587 59.898-.099 6.73-9.051 12.486-101.826 65.466-58.276 33.28-104.738 58.087-108.794 58.087-4.009 0-22.756-9.877-43.231-22.778-19.884-12.528-42.669-26.89-50.632-31.917l-14.479-9.139-15.798 24.304c-8.689 13.367-16.576 26.308-17.526 28.757-1.301 3.355 6.341 9.55 30.97 25.11 27.45 17.34 32.695 21.78 32.682 27.654-.016 6.217-9.198 12.27-82.219 54.186-56.648 32.518-84.135 46.818-88.418 46-3.42-.653-62.31-36.627-130.869-79.943-68.559-43.316-126.511-79.4-128.782-80.187-2.843-.986-9.584 7.207-21.638 26.299l-17.508 27.73 26 16.407c205.65 129.777 197.573 124.373 196.676 131.612-.798 6.44-33.149 26.525-140.152 87.014-2.416 1.365 1.603 10.464 13.508 30.581 9.322 15.75 17.386 28.637 17.921 28.637.535 0 31.701-17.636 69.258-39.191 38.363-22.018 71.395-39.191 75.383-39.191 6.113 0 7.103 1.262 7.136 9.097.102 24.282 11.34 252.234 12.492 253.373.727.72 16.674.395 35.437-.72l34.114-2.027-.024-8.789c-.017-4.833-2.55-63.586-5.638-130.561-3.088-66.975-5.61-132.48-5.606-145.568l.008-23.795 81.843-46.89c45.014-25.788 84.3-46.889 87.3-46.889 4.674 0 5.718 2.718 7.263 18.896.992 10.393 1.813 29.03 1.824 41.418l.016 22.522 36.088-1.145c19.848-.63 36.24-1.317 36.428-1.527.187-.21-.931-28.5-2.486-62.869-1.623-35.872-1.768-63.503-.341-64.873 1.367-1.312 47.701-28.303 102.964-59.979 64.217-36.808 103.288-57.595 108.262-57.6l7.784-.006-.01 108.476-.01 108.476-53.719 27.482c-29.545 15.115-54.471 28.686-55.392 30.159-1.233 1.973 23.225 51.668 28.548 58.003.402.479 16.13-6.765 34.951-16.096 18.821-9.332 36.787-16.967 39.925-16.967 5.612 0 5.704 1.608 5.691 100.078l-.016 100.078-26.168 13.24c-43.398 21.96-241.022 123.858-244.739 126.192-2.529 1.588.503 10.058 11.26 31.448 8.096 16.101 15.427 29.275 16.29 29.275.864 0 52.98-26.454 115.814-58.787 62.834-32.333 117.241-58.787 120.906-58.787h6.663V2235.781l36.087-.783 36.089-.783zm-62.934 147.439c-16.345-9.047-31.922-16.476-34.616-16.508-4.458-.055-4.965-5.272-5.66-58.285l-.764-58.224-75.005 38.565c-41.253 21.21-77.553 38.57-80.666 38.575-3.114 0-19.561-7.523-36.55-16.732-16.988-9.209-32.294-16.743-34.012-16.743-4.429 0-58.22-103.47-58.22-111.99 0-6.47 11.693-13.059 142.226-80.136l142.227-73.085.79-33.546c.583-24.684-.165-34.296-2.83-36.385-1.992-1.561-17.632-10.051-34.756-18.867l-31.134-16.028-15.567-29.834-15.567-29.834-59.438.755-59.438.755-29.702-16.584c-24.557-13.713-30.685-16.077-35.38-13.654-3.122 1.612-17.375 9.705-31.672 17.984-25.18 14.58-25.959 15.335-24.871 24.096 2.098 16.9 13.778 304.2 12.422 305.542-.743.734-29.09 2.633-62.997 4.222l-61.647 2.888-36.625-18.797c-36.25-18.606-36.626-18.898-36.788-28.632-.54-32.326-7.498-159.715-8.796-160.998-.856-.847-14.93 6.05-31.275 15.325-16.345 9.276-32.399 16.865-35.676 16.865-3.277 0-19.961-7.559-37.075-16.796-17.115-9.238-32.34-16.797-33.834-16.797-4.338 0-62.634-101.926-62.573-109.405.049-5.869 8.543-11.6 63.9-43.1 59.91-34.093 63.515-36.598 58.468-40.64-2.958-2.37-49.489-32-103.403-65.845-89.236-56.022-98.035-62.224-98.148-69.182-.175-10.893 62.125-106.81 70.155-108.009 3.524-.525 17.475 6.488 34.805 17.497 15.908 10.105 31.116 18.373 33.795 18.373 2.678 0 50.987 29.109 107.353 64.686 79.01 49.87 103.615 64.137 107.423 62.287 2.716-1.32 26.697-14.898 53.29-30.172l48.352-27.772-26.69-16.825c-22.583-14.234-26.667-17.931-26.533-24.016.092-4.21 13.39-27.507 32.065-56.182 26.352-40.46 33.176-49.138 39.193-49.848 5.048-.596 15.5 4.35 34.018 16.096 14.702 9.326 28.846 16.956 31.43 16.956 2.585 0 16.358 7.244 30.607 16.097 14.249 8.853 26.685 15.877 27.635 15.61 2.851-.804 140.137-79.622 142.192-81.635 1.594-1.562-78.057-48.543-87.021-51.33-1.627-.505-25.802 13.487-53.724 31.094-27.92 17.607-53.427 32.516-56.68 33.13-3.524.667-17.424-5.184-34.393-14.476-15.664-8.578-31.534-16.744-35.267-18.147-8.361-3.144-70.214-98.197-70.214-107.902 0-5.16 5.064-9.69 24.059-21.523 13.232-8.242 24.058-15.724 24.058-16.627 0-.902-10.73-7.597-23.842-14.877l-23.842-13.236-128.754 81.32c-84.495 53.367-131.299 81.32-136.156 81.32-4.071 0-20.13-6.841-35.685-15.203-15.556-8.361-30.318-15.605-32.806-16.096-6.923-1.368-68.975-98.791-68.804-108.025.128-6.957 9.285-13.388 102.062-71.678l101.921-64.035-7.952-4.774c-4.374-2.627-33.107-19.01-63.852-36.41-45.796-25.916-55.9-32.739-55.9-37.743 0-3.36 13.661-29.649 30.359-58.42 26.262-45.253 31.285-52.312 37.224-52.312 3.776 0 16.543 5.496 28.371 12.214 11.829 6.718 34.243 18.88 49.81 27.027 15.567 8.146 34.006 18.32 40.975 22.61 6.968 4.288 13.107 7.365 13.642 6.836.535-.53 3.506-55.566 6.602-122.305 3.096-66.74 6.51-122.226 7.586-123.305 1.077-1.079 31.151-.638 66.831.979 47.085 2.133 65.911 3.965 68.657 6.682 2.082 2.058 16.504 10.436 32.051 18.617l28.267 14.875.016 15.396c.017 14.15-9.526 230.943-12.334 280.23l-1.213 21.288 24.97 14.404c13.733 7.923 25.587 14.405 26.342 14.405.755 0 1.804-13.755 2.33-30.567.527-16.812 1.896-31.491 3.041-32.62 1.146-1.129 30.44-.765 65.099.81l63.016 2.86 34.814 18.954 34.814 18.952-1.64 25.502c-.901 14.026-1.92 44.312-2.264 67.301l-.625 41.8 42.455 24.565c23.351 13.51 43.411 24.62 44.579 24.686 1.167.066 2.123-38.1 2.123-84.815v-84.936l-13.445-7.065c-99.634-52.353-105.431-55.865-105.431-63.864 0-4.373 11.992-30.512 27.454-59.843 24.001-45.53 28.306-52.078 34.236-52.078 3.73 0 17.298 5.669 30.149 12.597 12.85 6.929 24.192 12.598 25.201 12.598 1.01 0 1.836-28.063 1.836-62.362v-62.363l-101.185-52.055c-165.12-84.946-181.852-94.357-181.852-102.283 0-3.734 12.418-30.625 27.596-59.757 23.465-45.037 28.558-52.976 34.022-53.03 3.534-.035 54.024 24.501 112.199 54.525 58.175 30.023 106.549 54.587 107.497 54.587.948 0 1.724-34.012 1.724-75.583V500h66.278c36.453 0 66.702 1.06 67.221 2.355.519 1.295 14.954 9.992 32.078 19.327l31.134 16.972.783 40.86c.431 22.472 1.47 40.86 2.308 40.86.839 0 35.748-17.637 77.575-39.192 41.827-21.555 77.98-39.191 80.338-39.191 2.36 0 9.766 3.585 16.46 7.967 6.694 4.382 22.384 13.288 34.867 19.79l22.695 11.821 26.32 50.16c18.393 35.053 26.05 52.467 25.421 57.82-.83 7.079-11.7 13.197-143.05 80.518l-142.153 72.857-.074 32.66c-.04 17.962 1.045 33.079 2.412 33.592 1.367.513 7.756 11.337 14.196 24.053l11.71 23.12 14.342-7.188c7.888-3.954 16.877-6.8 19.976-6.324 4.19.643 12.655 14.653 33.023 54.651l27.388 53.787 36.372-1.709c22.916-1.076 37.052-.68 38.21 1.073 2.148 3.249 53.718 31.632 57.473 31.632 1.399 0 15.842-7.673 32.096-17.05l29.552-17.05-1.302-11.644c-3.374-30.174-13.127-302.04-10.912-304.159 3.68-3.52 131.436-7.037 133.681-3.68 1.008 1.508 15.35 9.882 31.873 18.61l30.04 15.868 1.763 25.882c.97 14.235 2.598 51.076 3.62 81.87 1.02 30.793 2.657 58.19 3.637 60.88 1.527 4.198 8.016 1.318 45.59-20.23 41.122-23.582 56.517-29.298 60.734-22.55.93 1.487 14.882 9.703 31.006 18.257 16.123 8.554 30.967 17.52 32.986 19.927 2.02 2.406 15.585 24.705 30.147 49.554 19.717 33.646 26.262 47.243 25.636 53.266-.769 7.407-7.097 11.673-75.35 50.799-40.981 23.492-74.734 43.436-75.006 44.321-.271.885 45.677 30.764 102.108 66.397 90.793 57.332 102.6 65.606 102.6 71.899 0 4.234-12.877 27.3-31.84 57.032-26.655 41.789-32.949 49.94-38.632 50.03-5.924.093-22.012-7.638-66.8-32.102-6.227-3.401-55.508-34.077-109.513-68.17-54.004-34.092-99.684-61.985-101.51-61.985-3.786 0-104.322 56.646-104.336 58.787-.01.77 11.434 8.328 25.42 16.796 23.762 14.388 25.368 15.946 24.53 23.795-.51 4.763-14.319 29.261-31.907 56.604-37.381 58.113-34.77 57.012-74.88 31.576-14.566-9.238-28.76-16.796-31.542-16.796s-15.898-6.989-29.147-15.53c-21.49-13.855-24.784-15.167-30.524-12.16-6.122 3.206-113.114 64.29-114.787 65.533-.44.327 13.895 8.861 31.853 18.965l32.651 18.372 52.775-33.391c29.364-18.58 55.751-33.391 59.483-33.391 3.69 0 11.459 2.928 17.266 6.507 5.806 3.579 21.13 12.044 34.051 18.81l23.494 12.304 30.991 47.982c17.399 26.937 30.99 50.935 30.99 54.715 0 5.408-4.734 9.683-24.057 21.72-13.232 8.242-24.059 16.008-24.059 17.258 0 1.73 34.091 22.135 45.553 27.266.993.445 60.68-36.402 132.638-81.882 71.958-45.48 133.483-82.69 136.722-82.69 3.24 0 7.9 1.75 10.358 3.888 2.458 2.137 17.842 11.013 34.188 19.723l29.719 15.837 30.614 47.461c23.086 35.79 30.395 49.33 29.72 55.06-.785 6.653-13.22 15.378-99.96 70.135-54.484 34.396-100.063 63.522-101.286 64.726-1.223 1.203 32.176 21.606 74.22 45.338 64.855 36.61 76.455 44.124 76.52 49.57.042 3.531-13.446 29.67-29.976 58.088-35.728 61.423-32.597 59.866-73.04 36.324-14.497-8.438-28.755-16.208-31.684-17.266-2.93-1.059-23.932-12.42-46.674-25.248-22.74-12.829-42.056-23.325-42.921-23.325-2.43 0-4.52 31.901-9.255 141.346-2.398 55.415-5.262 101.593-6.365 102.619-1.102 1.026-29.88.526-63.95-1.11l-61.944-2.973-28.078-15.093c-15.443-8.3-31.19-16.263-34.996-17.694-5.743-2.16-6.917-4.5-6.917-13.786 0-15.038 10.778-265.473 12.42-288.586l1.3-18.295-25.965-14.519-25.966-14.518-1.415 30.493c-.778 16.772-2.337 31.4-3.464 32.507-3.084 3.031-124.782-3.142-131.442-6.667-5.113-2.707-5.641-2.339-4.574 3.186.792 4.098-8.443 24.511-26.86 59.365-33.65 63.687-31.671 62.504-70 41.84l-24.162-13.027.761 63.663.762 63.664 108.97 56.271c181.037 93.488 172.538 88.68 172.6 97.653.033 4.477-11.504 29.818-27.078 59.487-25.71 48.979-27.56 51.686-35.33 51.686-5.142 0-47.516-20.265-113.68-54.367l-105.482-54.368-.746 90.76-.746 90.759-64.352-.288-64.353-.288z"/><text x="105.491" y="-593.118" stroke-width="1.004" font-family="Bitstream Vera Sans" font-size="10.709" font-weight="400" letter-spacing="0" style="line-height:1.25;-inkscape-font-specification:'Bitstream Vera Sans'" transform="matrix(1.00393 0 0 .99609 0 1584)" word-spacing="0"><tspan x="105.491" y="-593.118" font-size="481.886" font-weight="700">C</tspan></text><text x="1199.274" y="-1183.868" font-family="Bitstream Vera Sans" font-size="10.668" font-weight="400" letter-spacing="0" style="line-height:1.25;-inkscape-font-specification:'Bitstream Vera Sans'" transform="matrix(.99989 0 0 1.00011 0 1584)" word-spacing="0"><tspan x="1199.274" y="-1183.868" font-size="480.054" font-weight="700">N</tspan></text><text x="2351.602" y="-584" font-family="Bitstream Vera Sans" font-size="10.667" font-weight="400" letter-spacing="0" style="line-height:1.25;-inkscape-font-specification:'Bitstream Vera Sans'" transform="translate(0 1584)" word-spacing="0"><tspan x="2351.602" y="-584" font-size="480" font-weight="700">E</tspan></text><text x="2336.724" y="611.597" stroke-width="1.004" font-family="Bitstream Vera Sans" font-size="10.709" font-weight="400" letter-spacing="0" style="line-height:1.25;-inkscape-font-specification:'Bitstream Vera Sans'" transform="matrix(1.00393 0 0 .99609 0 1584)" word-spacing="0"><tspan x="2336.724" y="611.597" font-size="481.886" font-weight="700">C</tspan></text><text x="1310.967" y="1165.87" font-family="Bitstream Vera Sans" font-size="10.668" font-weight="400" letter-spacing="0" style="line-height:1.25;-inkscape-font-specification:'Bitstream Vera Sans'" transform="matrix(.99989 0 0 1.00011 0 1584)" word-spacing="0"><tspan x="1310.967" y="1165.87" font-size="480.054" font-weight="700">I</tspan></text><text x="113.008" y="616" font-family="Bitstream Vera Sans" font-size="10.667" font-weight="400" letter-spacing="0" style="line-height:1.25;-inkscape-font-specification:'Bitstream Vera Sans'" transform="translate(0 1584)" word-spacing="0"><tspan x="113.008" y="616" font-size="480" font-weight="700">F</tspan></text></g></svg>