<?xml version="1.0" encoding="UTF-8" standalone="no"?>
<svg
   xmlns:dc="http://purl.org/dc/elements/1.1/"
   xmlns:cc="http://creativecommons.org/ns#"
   xmlns:rdf="http://www.w3.org/1999/02/22-rdf-syntax-ns#"
   xmlns:svg="http://www.w3.org/2000/svg"
   xmlns="http://www.w3.org/2000/svg"
   viewBox="0 0 2800 2800"
   height="2800"
   width="2800"
   id="svg4651"
   version="1.1">
  <metadata
     id="metadata4657">
    <rdf:RDF>
      <cc:Work
         rdf:about="">
        <dc:format>image/svg+xml</dc:format>
        <dc:type
           rdf:resource="http://purl.org/dc/dcmitype/StillImage" />
        <dc:title></dc:title>
      </cc:Work>
    </rdf:RDF>
  </metadata>
  <defs
     id="defs4655" />
  <g
     style="display:inline"
     id="layer1">
    <g
       transform="translate(-250)"
       id="g5834">
      <rect
         style="opacity:1;fill:#00aeef;fill-opacity:1;fill-rule:nonzero;stroke:#ffffff;stroke-width:0;stroke-miterlimit:4;stroke-dasharray:none;stroke-dashoffset:0;stroke-opacity:1"
         id="rect5210"
         width="2000"
         height="2500"
         x="500"
         y="300" />
      <path
         style="fill:#004fa3;fill-opacity:1;stroke-width:12.56063271"
         d="m 800,2327.8174 v -172.182 l 59.35288,55.5785 c 78.64654,73.6449 151.10092,132.1364 269.96302,217.9358 L 1227.468,2500 H 1013.734 800 Z m 680.9962,151.3492 C 1312.5704,2390.1032 1069.1351,2214.089 930.98362,2081.483 l -94.51934,-90.7245 46.11822,-47.7243 46.11822,-47.7245 -64.35035,-71.1469 L 800,1753.0151 v -145.0113 -145.0114 l 77.10276,98.6808 c 285.52504,365.4319 703.91544,659.4944 1153.68844,810.8619 131.9891,44.4194 206.779,62.1714 474.823,112.7017 43.2908,8.1609 -98.6854,12.0814 -462.3277,12.7652 -453.9256,0.8521 -529.8671,-1.6905 -562.2903,-18.8354 z M 2537.5277,2334.2538 C 2064.8919,2283.2122 1589.2101,2064.0039 1231.088,1732.2084 l -72.3528,-67.0341 46.8007,-48.43 46.8007,-48.4308 -95.4403,-111.8079 C 1041.6195,1321.4584 946.49139,1180.733 862.86059,1021.5292 L 800.47962,902.7775 801.36111,574.49532 C 802.23397,249.4223 802.41803,247.19975 820.18641,347.22251 983.79165,1268.1951 1752.473,1968.4745 2668.0537,2030.6553 l 124.9535,8.4857 v 151.5153 151.5151 l -74.9722,1.7396 c -41.2346,0.9574 -122.4628,-3.3892 -180.5073,-9.6572 z m 115.267,-453.8323 C 1740.1902,1809.5142 996.45735,1051.1601 941.74307,135.73201 L 933.63047,0 h 226.82533 226.8253 l 0.1136,78.91382 c 0.1452,101.2178 48.3457,315.81161 101.4173,451.52177 49.2096,125.83426 154.4188,298.84191 244.4111,401.91391 l 64.7963,74.214 -48.9869,48.3352 c -47.077,46.4508 -48.1418,49.2897 -27.3103,72.8021 38.7291,43.7141 219.3958,180.1751 309.0695,233.447 182.1379,108.2007 406.3715,180.6088 631.6533,203.9697 69.8297,7.2414 129.1785,13.1656 131.8865,13.1656 2.7081,0 4.9238,71.0228 4.9238,157.8277 0,86.8059 -4.2172,157.0198 -9.3716,156.0312 -5.1543,-0.9886 -66.8441,-6.2622 -137.0886,-11.7206 z m -40.196,-612.3372 c -471.4917,-70.3864 -866.1782,-406.356 -1018.1161,-866.65347 -31.634,-95.8352 -49.7472,-188.38064 -63.124,-322.51701 L 1523.4889,0 h 223.3747 223.3747 l 14.928,98.53788 c 23.4559,154.82856 71.742,269.59759 170.3373,404.86744 l 58.6206,80.42617 -44.8394,46.4005 -44.8396,46.40063 46.8882,44.97728 c 135.208,129.6979 342.8813,222.7092 546.4449,244.7377 l 82.2217,8.8967 -3.4964,153.1611 -3.4964,153.1599 -31.2385,2.0626 c -17.181,1.1334 -84.3076,-5.8608 -149.17,-15.5436 z m 42.9597,-604.75475 C 2373.8069,599.38729 2163.3242,362.62218 2130.4047,72.60131 L 2122.1642,0 h 338.7493 338.7495 l -3.328,337.75282 -3.3278,337.75197 -31.2384,2.41947 c -17.1811,1.33041 -64.9758,-5.2368 -106.2104,-14.59471 z"
         id="path5206" />
    </g>
  </g>
</svg>
