<svg xmlns="http://www.w3.org/2000/svg" width="2800" height="2800"><path fill="#00aeef" d="M250 300h2000v2500H250z"/><path fill="#004fa3" d="M550 2327.817v-172.182l59.353 55.579c78.646 73.645 151.1 132.136 269.963 217.936l98.152 70.85H550zm680.996 151.35c-168.426-89.064-411.86-265.078-550.012-397.684l-94.52-90.725 46.118-47.724 46.119-47.724-64.35-71.147L550 1753.015v-290.023l77.103 98.681c285.525 365.432 703.915 659.495 1153.688 810.862 131.99 44.42 206.78 62.172 474.823 112.702 43.291 8.16-98.685 12.081-462.328 12.765-453.925.852-529.867-1.69-562.29-18.835zm1056.532-144.913c-472.636-51.042-948.318-270.25-1306.44-602.046l-72.353-67.034 46.8-48.43 46.802-48.43-95.44-111.808c-115.278-135.048-210.406-275.773-294.036-434.977L550.48 902.778l.881-328.283c.873-325.073 1.057-327.295 18.825-227.272 163.606 920.972 932.287 1621.251 1847.868 1683.432l124.953 8.486v303.03l-74.972 1.74c-41.235.957-122.463-3.39-180.507-9.657zm115.267-453.832C1490.19 1809.514 746.457 1051.16 691.743 135.731L683.63 0H1137.281l.114 78.914c.145 101.218 48.345 315.811 101.417 451.522 49.21 125.834 154.419 298.841 244.411 401.913l64.796 74.214-48.987 48.336c-47.077 46.45-48.141 49.29-27.31 72.802 38.73 43.714 219.396 180.175 309.07 233.447 182.138 108.2 406.371 180.609 631.653 203.97 69.83 7.24 129.178 13.165 131.886 13.165 2.709 0 4.924 71.023 4.924 157.828 0 86.806-4.217 157.02-9.371 156.031-5.155-.989-66.844-6.262-137.089-11.72zm-40.196-612.338c-471.492-70.386-866.179-406.356-1018.116-866.653-31.634-95.835-49.748-188.38-63.124-322.517L1273.489 0h446.749l14.928 98.538c23.456 154.828 71.742 269.597 170.338 404.867l58.62 80.426-44.84 46.401-44.839 46.4 46.888 44.978c135.208 129.698 342.882 222.71 546.445 244.738l82.222 8.896-3.496 153.161-3.497 153.16-31.238 2.063c-17.181 1.133-84.308-5.86-149.17-15.544zm42.96-604.754c-281.752-63.943-492.235-300.708-525.154-590.729L1872.165 0h677.498l-3.328 337.753-3.328 337.752-31.238 2.42c-17.181 1.33-64.976-5.238-106.21-14.595z"/></svg>