<svg xmlns="http://www.w3.org/2000/svg" width="2800" height="2800" viewBox="0 0 740.833 740.833"><path fill="#860071" d="M187.516 541.99c-.417-.46-.759-1.24-.759-1.733 0-.67 9.511-7.497 37.626-27.01 20.694-14.362 38.073-26.364 38.62-26.67 2.501-1.404 159.342-109.966 160.501-111.097.498-.485.658-.881.356-.881-.497 0-174.09 83.11-185.992 89.045-20.783 10.365-73.669 35.638-74.577 35.638-.444 0-1.163-.543-1.597-1.206-.768-1.172-.759-1.232.34-2.177.946-.813 47.168-33.037 49.394-34.435 7.028-4.413 181.234-124.934 182.97-126.583.625-.593.876-1.079.557-1.079-.623 0-195.893 93.545-198.113 94.907-2.727 1.673-57.895 27.942-58.682 27.942-.682 0-1.826-1.709-1.826-2.728 0-.306 38.869-27.629 42.093-29.588.414-.253 3.087-2.057 5.938-4.011 2.852-1.954 5.262-3.553 5.355-3.553.432 0 175.258-121.267 176.269-122.267l1.146-1.135-1.08.323c-1.227.366-179.35 85.772-193.05 92.562-12.015 5.956-58.287 28.14-59.059 28.315-.337.077-1.04-.418-1.563-1.1-.786-1.026-.849-1.361-.364-1.945.547-.66 48.73-34.237 51.999-36.237 4.613-2.823 180.08-124.408 181.343-125.658.985-.974 1.017-1.088.23-.814-1.425.496-154.218 73.745-168.918 80.979-26.375 12.98-87.288 42.055-88.106 42.055-1.056 0-2.093-2.102-1.485-3.012.33-.496 75.65-52.96 83.631-58.253 6.257-4.15 28.133-19.236 93.542-64.505l74.758-51.738 87.325-41.884c48.028-23.036 90.97-43.672 95.425-45.857 13.14-6.444 91.827-44.208 93.76-44.998 1.672-.684 1.81-.676 2.406.141.349.476.634 1.227.634 1.669 0 .545-10.875 8.34-33.932 24.321-18.662 12.936-34.275 23.726-34.695 23.978-2.129 1.279-163.698 113.234-164.579 114.04-.566.52-.94 1.033-.832 1.141.168.168 168.592-80.414 196.45-93.99 30.9-15.059 60.79-29.203 61.299-29.007.85.326 1.75 2.484 1.236 2.962-.506.47-39.738 27.63-44.658 30.917-5.587 3.732-180.604 124.93-183.334 126.958-1.374 1.02-2.273 1.93-1.997 2.022.42.14 191.774-91.358 208.48-99.688 11.08-5.524 44.044-21.205 44.578-21.205.302 0 .868.615 1.257 1.367.85 1.646 3.43-.368-21.93 17.12-73.51 50.693-210.219 145.467-211.159 146.389l-1.146 1.123 2.292-.89c2.188-.85 192.084-91.912 203.527-97.598 3.025-1.504 15.994-7.76 28.82-13.902l23.32-11.169.86 1.063c.473.585.86 1.322.86 1.639 0 .479-51.602 36.696-56.092 39.369-1.396.83-170.707 118.02-177.802 123.067-3.39 2.411-4.48 3.587-2.75 2.966 1.103-.396 168.191-80.492 172.47-82.677 6.766-3.453 86.73-41.67 87.448-41.793.41-.07 1.047.44 1.45 1.162.687 1.233.667 1.33-.461 2.292-.649.553-23.649 16.54-51.111 35.526a436540.742 436540.742 0 00-124.97 86.449l-75.037 51.927-69.127 33.151c-67.584 32.412-75.878 36.41-100.298 48.343-15.657 7.653-108.202 52.044-108.497 52.044-.126 0-.57-.377-.987-.838zm146.992-73.249c67.612-32.429 124.683-59.828 126.826-60.887 2.507-1.238 43.873-29.608 115.973-79.536 61.643-42.687 113.176-78.427 114.519-79.423 1.343-.997 2.337-1.916 2.21-2.043-.127-.127-57.127 27.05-126.666 60.394l-126.434 60.626-113.9 78.881c-62.646 43.384-114.421 79.34-115.057 79.9-.636.561-.986 1.027-.778 1.035.208.007 55.696-26.518 123.307-58.947zm-21.356-45.138l126.24-60.551 112.849-78.17c128.11-88.743 116.959-80.963 116.345-81.167-.259-.087-57.155 27.017-126.437 60.23l-125.966 60.388-9.168 6.282c-12.874 8.82-218.412 151.254-220.056 152.494-.752.568-1.06 1.023-.697 1.031.358.008 57.459-27.233 126.89-60.537zm-24.632-42.856l125.829-60.353 113.9-78.898c62.646-43.394 114.421-79.364 115.057-79.934.966-.866 1.005-.986.24-.728-.505.17-57.747 27.564-127.205 60.876L390.054 282.28l-112.077 77.627c-61.642 42.695-113.314 78.55-114.827 79.678-1.905 1.42-2.398 1.969-1.604 1.784.63-.147 57.768-27.426 126.974-60.62zm-25.268-41.743l125.885-60.349 78.156-54.1c144.38-99.943 152.317-105.466 151.808-105.636-.28-.093-57.396 27.115-126.925 60.463L365.76 240.013 251.62 319.05c-62.776 43.47-114.441 79.321-114.81 79.67-.532.5-.543.632-.057.632.338 0 57.263-27.157 126.5-60.348zm-24.238-43.074l125.829-60.363 114.14-79.046c62.776-43.475 114.552-79.45 115.056-79.943l.917-.898-.917.327c-.504.179-57.746 27.578-127.204 60.886l-126.287 60.561-114.37 79.22c-62.902 43.57-114.574 79.432-114.826 79.693-.314.323-.096.386.687.2.63-.151 57.77-27.438 126.975-60.637zm0 0l125.829-60.363 114.14-79.046c62.776-43.475 114.552-79.45 115.056-79.943l.917-.898-.917.327c-.504.179-57.746 27.578-127.204 60.886l-126.287 60.561-114.37 79.22c-62.902 43.57-114.574 79.432-114.826 79.693-.314.323-.096.386.687.2.63-.151 57.77-27.438 126.975-60.637zm-69.206 75.435l5.948-4.15v-7.46c0-8.555.537-14.779 2.063-23.887.591-3.528.989-6.501.884-6.606-.244-.244-6.795 2.69-10.947 4.904-3.773 2.011-3.594 1.56-4.632 11.665-.531 5.176-.701 10.347-.59 17.908.14 9.453.36 11.777 1.113 11.777.117 0 2.89-1.868 6.161-4.151zm93.444-32.361l125.885-60.349 78.156-54.1c144.38-99.943 152.317-105.466 151.808-105.636-.28-.093-57.396 27.115-126.925 60.463L365.76 240.013 251.62 319.05c-62.776 43.47-114.441 79.321-114.81 79.67-.532.5-.543.632-.057.632.338 0 57.263-27.157 126.5-60.348zm-79.225 81.629c2.762-1.91 5.022-3.633 5.022-3.83 0-.196-1.119-2.71-2.487-5.588-2.964-6.236-6.167-15.39-7.6-21.718-.572-2.521-1.18-4.743-1.352-4.936-.172-.194-2.928.899-6.126 2.428-6.91 3.306-6.64 2.53-4.012 11.492 2.81 9.584 9.732 25.624 11.059 25.624.26 0 2.734-1.562 5.496-3.472zm104.493-39.886l125.829-60.353 113.9-78.898c62.646-43.394 114.421-79.364 115.057-79.934.966-.866 1.005-.986.24-.728-.505.17-57.747 27.564-127.205 60.876L390.054 282.28l-112.077 77.627c-61.642 42.695-113.314 78.55-114.827 79.678-1.905 1.42-2.398 1.969-1.604 1.784.63-.147 57.768-27.426 126.974-60.62zm-71.705 77.192c2.629-1.813 4.78-3.517 4.78-3.788 0-.27-1.595-1.726-3.544-3.236-4.603-3.564-14.73-13.685-18.226-18.215-1.508-1.954-2.972-3.552-3.254-3.552-1.231 0-11.189 5.083-11.189 5.711 0 1.033 7.015 9.528 12.147 14.71 5.284 5.335 12.774 11.666 13.802 11.666.387 0 2.855-1.483 5.484-3.296zm96.337-34.336l126.24-60.551 112.849-78.17c128.11-88.743 116.959-80.963 116.345-81.167-.259-.087-57.155 27.017-126.437 60.23l-125.966 60.388-9.168 6.282c-12.874 8.82-218.412 151.254-220.056 152.494-.752.568-1.06 1.023-.697 1.031.358.008 57.459-27.233 126.89-60.537zm-44.05 58.876c3.132-2.182 5.626-4.176 5.54-4.43-.084-.256-1.999-.95-4.254-1.544-9.068-2.387-20.904-6.805-28.602-10.675-2.018-1.014-3.848-1.845-4.068-1.845-.22 0-3.259 1.366-6.754 3.035l-6.355 3.034 1.129.915c1.613 1.309 12.96 6.927 18.955 9.385 5.795 2.377 16.588 6.047 17.862 6.074.468.01 3.414-1.767 6.547-3.949zm65.406-13.738c67.612-32.429 124.683-59.828 126.826-60.887 2.507-1.238 43.873-29.608 115.973-79.536 61.643-42.687 113.176-78.427 114.519-79.423 1.343-.997 2.337-1.916 2.21-2.043-.127-.127-57.127 27.05-126.666 60.394l-126.434 60.626-113.9 78.881c-62.646 43.384-114.421 79.34-115.057 79.9-.636.561-.986 1.027-.778 1.035.208.007 55.696-26.518 123.307-58.947zm-179.013 135.16C82.96 562.117 23.425 527.725 23.19 527.473c-.256-.278-.527-60.686-.686-152.968-.246-143-.214-152.565.516-153.399.782-.895 261.525-152.033 263.666-152.832 1.014-.379 5.53 2.098 39.421 21.625 21.052 12.13 38.328 22.206 38.39 22.391.064.186-4.57 2.607-10.296 5.38-65.185 31.57-118.321 76.528-153.376 129.771-3.137 4.765-7.193 11.242-9.013 14.393-4.272 7.4-12.11 23.39-15.052 30.713-2.64 6.567-6.048 16.293-6.048 17.257 0 .897.395.662 9.693-5.79l7.91-5.49 2.807-6.312c11.299-25.406 26.308-48.245 46.628-70.952 6.901-7.712 21.374-22.018 29.114-28.779 38.727-33.83 86.548-60.53 135.107-75.44 39.3-12.066 79.597-16.3 114.14-11.99l6.876.857 46.868-22.474c25.985-12.461 47.17-22.36 47.545-22.216.824.317 1.437 2.499.863 3.073-.228.228-15.557 10.9-34.064 23.714-18.507 12.815-33.722 23.518-33.811 23.785-.09.267 1.997 1.23 4.635 2.142 9.715 3.356 21.099 8.743 28.371 13.426 1.71 1.1 3.478 2.001 3.93 2.001.452 0 12.855-5.776 27.562-12.835 14.708-7.06 26.903-12.835 27.1-12.835.464 0 1.787 1.884 1.787 2.543 0 .277-10.107 7.503-22.46 16.056-12.353 8.553-22.46 15.692-22.46 15.864 0 .172 2.29 2.544 5.093 5.271 5.82 5.665 11.178 12.127 15.42 18.597 1.612 2.458 3.108 4.469 3.324 4.469.215 0 9.843-4.545 21.395-10.1s21.453-10.215 22.002-10.355c.778-.2 1.158.053 1.722 1.144l.724 1.4-2.41 1.763c-1.325.97-10.403 7.286-20.172 14.037-10.37 7.166-17.763 12.569-17.763 12.98 0 .389.709 2.485 1.575 4.66 3.287 8.252 5.994 19.1 7.363 29.508.176 1.341.516 2.177.885 2.177.33 0 12.513-5.715 27.073-12.7L691.56 188.3l.861 1.063c.473.585.86 1.322.86 1.639 0 .316-12.237 9.047-27.194 19.402-14.956 10.354-27.41 19.097-27.675 19.428-.265.33-.62 2.561-.79 4.956-.73 10.319-2.304 19.787-5.1 30.686-1.737 6.766-1.76 6.903-1.18 6.903.222 0 19.32-9.071 42.44-20.158 23.12-11.087 42.366-20.215 42.77-20.284.414-.071 1.05.436 1.453 1.161.687 1.233.667 1.33-.461 2.292-.649.553-23.363 16.363-50.477 35.135l-49.299 34.13-2.696 5.05c-18.57 34.777-45.427 66.33-80.394 94.452-40.474 32.55-90.242 57.607-138.726 69.846-25.78 6.507-46.917 9.222-71.889 9.231l-11.443.005-9.299 4.452c-5.114 2.448-9.3 4.597-9.3 4.776 0 1.771 39.918 2.801 54.32 1.402 40.991-3.983 79.116-14.309 117.578-31.844 28.957-13.202 59.108-31.403 82.192-49.615 2.066-1.63 3.98-2.966 4.254-2.968.65-.006 1.293 115.681.65 116.885-.497.926-263.182 153.177-264.667 153.399-.63.094-47.433-26.619-132.852-75.824z"/></svg>