<?xml version="1.0" encoding="UTF-8" standalone="no"?>
<svg
   xmlns:dc="http://purl.org/dc/elements/1.1/"
   xmlns:cc="http://creativecommons.org/ns#"
   xmlns:rdf="http://www.w3.org/1999/02/22-rdf-syntax-ns#"
   xmlns:svg="http://www.w3.org/2000/svg"
   xmlns="http://www.w3.org/2000/svg"
   width="2800"
   height="2800"
   viewBox="0 0 740.83332 740.83335"
   version="1.1"
   id="svg4580">
  <defs
     id="defs4574" />
  <metadata
     id="metadata4577">
    <rdf:RDF>
      <cc:Work
         rdf:about="">
        <dc:format>image/svg+xml</dc:format>
        <dc:type
           rdf:resource="http://purl.org/dc/dcmitype/StillImage" />
        <dc:title></dc:title>
      </cc:Work>
    </rdf:RDF>
  </metadata>
  <g
     style="fill:#860071;fill-opacity:1"
     id="layer1"
     transform="matrix(1.2993798,0,0,1.2993798,-108.93407,574.45112)">
    <g
       style="fill:#860071;fill-opacity:1"
       id="g4546"
       transform="matrix(0.26458333,0,0,0.26458333,18.718904,-480.12521)">
      <path
         d="m 791.54,1720.2284 c -1.21367,-1.3411 -2.20666,-3.6107 -2.20666,-5.0436 0,-1.9467 27.66543,-21.8059 109.44254,-78.5618 60.19339,-41.776 110.74342,-76.6864 112.33332,-77.5785 7.2774,-4.0839 463.4822,-319.86 466.8538,-323.1473 1.4474,-1.4113 1.913,-2.5639 1.0356,-2.5639 -1.4454,0 -506.38113,241.7408 -540.99859,259.0062 C 877.54856,1522.4893 723.71808,1596 721.07705,1596 c -1.29189,0 -3.38271,-1.5778 -4.64624,-3.5062 -2.23329,-3.4085 -2.20567,-3.585 0.99077,-6.3333 2.75123,-2.3656 137.19784,-96.095 143.67132,-100.1605 20.44224,-12.8381 527.1605,-363.3972 532.2102,-368.1951 1.8167,-1.726 2.5453,-3.1382 1.6193,-3.1382 -1.812,0 -569.79812,272.0968 -576.25572,276.0584 -7.93046,4.865 -168.40039,81.2749 -170.68739,81.2749 -1.98416,0 -5.31262,-4.9713 -5.31262,-7.9348 0,-0.8907 113.05866,-80.3647 122.43533,-86.0652 1.20622,-0.7333 8.97966,-5.9833 17.2743,-11.6667 8.29466,-5.6833 15.30406,-10.3333 15.57647,-10.3333 1.25536,0 509.77543,-352.7316 512.71393,-355.6407 l 3.3333,-3.29988 -3.1396,0.93777 c -3.5695,1.0662 -521.67908,249.48651 -561.52706,269.23791 -34.95044,17.3239 -169.54147,81.8517 -171.78565,82.3602 -0.98212,0.2226 -3.02859,-1.2176 -4.54771,-3.2004 -2.28575,-2.9834 -2.46847,-3.9588 -1.05959,-5.6564 1.59236,-1.9186 141.7409,-99.5865 151.25127,-105.4052 13.41858,-8.2098 523.79924,-361.86616 527.47504,-365.50147 2.866,-2.83443 2.9594,-3.16652 0.6666,-2.36857 -4.142,1.44156 -448.57477,214.50224 -491.33329,235.54484 -76.71731,37.7545 -253.89403,122.3252 -256.27284,122.3252 -3.0741,0 -6.09043,-6.1144 -4.3217,-8.7606 0.96323,-1.441 220.04742,-154.0428 243.26121,-169.4421 18.1982,-12.0721 81.83053,-55.95156 272.08582,-187.6243 l 217.4498,-150.49369 254.0028,-121.82826 c 139.7015,-67.00554 264.606,-127.02825 277.5655,-133.38377 38.2185,-18.74289 267.0981,-128.58988 272.7208,-130.88781 4.8638,-1.98787 5.2629,-1.96444 7,0.41109 1.013,1.38554 1.842,3.56947 1.842,4.8532 0,1.58604 -31.6304,24.25835 -98.6975,70.74516 -54.2837,37.62611 -99.6964,69.01111 -100.9173,69.74444 -6.1932,3.72001 -476.1527,329.36585 -478.7134,331.71156 -1.647,1.50886 -2.7362,3.00176 -2.4205,3.31752 0.4871,0.48709 490.3844,-233.9022 571.4153,-273.39123 89.8792,-43.80106 176.8204,-84.94166 178.3027,-84.37285 2.4732,0.94902 5.092,7.22628 3.5945,8.61582 -1.4725,1.36633 -115.5854,80.36769 -129.8972,89.9289 -16.2498,10.85599 -525.3266,363.38857 -533.2665,369.28388 -3.9967,2.96744 -6.6103,5.61414 -5.8079,5.88158 1.2236,0.4079 557.8158,-265.73453 606.4078,-289.96246 32.2277,-16.06873 128.1128,-61.67939 129.6656,-61.67939 0.8796,0 2.5244,1.78915 3.6552,3.97587 2.476,4.78795 9.9804,-1.07076 -63.7866,49.79833 -213.8221,147.44995 -611.4672,423.12161 -614.2009,425.80131 l -3.3333,3.2674 6.6666,-2.5895 c 6.3642,-2.4719 558.7171,-267.34388 592,-283.88402 8.8,-4.37321 46.5236,-22.56993 83.8303,-40.43715 l 67.8303,-32.48585 2.503,3.09119 c 1.3767,1.70014 2.5031,3.84468 2.5031,4.76561 0,1.3936 -150.0972,106.7407 -163.1589,114.51458 -4.0596,2.41614 -496.5368,343.28814 -517.1744,357.96644 -9.8627,7.0147 -13.0332,10.4342 -8,8.6282 3.2086,-1.1513 489.2209,-234.12994 501.6666,-240.48282 19.6799,-10.04552 252.2727,-121.20611 254.3612,-121.56414 1.1963,-0.20506 3.0479,1.27795 4.2187,3.37907 1.998,3.58505 1.9408,3.86896 -1.3421,6.66667 -1.886,1.60718 -68.786,48.10798 -148.6667,103.3351 -79.8808,55.22714 -243.4559,168.38142 -363.5004,251.45402 l -218.2625,151.041 -201.0708,96.4284 C 1205.154,1524.946 1181.0297,1536.5738 1110,1571.2866 c -45.5444,22.2579 -314.73111,151.38 -315.58874,151.38 -0.36554,0 -1.65761,-1.0972 -2.87126,-2.4382 z m 427.5594,-213.0628 c 196.662,-94.3256 362.6673,-174.0214 368.9006,-177.102 7.291,-3.6031 127.6134,-86.1227 337.3334,-231.35 179.3,-124.16194 329.1958,-228.12014 333.102,-231.01818 3.9061,-2.89806 6.7992,-5.57202 6.429,-5.94214 -0.3701,-0.37013 -166.166,78.68156 -368.4353,175.67042 l -367.7624,176.3434 -331.304,229.4418 c -182.2172,126.1931 -332.81724,230.7765 -334.6667,232.4077 -1.84946,1.6312 -2.86794,2.9847 -2.26328,3.0079 0.60466,0.023 162.00468,-77.1333 358.66668,-171.4589 z m -62.1178,-131.2924 367.1947,-176.1269 328.2452,-227.37559 c 372.6379,-258.12637 340.2004,-235.49674 338.4155,-236.09174 -0.752,-0.25064 -166.2479,78.5871 -367.7687,175.19502 L 1456.6667,1087.1247 1430,1105.3952 c -37.4444,25.6548 -635.29716,439.9553 -640.07907,443.5625 -2.189,1.6513 -3.08456,2.9764 -2.02748,3 1.04139,0.023 167.13104,-79.2148 369.08815,-176.0845 z m -71.6483,-124.6561 366.0001,-175.5515 331.304,-229.4916 c 182.2172,-126.22037 332.8172,-230.84782 334.6666,-232.50545 2.8094,-2.51792 2.9239,-2.86638 0.696,-2.1176 -1.4666,0.49295 -167.9666,80.17559 -370,177.07252 l -367.3333,176.17625 -326,225.79638 c -179.30002,124.188 -329.60002,228.4803 -334.00002,231.7606 -5.54066,4.1308 -6.97527,5.7257 -4.66667,5.1881 1.83333,-0.4269 168.03333,-79.7744 369.33329,-176.3277 z M 1011.8354,1129.7967 1378,954.25999 1605.3334,796.89596 c 419.9593,-290.70301 443.0476,-306.76899 441.565,-307.26318 -0.8128,-0.27091 -166.9473,78.86981 -369.188,175.86827 L 1310,841.86187 978.00001,1071.7568 c -182.6,126.4422 -332.87858,230.7233 -333.95239,231.7357 -1.5456,1.4573 -1.57991,1.8408 -0.16463,1.8408 0.98326,0 166.56183,-78.9915 367.95241,-175.5366 z m -70.50205,-125.29 365.99995,-175.57742 332.0001,-229.92247 c 182.6,-126.45738 333.2,-231.09715 334.6666,-232.53284 l 2.6667,-2.61036 -2.6667,0.94899 c -1.4666,0.52193 -167.9666,80.21812 -370,177.10262 L 1236.6667,718.06886 904.00001,948.4963 c -182.96667,126.7351 -333.26667,231.047 -334,231.8044 -0.91087,0.9406 -0.27716,1.1245 2,0.5802 1.83333,-0.4382 168.03333,-79.8066 369.33334,-176.3742 z m 0,0 365.99995,-175.57742 332.0001,-229.92247 c 182.6,-126.45738 333.2,-231.09715 334.6666,-232.53284 l 2.6667,-2.61036 -2.6667,0.94899 c -1.4666,0.52193 -167.9666,80.21812 -370,177.10262 L 1236.6667,718.06886 904.00001,948.4963 c -182.96667,126.7351 -333.26667,231.047 -334,231.8044 -0.91087,0.9406 -0.27716,1.1245 2,0.5802 1.83333,-0.4382 168.03333,-79.8066 369.33334,-176.3742 z m -201.30005,219.4197 17.30004,-12.0735 v -21.6949 c 0,-24.8856 1.5638,-42.9893 6.00196,-69.4831 1.71908,-10.2622 2.87542,-18.9086 2.56964,-19.2144 -0.70954,-0.7096 -19.76416,7.827 -31.84082,14.2649 -10.97458,5.8503 -10.45312,4.537 -13.47148,33.9313 -1.54588,15.0545 -2.04147,30.0945 -1.71638,52.088 0.40643,27.4951 1.04499,34.2553 3.23574,34.2553 0.3417,0 8.40629,-5.4331 17.9213,-12.0736 z M 1011.8354,1129.7967 1378,954.25999 1605.3334,796.89596 c 419.9593,-290.70301 443.0476,-306.76899 441.565,-307.26318 -0.8128,-0.27091 -166.9473,78.86981 -369.188,175.86827 L 1310,841.86187 978.00001,1071.7568 c -182.6,126.4422 -332.87858,230.7233 -333.95239,231.7357 -1.5456,1.4573 -1.57991,1.8408 -0.16463,1.8408 0.98326,0 166.56183,-78.9915 367.95241,-175.5366 z m -230.44308,237.4365 c 8.03424,-5.5551 14.60769,-10.5673 14.60769,-11.1384 0,-0.5709 -3.25509,-7.8861 -7.23353,-16.2559 -8.62214,-18.1391 -17.94015,-44.7634 -22.10914,-63.1722 -1.66076,-7.3334 -3.42902,-13.7944 -3.92949,-14.3578 -0.50045,-0.5634 -8.51896,2.6155 -17.81888,7.0641 -20.10257,9.6162 -19.31339,7.3559 -11.67091,33.4257 8.1723,27.8771 28.30796,74.5346 32.16642,74.5346 0.75909,0 7.95361,-4.545 15.98784,-10.1001 z m 303.94098,-116.0161 366.0001,-175.5515 331.304,-229.4916 c 182.2172,-126.22037 332.8172,-230.84782 334.6666,-232.50545 2.8094,-2.51792 2.9239,-2.86638 0.696,-2.1176 -1.4666,0.49295 -167.9666,80.17559 -370,177.07252 l -367.3333,176.17625 -326,225.79638 c -179.30002,124.188 -329.60002,228.4803 -334.00002,231.7606 -5.54066,4.1308 -6.97527,5.7257 -4.66667,5.1881 1.83333,-0.4269 168.03333,-79.7744 369.33329,-176.3277 z m -208.57113,224.5293 c 7.64748,-5.2728 13.90451,-10.2307 13.90451,-11.0175 0,-0.7868 -4.6386,-5.0226 -10.308,-9.413 -13.38935,-10.3688 -42.84555,-39.8071 -53.01483,-52.9826 C 822.95728,1396.65 818.69861,1392 817.88013,1392 c -3.58161,0 -32.54679,14.7855 -32.54679,16.6137 0,3.0042 20.40459,27.7126 35.33334,42.7862 15.36958,15.5185 37.1559,33.9334 40.14609,33.9334 1.12469,0 8.30191,-4.3141 15.9494,-9.5869 z m 280.21943,-99.8732 367.1947,-176.1269 328.2452,-227.37559 c 372.6379,-258.12637 340.2004,-235.49674 338.4155,-236.09174 -0.752,-0.25064 -166.2479,78.5871 -367.7687,175.19502 L 1456.6667,1087.1247 1430,1105.3952 c -37.4444,25.6548 -635.29716,439.9553 -640.07907,443.5625 -2.189,1.6513 -3.08456,2.9764 -2.02748,3 1.04139,0.023 167.13104,-79.2148 369.08815,-176.0845 z m -128.1313,171.2533 c 9.1121,-6.3471 16.3651,-12.1469 16.1179,-12.8885 -0.2472,-0.7418 -5.8162,-2.7614 -12.3755,-4.4882 -26.3768,-6.9437 -60.80546,-19.7935 -83.19582,-31.0511 -5.86905,-2.951 -11.19347,-5.3654 -11.83203,-5.3654 -0.63856,0 -9.47913,3.9715 -19.64572,8.8254 l -18.48469,8.8254 3.28278,2.6627 c 4.69351,3.8069 37.69602,20.1472 55.13478,27.2985 16.85711,6.9128 48.2499,17.5881 51.9561,17.668 1.3612,0.029 9.9301,-5.1397 19.0422,-11.4868 z m 190.2491,-39.9609 c 196.662,-94.3256 362.6673,-174.0214 368.9006,-177.102 7.291,-3.6031 127.6134,-86.1227 337.3334,-231.35 179.3,-124.16194 329.1958,-228.12014 333.102,-231.01818 3.9061,-2.89806 6.7992,-5.57202 6.429,-5.94214 -0.3701,-0.37013 -166.166,78.68156 -368.4353,175.67042 l -367.7624,176.3434 -331.304,229.4418 c -182.2172,126.1931 -332.81724,230.7765 -334.6667,232.4077 -1.84946,1.6312 -2.86794,2.9847 -2.26328,3.0079 0.60466,0.023 162.00468,-77.1333 358.66668,-171.4589 z M 698.39924,1900.3068 C 487.41882,1778.7713 314.24404,1678.7333 313.56642,1678 c -0.7455,-0.8068 -1.53344,-176.518 -1.99524,-444.9396 -0.7156,-415.94457 -0.6221,-443.76752 1.49948,-446.19364 2.27626,-2.603 760.70354,-442.22056 766.92934,-444.54574 2.9516,-1.10232 16.0849,6.10212 114.6667,62.90183 61.2333,35.28069 111.4833,64.58865 111.6667,65.12878 0.1834,0.54015 -13.2943,7.58199 -29.9505,15.64855 -189.6052,91.82581 -344.16278,222.59653 -446.12665,377.46648 -9.1252,13.86 -20.92237,32.7 -26.21593,41.86666 -12.4278,21.5208 -35.22346,68.03114 -43.78407,89.33334 -7.67664,19.10254 -17.58957,47.39094 -17.58957,50.19514 0,2.6109 1.14649,1.926 28.1926,-16.8423 l 23.0089,-15.9668 8.16479,-18.3597 c 32.86408,-73.89956 76.52184,-140.33192 135.62772,-206.37961 20.07328,-22.43083 62.17112,-64.04442 84.68391,-83.70984 112.6466,-98.3991 251.742,-176.06546 392.9888,-219.4322 114.3126,-35.09719 231.5248,-47.41061 332,-34.87738 l 20,2.49479 136.326,-65.3732 c 75.5837,-36.24514 137.2026,-65.03676 138.2936,-64.61814 2.3973,0.91998 4.1817,7.26791 2.5122,8.93743 -0.6634,0.66345 -45.2508,31.70337 -99.083,68.9776 -53.8322,37.27424 -98.0886,68.4066 -98.3474,69.18304 -0.2588,0.77644 5.8082,3.58057 13.482,6.23141 28.2578,9.76127 61.371,25.43067 82.5248,39.05135 4.9728,3.20196 10.1167,5.82174 11.4307,5.82174 1.314,0 37.3908,-16.8 80.1707,-37.33333 42.7798,-20.53333 78.252,-37.33333 78.827,-37.33333 1.3472,0 5.1967,5.47813 5.1967,7.39536 0,0.80779 -29.3984,21.82428 -65.3297,46.70333 -35.9315,24.87905 -65.3315,45.64349 -65.3334,46.1432 0,0.49971 6.665,7.39971 14.8154,15.33333 16.9288,16.47842 32.5138,35.27287 44.855,54.09144 4.689,7.15 9.0387,13 9.6662,13 0.6274,0 28.6326,-13.22001 62.2337,-29.3778 33.6011,-16.1578 62.3993,-29.71194 63.9964,-30.12033 2.2636,-0.57889 3.3675,0.15476 5.0089,3.32907 l 2.1056,4.0716 -7.009,5.1273 c -3.855,2.82002 -30.2591,21.19394 -58.6758,40.83094 -30.1616,20.84282 -51.6666,36.55794 -51.6666,37.75612 0,1.12886 2.061,7.22686 4.5802,13.55113 9.5622,24.00583 17.4346,55.556 21.4168,85.83197 0.5131,3.90068 1.5024,6.33333 2.5759,6.33333 0.9587,0 36.3955,-16.62462 78.7484,-36.94362 l 77.0056,-36.94361 2.5032,3.09133 c 1.3768,1.70023 2.5032,3.84483 2.5032,4.76576 0,0.92092 -35.5952,26.31671 -79.1004,56.43505 -43.5053,30.11836 -79.7304,55.5484 -80.5003,56.5112 -0.7698,0.96281 -1.803,7.45056 -2.296,14.41723 -2.1237,30.01328 -6.7018,57.55284 -14.8374,89.25465 -5.0511,19.68233 -5.1188,20.07868 -3.4291,20.07868 0.6436,0 56.1923,-26.38489 123.4416,-58.63309 67.2495,-32.24822 123.2339,-58.79822 124.4099,-59 1.2037,-0.20656 3.0502,1.26954 4.2249,3.37761 1.9979,3.58503 1.9408,3.86899 -1.3419,6.66667 -1.8857,1.60718 -67.9564,47.59626 -146.8237,102.19798 l -143.3951,99.27584 -7.8429,14.6879 c -54.0144,101.1554 -132.1344,192.9355 -233.8429,274.7329 -117.7276,94.6803 -262.487,167.5641 -403.5146,203.1621 -74.9888,18.9286 -136.4675,26.8234 -209.1036,26.8522 l -33.2849,0.013 -27.0485,12.9486 c -14.8766,7.1214 -27.0485,13.3737 -27.0485,13.8938 0,5.1514 116.107,8.1471 158,4.0766 119.2313,-11.5851 230.1253,-41.6188 342.0001,-92.6248 84.2284,-38.4015 171.927,-91.3407 239.0738,-144.3167 6.0094,-4.741 11.5775,-8.6256 12.3735,-8.6322 1.8927,-0.016 3.7609,336.4847 1.8875,339.9851 -1.4423,2.6951 -765.5192,445.5487 -769.8402,446.194 -1.8317,0.2736 -137.96855,-77.4254 -386.42876,-220.551 z"
         style="fill:#860071;stroke-width:1.33333337;fill-opacity:1"
         id="path4548" />
    </g>
  </g>
</svg>
