<svg xmlns="http://www.w3.org/2000/svg" width="2800" height="2800"><path fill="#fcfefe" d="M0 1400V338.462h2800v2123.076H0z"/><path fill="#9ca888" d="M6.154 1396.923V344.615H1628.87l64.765 42.774c76.315 50.402 146.386 118.263 178.87 173.228 28.091 47.535 49.022 112.735 46.364 144.43l-1.947 23.224-43.077 8.543c-73.058 14.488-138.697 50.625-196.89 108.398-60.254 59.82-90.416 115.071-106 194.174-22.408 113.736 15.502 239.38 96.736 320.614 133.902 133.902 360.09 128.931 503.414-11.064 104.272-101.85 145.29-204.168 144.82-361.244-.674-224.426-72.966-409.095-229.503-586.263l-50.198-56.814h757.621v2104.616H6.154z"/><path fill="#c0a366" d="M6.154 1396.923V344.615H1628.87l64.765 42.774c76.315 50.402 146.386 118.263 178.87 173.228 28.091 47.535 49.022 112.735 46.364 144.43l-1.947 23.224-43.077 8.543c-73.058 14.488-138.697 50.625-196.89 108.398-60.254 59.82-90.416 115.071-106 194.174-22.408 113.736 15.502 239.38 96.736 320.614 133.902 133.902 360.09 128.931 503.414-11.064 104.272-101.85 145.29-204.168 144.82-361.244-.674-224.426-72.966-409.095-229.503-586.263l-50.198-56.814h757.621v2104.616H6.154zm1265.259 590.525c28.316-52.327 51.524-98.364 51.574-102.303.05-3.94-18.602-17.538-41.449-30.22-177.041-98.272-275.67-201.683-306.29-321.141-8.953-34.928-9.03-35.013-6.831-7.63 4.2 52.338 55.381 139.758 115.22 196.805 42.345 40.37 112.263 91.008 167.478 121.297 27.733 15.213 53.8 30.877 57.926 34.809 5.852 5.576 1.453 18.653-19.99 59.427-15.12 28.752-36.496 69.932-47.502 91.51-21.824 42.786-30.73 49.719-49.117 38.235-6.65-4.153-13.452-6.192-15.114-4.53-3.846 3.847 30.108 22.438 37.262 20.403 2.942-.837 28.517-44.335 56.833-96.662zm-102.182 71.598c0-1.37-21.462-15.335-47.693-31.033-66.598-39.854-67.362-40.343-108.925-69.634-20.476-14.43-48.082-33.453-61.348-42.274-40.733-27.084-178.154-168.666-214.328-220.818-67.91-97.907-113.703-201.733-142.447-322.98-7.944-33.507-9.062-35.505-6.89-12.307 7.888 84.263 74.92 241.415 145.63 341.422 84.526 119.546 226.4 241.928 386.77 333.633 48.089 27.498 49.23 28.055 49.23 23.991zm-204.989-592.892c-1.548-5.923-2.814-1.077-2.814 10.77 0 11.845 1.266 16.691 2.814 10.768 1.548-5.923 1.548-15.615 0-21.538zm48.066-13.846c16.583-4.22 16.896-4.71 3.077-4.813-8.462-.063-22.308 2.103-30.77 4.813-12.055 3.86-12.72 4.902-3.077 4.812 6.77-.063 20.616-2.229 30.77-4.812zm107.33-39.178c48.921-23.8 131.626-102.965 158.37-151.592 35.216-64.028 42.026-93.717 41.642-181.538-.315-72.107-2.008-84.234-17.166-122.917-23.126-59.02-47.367-94.78-93.499-137.935-41.612-38.926-100.354-71.052-141.293-77.273-21.8-3.313-20.745-2.431 9.231 7.71 94.522 31.975 162.691 91.238 203.103 176.569 87.216 184.157 11.762 393.693-175.41 487.114-30.462 15.204-48.462 25.732-40 23.395 8.46-2.337 33.221-12.926 55.023-23.533zm-537.532-199.284c-.33-95.723 1.544-121.676 11-152.308 48.864-158.273 151.7-269.113 288.922-311.409 28.426-8.761 31.784-10.792 13.357-8.077-56.848 8.376-132.187 51.683-188.162 108.16-90.28 91.09-134.915 204.395-134.915 342.472 0 52.506 5.571 136.547 9.052 136.547.63 0 .966-51.923.746-115.385zm431.946-479.9c-15.963-1.262-43.655-1.275-61.538-.028-17.883 1.247-4.822 2.28 29.024 2.296 33.847.016 48.478-1.004 32.514-2.267z"/><path fill="#baa46a" d="M6.154 1396.923V344.615H1628.87l64.765 42.774c76.315 50.402 146.386 118.263 178.87 173.228 28.091 47.535 49.022 112.735 46.364 144.43l-1.947 23.224-43.077 8.543c-73.058 14.488-138.697 50.625-196.89 108.398-60.254 59.82-90.416 115.071-106 194.174-22.408 113.736 15.502 239.38 96.736 320.614 133.902 133.902 360.09 128.931 503.414-11.064 104.272-101.85 145.29-204.168 144.82-361.244-.674-224.426-72.966-409.095-229.503-586.263l-50.198-56.814h757.621v2104.616H6.154zm1265.259 590.525c28.316-52.327 51.524-98.364 51.574-102.303.05-3.94-18.602-17.538-41.449-30.22-177.041-98.272-275.67-201.683-306.29-321.141-8.953-34.928-9.03-35.013-6.831-7.63 3.884 48.392 52.292 134.457 105.567 187.692 10.162 10.154 33.673 30.747 52.246 45.763 47.242 38.192 46.326 37.314 38.944 37.314-3.585 0-18.677-10.589-33.538-23.53-24.793-21.591-37.449-29.351-50.317-30.851-7.518-.877-23.256-18.23-21.539-23.75.846-2.72-3.95-11.41-10.66-19.31-6.708-7.9-17.043-20.094-22.966-27.096-5.923-7.002-10.77-14.878-10.77-17.503s-3.638-8.433-8.086-12.905c-4.447-4.473-17.229-27.509-28.403-51.191-18.388-38.972-20.057-47.152-17.574-86.154 1.508-23.702 1.653-35.48.32-26.171-3.062 21.402-11.567 21.878-15.582.87-2.7-14.124.167-17.483 23.898-27.98 14.866-6.576 26.966-16.143 26.966-21.322 0-5.741 4.188-8.478 10.77-7.039 5.922 1.296 10.076 5.652 9.23 9.682-.846 4.03 1.004 7.327 4.112 7.327s10.485 1.855 16.394 4.123c7.355 2.822 9.332 1.838 6.267-3.12-2.564-4.15-.215-8.879 5.499-11.071 5.485-2.106 8.553-7.53 6.817-12.056-2.362-6.155 1.343-7.328 14.704-4.656 12.423 2.485 24.519-.542 39.727-9.941 12.025-7.433 21.865-14.882 21.865-16.553 0-1.672-12.958-2.243-28.796-1.27-18.47 1.136-29.687-.904-31.282-5.689-3.239-9.716 54.81-10.266 64.466-.61 5.03 5.03 9.806 3.395 17.983-6.154 6.123-7.152 14.53-13.003 18.683-13.003 4.153 0 14.943-9.692 23.978-21.538 9.036-11.847 19.908-21.539 24.16-21.539 4.252 0 9.392-8.308 11.423-18.461 2.031-10.154 7.48-18.462 12.11-18.462 9.29 0 27.556-34.102 46.192-86.236 14.041-39.28 14.988-47.037 14.072-115.302-.547-40.723-2.508-50.77-9.912-50.77-5.077 0-9.231-4.154-9.231-9.23 0-5.077 2.77-9.231 6.154-9.231 12.104 0 5.441-28.466-17.77-75.923-19.37-39.603-24.23-45.786-27.162-34.571-2.812 10.754-6.592 12.849-17.781 9.852-7.816-2.093-19.056-3.843-24.98-3.89-6.738-.051-10.769-4.82-10.769-12.74 0-12.421.346-12.45 18.722-1.596 16.363 9.666 19.453 9.904 24.521 1.887 8.634-13.656 7.47-17.15-9.397-28.2-8.461-5.545-15.384-13.072-15.384-16.729 0-3.656-7.441-14.414-16.536-23.907-9.095-9.493-13.941-17.259-10.77-17.257 13.624.008 78.671 82.905 97.813 124.653 83.422 181.949 6.47 390.286-178.2 482.458-30.461 15.204-48.461 25.732-40 23.395 8.462-2.337 33.223-12.926 55.024-23.533 48.92-23.8 131.625-102.965 158.37-151.592 35.215-64.028 42.025-93.717 41.642-181.538-.315-72.107-2.01-84.234-17.167-122.917-23.126-59.02-47.366-94.78-93.499-137.935-41.626-38.94-100.382-71.067-141.293-77.258-20.273-3.068-18.102-1.525 12.308 8.747 44.932 15.178 98.856 44.143 97.385 52.31-.592 3.287-4.44 7.097-8.55 8.467-4.286 1.429-5.64-.473-3.175-4.462 2.752-4.452-1.184-6.952-10.947-6.952-21.588 0-34.713-6.066-34.713-16.043 0-4.715-4.154-8.572-9.23-8.572-5.078 0-9.232-2.663-9.232-5.917 0-10.182-44.023-17.295-98.461-15.91-28.77.732-55.623-1.198-59.674-4.289-9.585-7.312-88.018 18.801-88.018 29.304 0 4.403-7.223 7.46-16.923 7.163-9.308-.285-25.231 1.413-35.385 3.773-30.207 7.02 37.365-26.485 80-39.667 28.536-8.824 31.332-10.593 12.308-7.79-56.848 8.376-132.187 51.683-188.162 108.16-64.846 65.428-106.619 143.556-125.19 234.144-10.33 50.386-12.27 163.804-3.716 217.182 3.109 19.393 3.892-2.221 2.12-58.461-1.547-49.077-.193-105.846 3.01-126.154 5.748-36.455 5.832-36.104 6.666 27.692.556 42.56 2.8 61.524 6.573 55.558 4.908-7.76 6.312-7.54 9.795 1.538 2.237 5.828 2.237 15.365 0 21.193-3.483 9.078-4.887 9.299-9.795 1.539-10.578-16.726-6.388 77.307 6.372 143.031 6.76 34.812 12.298 64.151 12.308 65.197.01 1.046 2.788.19 6.172-1.902 3.655-2.259 6.154 4.943 6.154 17.735 0 11.846 2.412 23.03 5.36 24.85 2.947 1.823 7.031 11.678 9.076 21.902 2.045 10.225 9.326 30.9 16.18 45.945 6.854 15.045 12.461 29.937 12.461 33.092 0 3.156 4.154 9.186 9.231 13.4 5.077 4.213 9.23 11.587 9.23 16.387 0 9.329 17.143 35.626 44.616 68.442 9.308 11.117 16.923 23.085 16.923 26.593 0 3.509 3.462 10.327 7.693 15.152 4.23 4.825 17.384 21.074 29.23 36.11 20.936 26.572 40.175 37.566 32.995 18.854-1.951-5.085-.183-9.231 3.937-9.231 4.765 0 6.17 5.216 3.872 14.371-3.975 15.84 14.564 41.014 30.205 41.014 4.945 0 8.991 5.4 8.991 12.001 0 6.602 3.776 14.217 8.39 16.924 9.937 5.828 49.51 37.335 66.082 52.613 6.425 5.923 13.952 10.77 16.726 10.77 2.774 0 11.064 6.922 18.421 15.384 13.748 15.811 25.766 20.117 25.766 9.23 0-3.384 5.039-6.153 11.198-6.153 13.971 0 43.333 32.08 32.628 35.648-9.378 3.125 2.94 19.736 14.635 19.736 4.249 0 11.006 3.955 15.017 8.788 7.884 9.5 68.06 42.59 68.06 37.425 0-1.724 5.77 2.634 12.82 9.685 22.468 22.467 9.513 18.363-40.804-12.926-26.916-16.738-53.093-32.427-58.17-34.865-16.392-7.873-52.657-34.65-41.735-30.816 13.71 4.812 20.288-5.527 6.808-10.7-5.633-2.162-11.929-1.202-13.99 2.133-6.814 11.025-105.198-69.002-180.95-147.185-120.085-123.943-193.303-258.668-234.104-430.77-7.944-33.507-9.062-35.505-6.89-12.307 7.888 84.263 74.92 241.415 145.63 341.422 85.053 120.29 239.401 252.652 392.924 336.952 32.82 18.022 42.741 20.908 55.274 16.08 10.253-3.95 15.986-3.752 17.436.6 5.468 16.404 31.307-4.222 31.71-25.31.107-5.642 2.402-11.18 5.1-12.308 2.698-1.129 11.291-14.513 19.096-29.744 48.335-94.324 50.428-99.575 43.186-108.302-4.216-5.08-4.628-8.62-1.001-8.62 3.384 0 9.123 3.577 12.753 7.95 4.902 5.907-.441 21.34-20.774 60-15.056 28.627-36.379 69.704-47.385 91.281-21.824 42.787-30.73 49.72-49.117 38.236-6.65-4.153-13.452-6.192-15.114-4.53-3.846 3.847 30.108 22.438 37.262 20.403 2.942-.837 28.517-44.335 56.833-96.662zm-103.336 26.81c4.442-1.778 9.75-1.56 11.795.485s-1.59 3.5-8.077 3.232c-7.169-.295-8.627-1.753-3.718-3.717zm-41.923-75.797c0-3.384 2.77-6.153 6.154-6.153s6.154 2.769 6.154 6.153c0 3.385-2.77 6.154-6.154 6.154-3.385 0-6.154-2.769-6.154-6.154zm113.701-24.158c2.471-7.786-.025-14.055-7.278-18.275-6.071-3.532-8.13-6.507-4.577-6.61 9.951-.288 21.23 13.344 21.23 25.659 0 6.092-2.955 11.077-6.568 11.077-3.683 0-4.916-5.205-2.807-11.851zm-55.24-6.61c2.092-3.385 10.727-6.155 19.188-6.155 8.69 0 13.73 2.679 11.582 6.154-2.092 3.385-10.727 6.154-19.188 6.154-8.69 0-13.73-2.678-11.582-6.154zm89.231-21.54c-6.274-7.56-5.854-9.23 2.324-9.23 5.49 0 9.984 4.154 9.984 9.23 0 5.078-1.046 9.232-2.324 9.232-1.277 0-5.77-4.154-9.984-9.231zm-113.843-9.225c-2.101-3.4 3.45-8.946 12.335-12.324 20.227-7.69 23.193-7.694 18.452-.025-6.847 11.079-26.66 19.024-30.787 12.346zm66.15-7.516c-19.74-9.52-17.114-17.025 6.155-17.59l20-.485-27.693-13.384c-35.965-17.381-58.708-33.604-53.879-38.433 2.112-2.112 13.022 2.98 24.244 11.316 11.223 8.335 37.762 24.258 58.976 35.383 21.214 11.125 37.55 21.25 36.3 22.499-1.249 1.25-10.1-1.79-19.668-6.755-19.785-10.264-31.669-6.696-20.903 6.277 8.9 10.723-2.546 11.293-23.531 1.172zm-315.167-16.7c-8.002-14.95-8.313-33.1-.485-28.263 3.237 2 4.334 7.68 2.438 12.62-1.927 5.021.905 10.65 6.423 12.768 10.718 4.113 13.556 14.778 3.932 14.778-3.266 0-8.804-5.356-12.308-11.903zm255.168-18.866c2.092-3.384 6.572-6.154 9.957-6.154 3.385 0 4.442 2.77 2.35 6.154-2.091 3.385-6.572 6.154-9.957 6.154-3.384 0-4.442-2.77-2.35-6.154zm-64.616-24.615c0-3.385 2.77-6.154 6.154-6.154 3.385 0 6.154 2.77 6.154 6.154s-2.77 6.154-6.154 6.154-6.154-2.77-6.154-6.154zm-43.076-24.616c0-3.384 2.769-6.153 6.153-6.153 3.385 0 6.154 2.769 6.154 6.153 0 3.385-2.769 6.154-6.154 6.154-3.384 0-6.153-2.769-6.153-6.154zM1040 1766.154c0-3.385 2.77-6.154 6.154-6.154s6.154 2.77 6.154 6.154-2.77 6.154-6.154 6.154c-3.385 0-6.154-2.77-6.154-6.154zm40 0c2.092-3.385 5.024-6.154 6.517-6.154 1.493 0 2.714 2.77 2.714 6.154s-2.933 6.154-6.517 6.154c-3.585 0-4.806-2.77-2.714-6.154zm-282.885-26.42c-5.884-13.557-4.775-14.731 18.282-19.362 16.82-3.378 17.253-3.079 4.898 3.386-7.452 3.9-14.64 11.572-15.97 17.05-2.122 8.732-3.011 8.6-7.21-1.074zm165.962-47.426c-2.092-3.385.514-6.154 5.79-6.154 5.277 0 9.595 2.77 9.595 6.154s-2.606 6.154-5.791 6.154c-3.185 0-7.502-2.77-9.594-6.154zm-21.539-24.979c0-6.969 2.77-10.96 6.154-8.867 3.385 2.091 6.154 7.793 6.154 12.67 0 4.878-2.77 8.868-6.154 8.868s-6.154-5.702-6.154-12.67zm37.27-11.298c-4.634-8.659-3.898-13.607 2.86-19.215 7.702-6.393 9.101-4.6 9.101 11.661 0 22.089-3.126 24.063-11.962 7.554zm-243.18-27.4c-15.656-11.448-2.743-18.139 19.032-9.86 13.784 5.24 15.426 7.692 8.208 12.257-11.903 7.529-13.907 7.352-27.24-2.396zm208.987-4.016c-2.091-3.384-.87-6.153 2.714-6.153s6.517 2.769 6.517 6.153c0 3.385-1.221 6.154-2.714 6.154-1.492 0-4.425-2.769-6.517-6.154zm-249.23-40c0-5.077 2.769-9.23 6.153-9.23 3.385 0 6.154 4.153 6.154 9.23 0 5.077-2.769 9.231-6.154 9.231-3.384 0-6.153-4.154-6.153-9.23zm0-55.384c0-5.077 4.153-9.231 9.23-9.231 5.077 0 9.231 4.154 9.231 9.23 0 5.078-4.154 9.232-9.23 9.232-5.078 0-9.231-4.154-9.231-9.231zm249.23-9.231c-2.091-3.385-.87-6.154 2.714-6.154s6.517 2.77 6.517 6.154c0 3.385-1.221 6.154-2.714 6.154-1.492 0-4.425-2.77-6.517-6.154zm-320-104.615c2.092-3.385 5.025-6.154 6.517-6.154 1.493 0 2.714 2.769 2.714 6.154 0 3.384-2.933 6.153-6.517 6.153-3.584 0-4.805-2.769-2.714-6.153zm.51-48.405c-2.65-4.29-3.157-9.46-1.126-11.492 5.507-5.507 11.512 2.593 8.538 11.517-2.085 6.253-3.534 6.248-7.411-.025zm487.182-23.949c-5.923-1.317-10.769-4.961-10.769-8.098 0-7.208 6.673-7.131 18.284.212 11.054 6.99 7.103 11.138-7.515 7.887zm26.155-1.493c0-3.384 2.769-6.153 6.153-6.153 3.385 0 6.154 2.769 6.154 6.153 0 3.385-2.769 6.154-6.154 6.154-3.384 0-6.153-2.769-6.153-6.154zm104.615-110.769c0-3.384 4.154-6.154 9.23-6.154 5.078 0 9.231 2.77 9.231 6.154 0 3.385-4.153 6.154-9.23 6.154-5.077 0-9.231-2.77-9.231-6.154zm-621.539-86.517c0-10.983 2.564-17.24 6.154-15.021 3.385 2.092 6.154 10.563 6.154 18.825 0 8.261-2.77 15.02-6.154 15.02s-6.154-8.47-6.154-18.824zm643.371-56.56c-2.578-5.923-2.578-15.615 0-21.538 4.465-10.257 4.81-10.257 7.264 0 1.417 5.923 1.417 15.615 0 21.538-2.453 10.257-2.8 10.257-7.264 0zm-670.726-26.154c7.553-32.545 39.781-105.759 60.027-136.367 38.644-58.424 133.482-147.45 133.482-125.302 0 4.807 3.652 4.764 12.835-.15 17.436-9.332 22.364-2.505 8.917 12.354-7.482 8.267-14.185 10.542-20.988 7.12-15.25-7.67-47.438 17.143-44.951 34.654 2.042 14.38-8.277 19.53-12.678 6.327-1.681-5.044-8.715-2.511-21.364 7.692-21.875 17.645-38.205 42.83-34.462 53.15 1.43 3.944-2.585 8.816-8.92 10.827-6.337 2.011-15.314 13.323-19.95 25.138-4.635 11.815-10.52 21.481-13.079 21.481-2.557 0-10.892 20.077-18.522 44.616-14.217 45.727-28.142 72.05-20.347 38.461zM708.78 894.356c2.994-15.438 17.374-17.558 17.374-2.561 0 7.559-3.974 12.82-9.682 12.82-5.73 0-8.87-4.186-7.692-10.259zM1160 849.231c-5.151-8.335 1.8-18.462 12.67-18.462 9.982 0 10.39 1.183 5.133 14.882-4.246 11.066-12.19 12.663-17.803 3.58zm-262.77-25.846c5.744-5.744 9.026-5.744 14.77 0 5.744 5.743 4.103 7.384-7.385 7.384-11.487 0-13.128-1.64-7.384-7.384zm244.308 1.23c2.092-3.384 5.025-6.153 6.518-6.153 1.492 0 2.713 2.769 2.713 6.153 0 3.385-2.932 6.154-6.517 6.154-3.584 0-4.805-2.769-2.714-6.154zm-253.729-28.88c5.988-1.56 14.296-1.457 18.462.229 4.166 1.685-.733 2.962-10.886 2.836-10.154-.125-13.563-1.504-7.576-3.064zm30.653-12.145c-13.432-5.373-8.297-14.36 8.205-14.36 9.536 0 14.922 2.925 13.461 7.308-2.886 8.658-11.027 11.307-21.666 7.052zm125.64-6.154c-9.477-9.477-2.801-13.808 15.898-10.315 29.336 5.482 35.502 14.417 9.949 14.417-11.96 0-23.59-1.846-25.846-4.102zm-31.794 674.872c16.583-4.22 16.896-4.71 3.077-4.813-8.462-.063-22.308 2.103-30.77 4.813-12.055 3.86-12.72 4.902-3.077 4.812 6.77-.063 20.616-2.229 30.77-4.812zm1.745-718.361c-15.964-1.263-43.656-1.276-61.539-.03-17.883 1.248-4.822 2.281 29.025 2.297 33.846.016 48.477-1.004 32.514-2.267z"/><path fill="#71a4ad" d="M6.154 1396.923V344.615H1628.87l64.765 42.774c76.315 50.402 146.386 118.263 178.87 173.228 28.091 47.535 49.022 112.735 46.364 144.43l-1.947 23.224-43.077 8.543c-73.058 14.488-138.697 50.625-196.89 108.398-60.254 59.82-90.416 115.071-106 194.174-22.408 113.736 15.502 239.38 96.736 320.614 133.902 133.902 360.09 128.931 503.414-11.064 104.272-101.85 145.29-204.168 144.82-361.244-.674-224.426-72.966-409.095-229.503-586.263l-50.198-56.814h757.621v2104.616H6.154zm1265.259 590.525c28.316-52.327 51.524-98.364 51.574-102.303.05-3.94-18.602-17.538-41.449-30.22-161.751-89.785-262.316-189.368-298.012-295.105-6.036-17.879-12.752-47.633-14.925-66.121l-3.951-33.615 29.606-4.44c37.337-5.598 102.934-29.11 141.926-50.87 40.604-22.658 118.873-101.738 141.768-143.236 35.244-63.878 42.084-93.659 41.7-181.538-.315-72.107-2.008-84.234-17.166-122.917-23.126-59.02-47.367-94.78-93.499-137.935-64.292-60.142-135.095-86.93-229.288-86.75-109.157.21-204.002 43.264-282.937 128.436-84.719 91.415-124.574 199.551-124.34 337.368.233 137.119 27.052 254.288 85.63 374.106 77.667 158.863 194.457 287.344 366.565 403.257 61.396 41.35 182.796 110.767 189.965 108.623 2.942-.88 28.517-44.413 56.833-96.74z"/><path fill="#6a8a77" d="M12.308 1396.923V344.615h1609.796l44.334 27.334c139.091 85.755 228.037 192.916 247.446 298.122 10.095 54.711 11.31 52.791-40.538 64.043-151.57 32.891-276.18 155.247-304.45 298.939-10.308 52.393-4.568 141.619 12.323 191.562 36.92 109.17 129.362 196.258 238.493 224.683 45.336 11.808 130.676 11.732 177.457-.16 71.768-18.243 124.254-49.572 184.61-110.192 46.331-46.536 60.47-65.636 84.632-114.33 37.337-75.25 47.7-115.952 51.833-203.6 10.945-232.1-74.413-455.487-241.875-633.006l-40.937-43.395h758.414v2104.616H12.308zm1262.004 584.785l54.205-100.821-51.19-28.695c-88.568-49.65-140.36-87.104-191.173-138.251-71.92-72.392-108.156-140.282-117.553-220.242l-3.951-33.615 29.606-4.44c37.337-5.598 102.934-29.11 141.926-50.87 40.604-22.658 118.873-101.738 141.768-143.236 35.244-63.878 42.084-93.659 41.7-181.538-.315-72.107-2.008-84.234-17.166-122.917-23.126-59.02-47.367-94.78-93.499-137.935-64.292-60.142-135.095-86.93-229.288-86.75-109.157.21-204.002 43.264-282.937 128.436-84.719 91.415-124.574 199.551-124.34 337.368.233 137.119 27.052 254.288 85.63 374.106 77.667 158.863 194.457 287.344 366.565 403.257 61.757 41.593 182.814 110.763 190.054 108.593 2.99-.896 29.83-46.999 59.643-102.45z"/><path fill="#397282" d="M12.308 1396.936V344.616h1609.796l44.334 27.333c139.091 85.755 228.037 192.916 247.446 298.122 10.095 54.711 11.31 52.791-40.538 64.043-93.894 20.375-186.014 79.841-239.246 154.44-50.933 71.377-71.094 133.311-70.932 217.903.192 100.128 33.168 181.798 101.43 251.208 68.162 69.307 143.453 100.797 241.007 100.797 68.025 0 105.949-8.648 168.114-38.337 43.247-20.653 61.725-34.518 107.932-80.984 46.39-46.65 60.627-65.88 84.79-114.526 44.396-89.382 50.56-119.708 50.035-246.153-.388-93.45-2.576-116.828-16.551-176.77-36.629-157.111-110.536-293.875-223.556-413.682l-40.937-43.395H2793.881l-1.555 1050.77-1.556 1050.769-1389.231 1.552-1389.23 1.552zm1263.077 588.2c29.615-55.502 53.846-102.515 53.846-104.474 0-1.96-15.923-11.625-35.385-21.48-140.461-71.127-260.098-182.637-301.61-281.124-14.577-34.58-28.35-107.94-21.343-113.674 2.47-2.021 22.492-7.194 44.492-11.496 110.354-21.575 219.84-103.83 270.572-203.272 45.165-88.53 51.693-193.342 18.298-293.755-33.867-101.829-134.002-192.768-239.64-217.632-46.955-11.053-138.62-9.417-182.496 3.256-111.884 32.316-216.82 126.568-271.144 243.535-79.974 172.196-40.383 470.263 89.384 672.944 74.788 116.811 205.176 243.721 339.641 330.583 67.89 43.856 163.445 96.857 175.385 97.281 3.384.12 30.384-45.191 60-100.693z"/><path fill="#00506f" d="M12.308 1393.846V344.616h1610.41l67.102 44.246c135.841 89.573 211.98 191.851 227.035 304.984 3.868 29.062 3.135 32.308-7.292 32.308-25.686 0-87.829 19.995-137.047 44.095-94.076 46.066-174.182 143.13-200.034 242.38-12.05 46.264-12.07 137.423-.042 184.54 32.2 126.122 135.266 228.893 256.078 255.342 55.64 12.18 159.265 5.017 210.128-14.528 134.418-51.65 241.541-182.905 272.955-334.443 13.26-63.959 8.412-221.22-9.167-297.386C2266.852 651.98 2195.004 515.562 2088.52 400l-48.197-52.308 371.584-1.587c204.372-.872 372.554-.618 373.737.566 1.477 1.477 3.393 1905.894 2.102 2088.714-.039 6.13-281.725 7.692-1387.747 7.692H12.308zm1264.373 591.408c28.902-55.26 52.537-102.933 52.522-105.94-.012-3.007-23.25-17.328-51.634-31.824-177.825-90.82-305.261-240.798-305.261-359.259 0-20.516 2.073-23.83 16.923-27.044 39.93-8.642 104.778-29.521 127.618-41.09 85.968-43.54 167.219-138.58 195.568-228.758 18.796-59.791 18.668-154.39-.294-215.954-48.931-158.876-193.396-258.666-357.128-246.688-100.528 7.354-168.873 40.97-251.284 123.595-47.999 48.123-60.381 64.97-84.068 114.38-46.88 97.788-60.533 186.75-47.853 311.826 29.502 291.03 180.972 521.409 467.63 711.24 63.131 41.808 173.76 102.757 179.77 99.042 2.718-1.68 28.588-48.266 57.49-103.526z"/></svg>