<?xml version="1.0" encoding="UTF-8" standalone="no"?>
<svg
   xmlns:dc="http://purl.org/dc/elements/1.1/"
   xmlns:cc="http://creativecommons.org/ns#"
   xmlns:rdf="http://www.w3.org/1999/02/22-rdf-syntax-ns#"
   xmlns:svg="http://www.w3.org/2000/svg"
   xmlns="http://www.w3.org/2000/svg"
   viewBox="0 0 2800.0001 2800"
   height="2800"
   width="2800"
   id="svg5053"
   version="1.1">
  <metadata
     id="metadata5059">
    <rdf:RDF>
      <cc:Work
         rdf:about="">
        <dc:format>image/svg+xml</dc:format>
        <dc:type
           rdf:resource="http://purl.org/dc/dcmitype/StillImage" />
        <dc:title></dc:title>
      </cc:Work>
    </rdf:RDF>
  </metadata>
  <defs
     id="defs5057" />
  <g
     transform="translate(0,2689.6)"
     style="display:inline"
     id="layer1">
    <g
       transform="matrix(19.230768,0,0,19.230768,-6.55384e-6,-2351.1384)"
       id="g5063">
      <path
         id="path5079"
         d="M 0,55.2 V 0 h 72.800005 72.800005 v 55.2 55.2 H 72.800005 0 Z"
         style="fill:#fcfefe;stroke-width:0.32000002" />
      <path
         id="path5077"
         d="M 0.32000002,55.04 V 0.32 H 42.510662 84.701321 l 3.36777,2.2242347 c 3.968352,2.6208872 7.612061,6.1496882 9.301181,9.0078643 1.460781,2.471794 2.549188,5.862225 2.410996,7.510336 l -0.101261,1.207668 -2.24,0.444205 c -3.799041,0.753371 -7.212257,2.632523 -10.23826,5.636689 -3.133248,3.110639 -4.701687,5.983726 -5.512061,10.09708 -1.165172,5.914253 0.80614,12.447744 5.03032,16.671923 6.962912,6.962912 18.724644,6.704419 26.177494,-0.575312 C 118.31967,47.248477 120.45262,41.927949 120.42812,33.76 120.39312,22.089824 116.63394,12.487017 108.494,3.2743107 L 105.8837,0.32 h 19.69816 19.69815 v 54.72 54.72 H 72.800005 0.32000002 Z"
         style="fill:#9ca888;stroke-width:0.32000002" />
      <path
         id="path5075"
         d="M 0.32000002,55.04 V 0.32 H 42.510662 84.701321 l 3.36777,2.2242347 c 3.968352,2.6208872 7.612061,6.1496882 9.301181,9.0078643 1.460781,2.471794 2.549188,5.862225 2.410996,7.510336 l -0.101261,1.207668 -2.24,0.444205 c -3.799041,0.753371 -7.212257,2.632523 -10.23826,5.636689 -3.133248,3.110639 -4.701687,5.983726 -5.512061,10.09708 -1.165172,5.914253 0.80614,12.447744 5.03032,16.671923 6.962912,6.962912 18.724644,6.704419 26.177494,-0.575312 C 118.31967,47.248477 120.45262,41.927949 120.42812,33.76 120.39312,22.089824 116.63394,12.487017 108.494,3.2743107 L 105.8837,0.32 h 19.69816 19.69815 v 54.72 54.72 H 72.800005 0.32000002 Z M 66.113473,85.747277 c 1.472423,-2.721002 2.679249,-5.114883 2.681834,-5.319735 0.0026,-0.204854 -0.967302,-0.911996 -2.155302,-1.57143 C 57.433831,73.745968 52.305136,68.368605 50.71289,62.156768 50.247344,60.340531 50.243373,60.336096 50.357667,61.76 c 0.218458,2.7216 2.879831,7.267437 5.991457,10.233888 2.201952,2.099219 5.837683,4.732406 8.708864,6.307418 1.442109,0.791081 2.797578,1.605616 3.012151,1.810076 0.304288,0.289943 0.07556,0.96994 -1.039434,3.090183 -0.786262,1.495139 -1.897824,3.636461 -2.470134,4.758496 -1.134861,2.224928 -1.597939,2.585414 -2.554116,1.988269 -0.345827,-0.215972 -0.699481,-0.321965 -0.785904,-0.235546 -0.200025,0.200026 1.565607,1.166774 1.937623,1.060922 0.152992,-0.04353 1.482877,-2.305428 2.955299,-5.026429 z m -5.313469,3.723136 c 0,-0.07127 -1.116,-0.797443 -2.48,-1.613709 -3.463111,-2.072451 -3.502839,-2.09785 -5.664125,-3.620998 -1.06473,-0.750362 -2.500276,-1.739572 -3.1901,-2.198244 C 47.347654,80.629091 40.201769,73.266813 38.320713,70.554906 34.789359,65.46376 32.408188,60.064784 30.913473,53.76 c -0.41308,-1.74239 -0.471238,-1.846272 -0.358309,-0.64 0.410204,4.381693 3.895866,12.55359 7.572803,17.75393 4.395367,6.216412 11.772772,12.580265 20.112037,17.348915 2.500615,1.429929 2.56,1.45887 2.56,1.247568 z M 50.140589,58.64 c -0.08049,-0.308 -0.146346,-0.056 -0.146346,0.56 0,0.616 0.06586,0.868 0.146346,0.56 0.08049,-0.308 0.08049,-0.812 0,-1.12 z m 2.499415,-0.72 c 0.86231,-0.219421 0.878592,-0.244886 0.16,-0.250243 -0.44,-0.0033 -1.16,0.109331 -1.6,0.250243 -0.626877,0.200762 -0.661505,0.254915 -0.16,0.250243 0.352,-0.0033 1.072,-0.115891 1.6,-0.250243 z m 5.581219,-2.037222 C 60.765086,54.645197 65.065745,50.528602 66.456465,48 c 1.831184,-3.329456 2.185316,-4.873315 2.165364,-9.44 -0.01638,-3.749549 -0.104458,-4.380192 -0.892644,-6.391686 -1.20256,-3.069007 -2.463078,-4.928591 -4.861961,-7.172628 -2.163812,-2.024139 -5.218426,-3.694709 -7.34722,-4.018198 -1.133639,-0.172266 -1.078752,-0.126427 0.48,0.400886 4.915155,1.662756 8.459933,4.744444 10.561364,9.181626 4.535242,9.576179 0.611616,20.472048 -9.121364,25.329939 -1.584,0.790602 -2.52,1.338042 -2.08,1.216538 0.44,-0.121504 1.727549,-0.67217 2.861219,-1.223699 z M 30.269539,45.52 c -0.01723,-4.9776 0.08024,-6.327168 0.571992,-7.92 2.540887,-8.230217 7.888376,-13.993911 15.023941,-16.193283 1.478144,-0.455603 1.652746,-0.561193 0.694531,-0.420012 -2.956099,0.435544 -6.873719,2.687491 -9.7844,5.624319 -4.694532,4.7367 -7.015601,10.628554 -7.015601,17.808544 0,2.730314 0.289725,7.100432 0.470736,7.100432 0.03276,0 0.05022,-2.7 0.0388,-6 z M 52.73073,20.565226 c -0.830099,-0.06568 -2.270099,-0.06636 -3.2,-0.0015 -0.929901,0.06485 -0.250727,0.118582 1.509274,0.119415 1.76,8.32e-4 2.520825,-0.05222 1.690726,-0.117901 z"
         style="fill:#c0a366;stroke-width:0.32000002" />
      <path
         id="path5073"
         d="M 0.32000002,55.04 V 0.32 H 42.510662 84.701321 l 3.36777,2.2242347 c 3.968352,2.6208872 7.612061,6.1496882 9.301181,9.0078643 1.460781,2.471794 2.549188,5.862225 2.410996,7.510336 l -0.101261,1.207668 -2.24,0.444205 c -3.799041,0.753371 -7.212257,2.632523 -10.23826,5.636689 -3.133248,3.110639 -4.701687,5.983726 -5.512061,10.09708 -1.165172,5.914253 0.80614,12.447744 5.03032,16.671923 6.962912,6.962912 18.724644,6.704419 26.177494,-0.575312 C 118.31967,47.248477 120.45262,41.927949 120.42812,33.76 120.39312,22.089824 116.63394,12.487017 108.494,3.2743107 L 105.8837,0.32 h 19.69816 19.69815 v 54.72 54.72 H 72.800005 0.32000002 Z M 66.113473,85.747277 c 1.472423,-2.721002 2.679249,-5.114883 2.681834,-5.319735 0.0026,-0.204854 -0.967302,-0.911996 -2.155302,-1.57143 C 57.433831,73.745968 52.305136,68.368605 50.71289,62.156768 50.247344,60.340531 50.243373,60.336096 50.357667,61.76 c 0.201984,2.516368 2.719191,6.991782 5.48953,9.76 0.528407,0.528 1.750954,1.598845 2.716772,2.379651 2.456554,1.985981 2.408928,1.940349 2.025088,1.940349 -0.186422,0 -0.971223,-0.550614 -1.744,-1.22359 -1.289229,-1.122724 -1.947331,-1.526224 -2.61648,-1.60424 -0.390938,-0.04558 -1.209303,-0.947991 -1.120004,-1.235028 0.044,-0.141427 -0.20543,-0.593267 -0.554284,-1.004089 -0.348858,-0.410823 -0.886285,-1.044855 -1.194285,-1.408963 -0.308,-0.364109 -0.56,-0.773696 -0.56,-0.910196 0,-0.136499 -0.189223,-0.438467 -0.420493,-0.671036 -0.231271,-0.232573 -0.895907,-1.430455 -1.47697,-2.661959 -0.956173,-2.026515 -1.042938,-2.451859 -0.913859,-4.48 0.07844,-1.232496 0.08595,-1.844899 0.0167,-1.360899 -0.159255,1.112931 -0.601507,1.137658 -0.810323,0.04531 -0.14041,-0.734509 0.0087,-0.909139 1.242694,-1.454976 0.773056,-0.341958 1.402256,-0.839472 1.402256,-1.108774 0,-0.298551 0.217744,-0.440871 0.56,-0.36602 0.308,0.06736 0.524,0.293914 0.48,0.503463 -0.044,0.209549 0.05222,0.380995 0.213827,0.380995 0.161607,0 0.545229,0.09647 0.852497,0.214381 0.382435,0.146755 0.485235,0.09557 0.325888,-0.162259 -0.133341,-0.215751 -0.0112,-0.461664 0.285897,-0.575677 0.285271,-0.109466 0.444787,-0.391571 0.354487,-0.626899 -0.12281,-0.320036 0.06988,-0.38105 0.764614,-0.242103 0.646013,0.1292 1.274983,-0.02819 2.065799,-0.516941 0.625344,-0.386486 1.136992,-0.773833 1.136992,-0.860771 0,-0.08694 -0.673815,-0.116633 -1.497364,-0.06599 -0.960435,0.05906 -1.543728,-0.04702 -1.626665,-0.295831 -0.16842,-0.505254 2.850099,-0.53384 3.352195,-0.03174 0.261555,0.261556 0.509958,0.176551 0.935117,-0.32 C 60.361719,53.424275 60.798916,53.12 61.014846,53.12 c 0.215929,0 0.777017,-0.504 1.246864,-1.12 0.469846,-0.616 1.035174,-1.12 1.256285,-1.12 0.22111,0 0.488419,-0.432 0.594019,-0.96 0.1056,-0.528 0.38896,-0.96 0.62969,-0.96 0.483056,0 1.432928,-1.773306 2.401997,-4.484272 0.730134,-2.042538 0.779363,-2.445914 0.731734,-5.995728 -0.02842,-2.11759 -0.130403,-2.64 -0.515421,-2.64 -0.264,0 -0.48,-0.216 -0.48,-0.48 0,-0.264 0.144,-0.48 0.32,-0.48 0.629415,0 0.282954,-1.480246 -0.924048,-3.947961 -1.007264,-2.059355 -1.259907,-2.38092 -1.412413,-1.797734 -0.146246,0.559251 -0.3428,0.668159 -0.924633,0.512331 -0.406397,-0.108844 -0.990906,-0.199863 -1.298906,-0.202266 -0.350381,-0.0027 -0.56,-0.250706 -0.56,-0.662462 0,-0.645931 0.01798,-0.647465 0.973533,-0.08301 0.850883,0.502629 1.011526,0.514987 1.275101,0.09809 0.448947,-0.7101 0.388419,-0.891747 -0.488634,-1.466414 -0.44,-0.288299 -0.8,-0.679739 -0.8,-0.869867 0,-0.190128 -0.386941,-0.749567 -0.859869,-1.243197 -0.472928,-0.493631 -0.724928,-0.89743 -0.56,-0.897332 0.708435,4.16e-4 4.090861,4.311044 5.086218,6.481964 4.337952,9.461301 0.336506,20.294853 -9.266349,25.087797 -1.584001,0.790602 -2.520001,1.338042 -2.080001,1.216538 0.44,-0.121504 1.727549,-0.67217 2.86122,-1.223699 2.543862,-1.237581 6.844522,-5.354176 8.235242,-7.882778 1.831184,-3.329456 2.185315,-4.873315 2.165363,-9.44 -0.01638,-3.749549 -0.104457,-4.380192 -0.892643,-6.391686 -1.20256,-3.069007 -2.463079,-4.928591 -4.861962,-7.172628 -2.164573,-2.024843 -5.219866,-3.695453 -7.347229,-4.017402 -1.054227,-0.159544 -0.941341,-0.07932 0.64,0.454847 2.336461,0.789234 5.140538,2.295449 5.064,2.720135 -0.03078,0.170904 -0.230845,0.369015 -0.444544,0.440248 -0.222912,0.0743 -0.293296,-0.02459 -0.165113,-0.232 C 60.757438,24.12999 60.552737,24 60.04506,24 c -1.122563,0 -1.805056,-0.315425 -1.805056,-0.834236 0,-0.24517 -0.216,-0.445764 -0.48,-0.445764 -0.264,0 -0.48,-0.13845 -0.48,-0.307666 0,-0.529446 -2.28921,-0.89935 -5.12,-0.82732 -1.496001,0.03807 -2.892378,-0.0623 -3.103063,-0.223026 -0.498384,-0.380216 -4.576938,0.977675 -4.576938,1.523821 0,0.228951 -0.375597,0.387933 -0.88,0.372484 -0.484,-0.01482 -1.312,0.07345 -1.84,0.196157 -1.570765,0.365057 1.942995,-1.377196 4.16,-2.062682 1.483885,-0.458811 1.629258,-0.550817 0.64,-0.405063 -2.956099,0.435544 -6.873719,2.687491 -9.7844,5.624319 -3.371985,3.402273 -5.54417,7.464906 -6.509923,12.175485 -0.537161,2.620073 -0.638041,8.517821 -0.193171,11.293491 0.161627,1.008438 0.202368,-0.115526 0.110191,-3.04 -0.08044,-2.552 -0.01001,-5.504 0.156506,-6.56 0.298915,-1.895661 0.30331,-1.877408 0.346675,1.44 0.02893,2.213107 0.1456,3.199219 0.341807,2.88897 0.255181,-0.403508 0.328199,-0.392039 0.509336,0.08 0.116298,0.303065 0.116298,0.798995 0,1.10206 -0.181137,0.472039 -0.254155,0.483508 -0.509336,0.08 -0.55005,-0.869766 -0.332213,4.019949 0.331346,7.437623 0.351467,1.81024 0.639467,3.335846 0.64,3.390233 5.44e-4,0.05439 0.144968,0.0099 0.320968,-0.09889 0.190051,-0.117459 0.32,0.25705 0.32,0.92223 0,0.616 0.125402,1.197501 0.278669,1.292224 0.153267,0.09473 0.365667,0.60722 0.471997,1.138877 0.106333,0.531661 0.484931,1.606755 0.841331,2.389104 0.356403,0.782349 0.648003,1.55672 0.648003,1.720826 0,0.164105 0.216,0.477638 0.48,0.696739 0.264,0.219101 0.48,0.602563 0.48,0.852141 0,0.485126 0.891386,1.852557 2.320001,3.558995 0.484,0.578122 0.88,1.20041 0.88,1.382854 0,0.182448 0.18,0.536996 0.4,0.787885 0.22,0.25089 0.904,1.095853 1.52,1.877696 1.088675,1.381779 2.089107,1.953463 1.715722,0.980429 -0.101466,-0.264413 -0.0095,-0.48 0.204732,-0.48 0.247754,0 0.320845,0.271261 0.201364,0.747312 C 42.875091,75.490986 43.839133,76.8 44.65247,76.8 c 0.257143,0 0.467533,0.280845 0.467533,0.624099 0,0.343255 0.196327,0.739255 0.436285,0.88 0.51671,0.303075 2.57448,1.941443 3.436263,2.735901 0.334099,0.308 0.725484,0.56 0.869744,0.56 0.144262,0 0.575308,0.36 0.957884,0.8 0.714884,0.822189 1.339825,1.046077 1.339825,0.48 0,-0.176 0.262032,-0.32 0.582291,-0.32 0.726509,0 2.253312,1.668131 1.69664,1.85369 -0.487622,0.16254 0.152912,1.02631 0.761069,1.02631 0.220899,0 0.572288,0.205626 0.780867,0.456947 0.409965,0.493978 3.539133,2.214675 3.539133,1.946131 0,-0.08969 0.3,0.136922 0.666666,0.503588 1.168281,1.168281 0.494624,0.954886 -2.121837,-0.672135 -1.399655,-0.870361 -2.760829,-1.686211 -3.024829,-1.812998 -0.8524,-0.409367 -2.738176,-1.801754 -2.17025,-1.602429 0.71295,0.250221 1.054999,-0.287411 0.353997,-0.55641 -0.292919,-0.112403 -0.620275,-0.06247 -0.727459,0.110954 C 52.141981,84.386931 47.025987,80.225536 43.086937,76.16 36.842447,69.714992 33.035138,62.709286 30.913473,53.76 c -0.41308,-1.74239 -0.471238,-1.846272 -0.358309,-0.64 0.410204,4.381693 3.895866,12.55359 7.572803,17.75393 4.42273,6.255113 12.448856,13.137929 20.432037,17.521516 1.706675,0.937143 2.22256,1.087223 2.874279,0.83618 0.533145,-0.205367 0.831228,-0.195108 0.906665,0.0312 0.284324,0.852969 1.627952,-0.219543 1.64888,-1.31617 0.0056,-0.293331 0.124954,-0.581331 0.265239,-0.64 0.140285,-0.05867 0.587117,-0.754666 0.992963,-1.546666 2.513418,-4.904873 2.622288,-5.177897 2.245674,-5.631689 C 67.274469,79.864147 67.253083,79.68 67.44164,79.68 c 0.176,0 0.474425,0.18607 0.663165,0.413488 0.254902,0.307139 -0.02294,1.109619 -1.08025,3.12 -0.78288,1.488582 -1.891674,3.624538 -2.463984,4.746573 -1.134861,2.224928 -1.597939,2.585414 -2.554116,1.988269 -0.345827,-0.215972 -0.699481,-0.321965 -0.785904,-0.235546 -0.200025,0.200026 1.565607,1.166774 1.937623,1.060922 0.152992,-0.04353 1.482877,-2.305428 2.955299,-5.026429 z m -5.373469,1.394128 c 0.230999,-0.09244 0.506999,-0.08107 0.613335,0.02525 0.106332,0.106333 -0.08267,0.181965 -0.42,0.16807 -0.372784,-0.01536 -0.448608,-0.09118 -0.193335,-0.193331 z M 58.560004,83.2 c 0,-0.176 0.144,-0.32 0.32,-0.32 0.176,0 0.32,0.144 0.32,0.32 0,0.176 -0.144,0.32 -0.32,0.32 -0.176,0 -0.32,-0.144 -0.32,-0.32 z m 5.912461,-1.25625 c 0.128493,-0.404841 -0.0013,-0.730838 -0.378435,-0.950268 -0.315715,-0.183712 -0.422826,-0.3384 -0.238026,-0.343751 0.517463,-0.01498 1.104,0.693888 1.104,1.334269 0,0.3168 -0.153702,0.576 -0.341564,0.576 -0.191552,0 -0.255661,-0.270653 -0.145975,-0.61625 z M 61.600004,81.6 c 0.108775,-0.176 0.55777,-0.32 0.99777,-0.32 0.45185,0 0.713933,0.139261 0.60223,0.32 -0.108774,0.176 -0.557769,0.32 -0.997769,0.32 -0.45185,0 -0.713933,-0.139261 -0.602231,-0.32 z m 4.640001,-1.12 C 65.913742,80.086877 65.935608,80 66.360824,80 c 0.285549,0 0.519181,0.216 0.519181,0.48 0,0.264 -0.05437,0.48 -0.12082,0.48 -0.06645,0 -0.30008,-0.216 -0.51918,-0.48 z m -5.919838,-0.479734 c -0.10927,-0.176807 0.179364,-0.465194 0.641415,-0.640864 1.051814,-0.399901 1.206057,-0.40008 0.959485,-0.0013 -0.356048,0.576102 -1.386282,0.989241 -1.6009,0.641987 z m 3.439837,-0.390823 c -1.026486,-0.495056 -0.889952,-0.885318 0.32,-0.914681 l 1.04,-0.02525 -1.44,-0.69593 c -1.870214,-0.903843 -3.052822,-1.747437 -2.801712,-1.99855 0.109824,-0.109821 0.677136,0.154969 1.260695,0.588425 0.583558,0.433456 1.963587,1.261431 3.066726,1.839943 1.103136,0.578512 1.952564,1.104985 1.88761,1.169939 -0.06495,0.06495 -0.525197,-0.09311 -1.022765,-0.351251 -1.028806,-0.533751 -1.646758,-0.348186 -1.086909,0.32639 0.462765,0.557597 -0.132393,0.587242 -1.223645,0.06095 z M 47.371261,78.741037 c -0.416074,-0.777443 -0.432279,-1.721242 -0.02522,-1.469674 0.168313,0.104023 0.225373,0.399309 0.126797,0.656189 -0.100208,0.261139 0.04703,0.553875 0.333977,0.663987 0.557367,0.213882 0.704919,0.768461 0.204458,0.768461 -0.169808,0 -0.457808,-0.278534 -0.64,-0.618963 z M 60.640004,77.76 c 0.108775,-0.176 0.34177,-0.32 0.51777,-0.32 0.176,0 0.231005,0.144 0.12223,0.32 -0.108774,0.176 -0.341769,0.32 -0.517769,0.32 -0.176,0 -0.231005,-0.144 -0.122231,-0.32 z m -3.36,-1.28 c 0,-0.176 0.144,-0.32 0.32,-0.32 0.176,0 0.32,0.144 0.32,0.32 0,0.176 -0.144,0.32 -0.32,0.32 -0.176,0 -0.32,-0.144 -0.32,-0.32 z m -2.24,-1.28 c 0,-0.176 0.144,-0.32 0.32,-0.32 0.176,0 0.32,0.144 0.32,0.32 0,0.176 -0.144,0.32 -0.32,0.32 -0.176,0 -0.32,-0.144 -0.32,-0.32 z m -0.96,-0.96 c 0,-0.176 0.144,-0.32 0.32,-0.32 0.176,0 0.32,0.144 0.32,0.32 0,0.176 -0.144,0.32 -0.32,0.32 -0.176,0 -0.32,-0.144 -0.32,-0.32 z m 2.08,0 c 0.108774,-0.176 0.261273,-0.32 0.338886,-0.32 0.07761,0 0.141114,0.144 0.141114,0.32 0,0.176 -0.152499,0.32 -0.338887,0.32 -0.186387,0 -0.249888,-0.144 -0.141113,-0.32 z M 41.449993,72.866198 c -0.30599,-0.704972 -0.248317,-0.766051 0.950666,-1.006838 0.874646,-0.175654 0.897133,-0.160112 0.25471,0.176032 -0.387548,0.202784 -0.761264,0.601776 -0.830477,0.886653 -0.11032,0.454057 -0.156569,0.447168 -0.374899,-0.05585 z M 50.080003,70.4 c -0.108774,-0.176 0.02672,-0.32 0.301114,-0.32 0.274387,0 0.498886,0.144 0.498886,0.32 0,0.176 -0.1355,0.32 -0.301113,0.32 -0.165613,0 -0.390112,-0.144 -0.498887,-0.32 z m -1.12,-1.298886 c 0,-0.362388 0.144,-0.569888 0.32,-0.461114 0.176,0.108774 0.32,0.405274 0.32,0.658886 0,0.253613 -0.144,0.461114 -0.32,0.461114 -0.176,0 -0.32,-0.296499 -0.32,-0.658886 z m 1.937984,-0.587511 c -0.24096,-0.450237 -0.202656,-0.707552 0.14874,-0.999184 0.400515,-0.332397 0.473277,-0.239171 0.473277,0.6064 0,1.148615 -0.162567,1.251271 -0.622017,0.392784 z m -12.6453,-1.424758 c -0.814144,-0.595315 -0.142646,-0.943248 0.98962,-0.512762 0.716806,0.272528 0.802176,0.40001 0.426854,0.637389 -0.618979,0.391485 -0.72319,0.382314 -1.416474,-0.124627 z M 49.120003,66.88 c -0.108774,-0.176 -0.04527,-0.32 0.141114,-0.32 0.186387,0 0.338886,0.144 0.338886,0.32 0,0.176 -0.0635,0.32 -0.141113,0.32 -0.07761,0 -0.230112,-0.144 -0.338887,-0.32 z M 36.160002,64.8 c 0,-0.264 0.144,-0.48 0.320001,-0.48 0.176,0 0.32,0.216 0.32,0.48 0,0.264 -0.144,0.48 -0.32,0.48 -0.176001,0 -0.320001,-0.216 -0.320001,-0.48 z m 0,-2.88 c 0,-0.264 0.216,-0.48 0.480001,-0.48 0.264,0 0.48,0.216 0.48,0.48 0,0.264 -0.216,0.48 -0.48,0.48 -0.264001,0 -0.480001,-0.216 -0.480001,-0.48 z m 12.960001,-0.48 c -0.108774,-0.176 -0.04527,-0.32 0.141114,-0.32 0.186387,0 0.338886,0.144 0.338886,0.32 0,0.176 -0.0635,0.32 -0.141113,0.32 -0.07761,0 -0.230112,-0.144 -0.338887,-0.32 z M 32.480002,56 c 0.108775,-0.176 0.261274,-0.32 0.338887,-0.32 0.07761,0 0.141113,0.144 0.141113,0.32 0,0.176 -0.152499,0.32 -0.338886,0.32 -0.186387,0 -0.249888,-0.144 -0.141114,-0.32 z m 0.02653,-2.517053 c -0.137846,-0.22304 -0.164211,-0.491945 -0.05859,-0.597571 0.286391,-0.286387 0.598647,0.134816 0.443965,0.598864 -0.10839,0.325174 -0.183766,0.324922 -0.385376,-0.0013 z M 57.83999,52.237635 c -0.308,-0.06851 -0.56,-0.258003 -0.56,-0.421097 0,-0.374858 0.346989,-0.370858 0.950733,0.01098 0.574835,0.363536 0.369369,0.579203 -0.390733,0.410134 z M 59.200004,52.16 c 0,-0.176 0.144,-0.32 0.32,-0.32 0.176,0 0.32,0.144 0.32,0.32 0,0.176 -0.144,0.32 -0.32,0.32 -0.176,0 -0.32,-0.144 -0.32,-0.32 z m 5.44,-5.76 c 0,-0.176 0.216,-0.32 0.48,-0.32 0.264,0 0.480001,0.144 0.480001,0.32 0,0.176 -0.216001,0.32 -0.480001,0.32 -0.264,0 -0.48,-0.144 -0.48,-0.32 z M 32.320002,41.901114 c 0,-0.571104 0.133306,-0.8965 0.32,-0.781114 0.176,0.108774 0.32,0.549274 0.32,0.978886 0,0.429613 -0.144,0.781114 -0.32,0.781114 -0.176,0 -0.32,-0.440499 -0.32,-0.978886 z M 65.775291,38.96 c -0.134067,-0.308 -0.134067,-0.812 0,-1.12 0.23215,-0.533334 0.250138,-0.533334 0.377699,0 0.07367,0.308 0.07367,0.812 0,1.12 -0.127561,0.533334 -0.145549,0.533334 -0.377699,0 z M 30.897522,37.6 c 0.392778,-1.692339 2.068621,-5.499482 3.121383,-7.091084 2.009523,-3.038073 6.941098,-7.667441 6.941098,-6.515749 0,0.249963 0.189872,0.247734 0.667408,-0.0078 0.906656,-0.485229 1.162902,-0.130217 0.463686,0.642409 -0.389065,0.429914 -0.737645,0.548177 -1.091373,0.370274 -0.793056,-0.398862 -2.466784,0.891438 -2.337465,1.801984 0.106208,0.747817 -0.430388,1.015609 -0.659255,0.329006 -0.08742,-0.262271 -0.453165,-0.130583 -1.110937,0.4 -1.137466,0.917523 -1.986628,2.227183 -1.792033,2.76384 0.07436,0.205064 -0.134377,0.458405 -0.463859,0.562978 -0.329481,0.104573 -0.796285,0.692793 -1.037341,1.307156 -0.241056,0.614361 -0.547104,1.11702 -0.680105,1.11702 -0.133002,0 -0.56642,1.044 -0.963154,2.32 -0.739313,2.377824 -1.463419,3.746576 -1.058053,2 z m 5.959018,-8.693483 c 0.155696,-0.802806 0.903463,-0.913038 0.903463,-0.133184 0,0.393068 -0.206621,0.666667 -0.503463,0.666667 -0.297997,0 -0.461241,-0.217718 -0.4,-0.533483 z M 60.320004,26.56 c -0.267853,-0.433395 0.09358,-0.96 0.658887,-0.96 0.518998,0 0.540214,0.06152 0.266876,0.773828 -0.220822,0.575455 -0.63384,0.658513 -0.925763,0.186172 z M 46.656003,25.216 c 0.298666,-0.298667 0.469335,-0.298667 0.768,0 0.298666,0.298667 0.213335,0.384 -0.384,0.384 -0.597334,0 -0.682665,-0.08533 -0.384,-0.384 z m 12.704001,0.064 c 0.108774,-0.176 0.261274,-0.32 0.338887,-0.32 0.07761,0 0.141113,0.144 0.141113,0.32 0,0.176 -0.152499,0.32 -0.338886,0.32 -0.186388,0 -0.249888,-0.144 -0.141114,-0.32 z M 46.166093,23.778243 c 0.31135,-0.08113 0.74335,-0.0758 0.96,0.01186 0.216649,0.08765 -0.03809,0.154038 -0.56609,0.147516 -0.528,-0.0065 -0.705261,-0.07824 -0.39391,-0.159373 z m 1.59391,-0.631576 C 47.061571,22.867294 47.328595,22.4 48.186669,22.4 c 0.495907,0 0.775987,0.152043 0.7,0.38 -0.150061,0.450183 -0.573424,0.587964 -1.126666,0.366667 z m 6.533335,-0.32 c -0.492813,-0.492812 -0.145693,-0.718029 0.826666,-0.536351 1.525478,0.285023 1.846125,0.749684 0.517334,0.749684 -0.621869,0 -1.226669,-0.096 -1.344,-0.213333 z M 52.640004,57.92 c 0.86231,-0.219421 0.878592,-0.244886 0.16,-0.250243 -0.44,-0.0033 -1.16,0.109331 -1.6,0.250243 -0.626877,0.200762 -0.661505,0.254915 -0.16,0.250243 0.352,-0.0033 1.072,-0.115891 1.6,-0.250243 z m 0.09073,-37.354774 c -0.830099,-0.06568 -2.270099,-0.06636 -3.2,-0.0015 -0.929901,0.06485 -0.250727,0.118582 1.509274,0.119415 1.76,8.32e-4 2.520825,-0.05222 1.690726,-0.117901 z"
         style="fill:#baa46a;stroke-width:0.32000002" />
      <path
         id="path5071"
         d="M 0.32000002,55.04 V 0.32 H 42.510662 84.701321 l 3.36777,2.2242347 c 3.968352,2.6208872 7.612061,6.1496882 9.301181,9.0078643 1.460781,2.471794 2.549188,5.862225 2.410996,7.510336 l -0.101261,1.207668 -2.24,0.444205 c -3.799041,0.753371 -7.212257,2.632523 -10.23826,5.636689 -3.133248,3.110639 -4.701687,5.983726 -5.512061,10.09708 -1.165172,5.914253 0.80614,12.447744 5.03032,16.671923 6.962912,6.962912 18.724644,6.704419 26.177494,-0.575312 C 118.31967,47.248477 120.45262,41.927949 120.42812,33.76 120.39312,22.089824 116.63394,12.487017 108.494,3.2743107 L 105.8837,0.32 h 19.69816 19.69815 v 54.72 54.72 H 72.800005 0.32000002 Z M 66.113473,85.747277 c 1.472423,-2.721002 2.679249,-5.114883 2.681834,-5.319735 0.0026,-0.204854 -0.967302,-0.911996 -2.155302,-1.57143 -8.411086,-4.66881 -13.640443,-9.847146 -15.496667,-15.345475 -0.313863,-0.929693 -0.663104,-2.476928 -0.776096,-3.438298 l -0.205437,-1.747945 1.539491,-0.230861 c 1.941565,-0.291155 5.352606,-1.513767 7.380186,-2.645264 2.111373,-1.178256 6.181383,-5.290413 7.371934,-7.448269 1.832656,-3.321667 2.188378,-4.870282 2.168413,-9.44 -0.01638,-3.749549 -0.104458,-4.380192 -0.892644,-6.391686 -1.20256,-3.069007 -2.463078,-4.928591 -4.861961,-7.172628 -3.343194,-3.127394 -7.024955,-4.520357 -11.922971,-4.510956 -5.676173,0.0109 -10.608132,2.249699 -14.712715,6.678658 -4.405393,4.753545 -6.477839,10.37665 -6.465674,17.543121 0.0121,7.130166 1.40669,13.222953 4.452734,19.453491 4.038675,8.260915 10.111767,14.941907 19.061406,20.969408 3.192569,2.150166 9.505396,5.759846 9.87817,5.648349 0.152992,-0.04576 1.482877,-2.309479 2.955299,-5.03048 z"
         style="fill:#71a4ad;stroke-width:0.32000002" />
      <path
         id="path5069"
         d="M 0.64000004,55.04 V 0.32 H 42.494717 84.349436 l 2.305325,1.4213279 C 93.887533,6.2006288 98.512695,11.772988 99.522,17.243677 c 0.52489,2.845011 0.5881,2.745152 -2.108013,3.33023 -7.881606,1.710374 -14.361373,8.072852 -15.831396,15.544842 -0.536006,2.724467 -0.237545,7.364195 0.640781,9.961251 1.919898,5.676797 6.726858,10.205395 12.401655,11.683491 2.357472,0.614042 6.795173,0.610051 9.227753,-0.0083 3.73194,-0.948646 6.46122,-2.577737 9.59969,-5.730009 2.40926,-2.419847 3.14446,-3.41304 4.40089,-5.945181 1.94157,-3.912954 2.4804,-6.029466 2.69533,-10.5872 0.56915,-12.069133 -3.86945,-23.685287 -12.5775,-32.9162749 L 105.84248,0.32 h 19.71877 19.71876 v 54.72 54.72 H 72.960005 0.64000004 Z M 66.264216,85.448803 69.082885,80.206118 66.421048,78.713962 C 61.81547,76.132195 59.12227,74.184563 56.480004,71.524931 52.740192,67.760541 50.855923,64.230259 50.367242,60.072339 l -0.205437,-1.747945 1.539491,-0.230861 c 1.941565,-0.291155 5.352606,-1.513767 7.380186,-2.645264 2.111373,-1.178256 6.181383,-5.290413 7.371934,-7.448269 1.832656,-3.321667 2.188378,-4.870282 2.168413,-9.44 -0.01638,-3.749549 -0.104458,-4.380192 -0.892644,-6.391686 -1.20256,-3.069007 -2.463078,-4.928591 -4.861961,-7.172628 -3.343194,-3.127394 -7.024955,-4.520357 -11.922971,-4.510956 -5.676173,0.0109 -10.608132,2.249699 -14.712715,6.678658 -4.405393,4.753545 -6.477839,10.37665 -6.465674,17.543121 0.0121,7.130166 1.40669,13.222953 4.452734,19.453491 4.038675,8.260915 10.111767,14.941907 19.061406,20.969408 3.211363,2.162822 9.506308,5.759626 9.882772,5.646816 0.155523,-0.0466 1.551171,-2.443946 3.10144,-5.327421 z"
         style="fill:#6a8a77;stroke-width:0.32000002" />
      <path
         id="path5067"
         d="M 0.64000004,55.040698 V 0.32 H 42.494717 84.349436 l 2.305325,1.4213279 C 93.887533,6.2006288 98.512695,11.772988 99.522,17.243677 c 0.52489,2.845011 0.5881,2.745152 -2.108013,3.33023 -4.882464,1.059535 -9.672704,4.151776 -12.440784,8.030892 -2.648532,3.711588 -3.696909,6.932196 -3.688468,11.330951 0.01,5.206682 1.724743,9.453527 5.274369,13.06282 3.544422,3.603996 7.459565,5.24143 12.532384,5.24143 3.537302,0 5.509302,-0.449693 8.741902,-1.993494 2.24883,-1.073978 3.20973,-1.794967 5.61246,-4.211172 2.4123,-2.425814 3.15263,-3.425785 4.40905,-5.955334 2.30861,-4.647882 2.62915,-6.224826 2.60188,-12.8 -0.0202,-4.859384 -0.13399,-6.075052 -0.86067,-9.191995 -1.90469,-8.16981 -5.7479,-15.2815157 -11.62492,-21.5114669 L 105.84248,0.32 h 19.71969 19.71967 l -0.0809,54.64 -0.0809,54.64 -72.240005,0.0807 -72.24000496,0.0807 z M 66.320005,85.627027 c 1.54,-2.886077 2.8,-5.330752 2.8,-5.432614 0,-0.101859 -0.828,-0.604487 -1.84,-1.116944 C 59.976014,75.378848 53.754919,69.580317 51.596247,64.459014 50.838291,62.660819 50.122083,58.84616 50.486442,58.54799 c 0.128457,-0.105123 1.169562,-0.374134 2.313562,-0.597801 5.738413,-1.121933 11.431719,-5.39913 14.069789,-10.57017 2.348554,-4.603549 2.688029,-10.05375 0.951447,-15.275245 -1.761056,-5.295089 -6.968074,-10.023931 -12.461236,-11.316889 -2.441693,-0.574716 -7.208289,-0.48966 -9.489822,0.169337 -5.817946,1.680452 -11.274663,6.581542 -14.099463,12.663796 -4.158641,8.954224 -2.099936,24.453696 4.647933,34.99312 3.888996,6.074179 10.669146,12.6735 17.661352,17.190316 3.530326,2.280516 8.499123,5.036576 9.12,5.058624 0.176,0.0062 1.58,-2.349974 3.120001,-5.236051 z"
         style="fill:#397282;stroke-width:0.32000002" />
      <path
         id="path5065"
         d="M 0.64000004,54.88 V 0.32 H 42.510662 84.381321 l 3.489344,2.3008388 C 94.934394,7.2785939 98.893559,12.597075 99.67648,18.48 c 0.201124,1.511231 0.163028,1.68 -0.379212,1.68 -1.335655,0 -4.567089,1.039726 -7.12643,2.292955 -4.891962,2.395438 -9.057479,7.44279 -10.401748,12.603781 -0.626598,2.40568 -0.62767,7.145971 -0.0022,9.596032 1.674353,6.558346 7.033834,11.902432 13.316037,13.277779 2.893299,0.633421 8.281813,0.260887 10.926673,-0.755417 6.98974,-2.68586 12.56014,-9.511092 14.19367,-17.391056 C 120.89276,36.458227 120.64066,28.280669 119.72657,24.32 117.8763,16.302971 114.14018,9.2092294 108.60312,3.2 l -2.50628,-2.72 19.3224,-0.0825181 c 10.62732,-0.0453849 19.37277,-0.0321527 19.43433,0.029405 0.0768,0.0767908 0.17641,99.1065181 0.10927,108.6131131 -0.002,0.31881 -14.64967,0.4 -72.162835,0.4 H 0.64000004 Z M 66.387413,85.63321 c 1.502924,-2.87352 2.731939,-5.352522 2.731145,-5.508896 -6.4e-4,-0.156372 -1.209021,-0.901053 -2.684944,-1.654842 -9.246906,-4.722624 -15.873611,-12.52151 -15.873611,-18.681456 0,-1.066845 0.107828,-1.239162 0.880001,-1.406288 2.07638,-0.449408 5.448461,-1.53512 6.636128,-2.136646 C 62.54651,53.980947 66.771537,49.03887 68.245688,44.349603 69.223093,41.24047 69.216411,36.321382 68.230424,33.12 65.685982,24.858457 58.17379,19.669385 49.659741,20.292236 c -5.227469,0.382418 -8.781386,2.130429 -13.066785,6.426959 -2.49591,2.502394 -3.139805,3.378451 -4.37153,5.947727 -2.437771,5.084992 -3.147685,9.71102 -2.488361,16.214972 1.534132,15.133572 9.410579,27.113248 24.316731,36.984519 3.282864,2.174003 9.035543,5.343337 9.3481,5.150166 0.141305,-0.08733 1.486588,-2.509846 2.989513,-5.383369 z"
         style="fill:#00506f;stroke-width:0.32000002" />
    </g>
  </g>
</svg>
