<svg xmlns="http://www.w3.org/2000/svg" width="141.76" height="51.84"><path d="M118.08 51.307c-2.96-.466-5.722-1.34-8.61-2.728-2.921-1.403-3.693-1.96-6.273-4.53-4.413-4.392-6.487-8.676-7.187-14.841-1.036-9.11 2.727-18.083 9.814-23.408C110.372 2.383 115.06.734 121.12.42c5.718-.298 9.563.41 16.4 3.017l2.96 1.129v8.198l-3.636-1.75c-5.056-2.43-8.904-3.382-13.804-3.414-3.37-.022-4.147.08-6.345.834-3.153 1.081-5.327 2.478-7.597 4.88-3.188 3.374-4.692 6.781-4.999 11.328-.647 9.584 5.026 17.341 14.171 19.376 3.191.71 8.535.495 12.127-.487 1.406-.384 2.742-.853 2.968-1.04.308-.257.39-1.478.324-4.856l-.089-4.514-1.2-.1-1.2-.099V25.92h10.24v21.704l-2.482.948c-2.918 1.114-7.019 2.17-10.158 2.617-2.146.305-9.048.381-10.72.118zM.32 25.61V0h8.324l-.082 25.52-.082 25.52-4.08.09-4.08.09zM19.84 25.6V0h24.342l-.091 3.44L44 6.88l-8.08.086-8.08.085V22.4h14.08v7.04H27.84V51.2h-8z"/><path fill="#bd1717" d="M69.8.584C69.642.412 53.425 29.753 43.737 47.74l-1.861 3.46h27.729c15.25 0 27.681-.119 27.623-.264C97.002 50.378 69.992.789 69.8.584zm-.136 14.965c.31.036 15.425 27.646 15.443 28.21.01.315-3.298.401-15.507.401-9.638 0-15.52-.115-15.52-.305 0-.521 15.314-28.337 15.584-28.306z"/></svg>