<?xml version="1.0" encoding="UTF-8" standalone="no"?>
<svg
   xmlns:dc="http://purl.org/dc/elements/1.1/"
   xmlns:cc="http://creativecommons.org/ns#"
   xmlns:rdf="http://www.w3.org/1999/02/22-rdf-syntax-ns#"
   xmlns:svg="http://www.w3.org/2000/svg"
   xmlns="http://www.w3.org/2000/svg"
   viewBox="0 0 141.75999 51.84"
   height="51.84"
   width="141.75999"
   id="svg904"
   version="1.1">
  <metadata
     id="metadata910">
    <rdf:RDF>
      <cc:Work
         rdf:about="">
        <dc:format>image/svg+xml</dc:format>
        <dc:type
           rdf:resource="http://purl.org/dc/dcmitype/StillImage" />
        <dc:title></dc:title>
      </cc:Work>
    </rdf:RDF>
  </metadata>
  <defs
     id="defs908" />
  <g
     transform="translate(0,-20)"
     id="g931">
    <path
       style="fill:#000000;fill-opacity:1;stroke:none;stroke-width:0.31999999"
       d="m 118.07999,71.306992 c -2.95929,-0.465536 -5.72183,-1.34081 -8.61038,-2.72809 -2.92088,-1.402809 -3.69219,-1.959705 -6.27298,-4.52919 -4.412253,-4.392925 -6.486442,-8.676323 -7.187024,-14.841911 -1.035177,-9.110264 2.726925,-18.083056 9.814294,-23.407547 4.54812,-3.416844 9.23716,-5.066575 15.29609,-5.381578 5.71847,-0.297303 9.56314,0.410007 16.4,3.017138 l 2.96,1.12875 v 4.098799 4.098799 l -3.63582,-1.748307 c -5.05648,-2.431436 -8.90401,-3.383194 -13.80418,-3.414716 -3.36966,-0.02168 -4.14681,0.0805 -6.3449,0.834178 -3.15279,1.081026 -5.32672,2.477521 -7.5975,4.880509 -3.18806,3.373666 -4.69144,6.780551 -4.99839,11.327127 -0.64707,9.58449 5.02612,17.341521 14.17088,19.376036 3.19129,0.709993 8.53519,0.495497 12.12665,-0.486746 1.4062,-0.384589 2.74203,-0.853033 2.9685,-1.040989 0.30818,-0.255763 0.3895,-1.477267 0.32327,-4.855494 L 133.6,53.12 132.4,53.02068 131.2,52.92136 V 49.420683 45.92 h 5.12 5.12 v 10.851987 10.851991 l -2.4818,0.947708 c -2.91844,1.114445 -7.01878,2.170871 -10.1582,2.617188 -2.14603,0.305091 -9.04803,0.381142 -10.72,0.118118 z"
       id="path924" />
    <path
       style="fill:#000000;fill-opacity:1;stroke:none;stroke-width:0.31999999"
       d="M 0.31999998,45.609561 V 20 H 4.4819149 8.6438301 l -0.081916,25.52 -0.081915,25.52 -4.0799997,0.08956 -4.07999972,0.08956 z"
       id="path922" />
    <path
       style="fill:#000000;fill-opacity:1;stroke:none;stroke-width:0.31999999"
       d="M 19.839999,45.6 V 20 h 12.170824 12.170825 l -0.09083,3.44 -0.09083,3.44 -8.08,0.0855 -8.079999,0.08549 V 34.725495 42.4 h 7.04 7.039999 v 3.52 3.52 h -7.039999 -7.04 V 60.32 71.2 h -4 -3.999999 z"
       id="path920" />
    <path
       style="fill:#bd1717;fill-opacity:1;stroke:none;stroke-width:0.31999999"
       d="M 69.800781,20.583984 C 69.641044,20.412419 53.423505,49.752696 43.736328,67.740234 L 41.875,71.199219 h 27.728516 c 15.25117,0 27.681716,-0.117928 27.623046,-0.263672 C 97.002246,70.378296 69.991661,20.788998 69.800781,20.583984 Z m -0.136719,14.964844 c 0.310488,0.03569 15.425171,27.646189 15.44336,28.210938 0.01013,0.31468 -3.298275,0.40039 -15.507813,0.40039 -9.63743,0 -15.519531,-0.115068 -15.519531,-0.304687 0,-0.521808 15.313783,-28.337701 15.583984,-28.306641 z"
       id="path918" />
  </g>
</svg>
