<svg xmlns="http://www.w3.org/2000/svg" width="2800" height="2800"><path fill="#c1cadc" d="M186.22 1585.52V371.042h748.553l.351 1152.76.352 1152.76 466.906-269.538 466.907-269.533.415-882.875.416-882.874 371.829-.414 371.829-.414V2799.877H186.219zm893.017-186.862l.352-1025.105 320.41-183.94c176.225-101.166 322.77-185.17 325.656-186.671l5.247-2.73v2052.026L1406.8 2236.882c-178.256 101.558-324.96 185.153-326.007 185.769-1.609.951-1.852-159.164-1.556-1023.984z"/><path fill="#a2afc9" d="M186.22 1586.219V372.44h748.553l.351 1152.188.352 1152.189 467.322-269.93 467.322-269.926.352-882.263.351-882.258h742.956v2427.556H186.22zm892.669-187.436V374.203l321.458-184.45c176.803-101.45 323.506-185.65 326.007-187.11l4.547-2.646-.028 1026.077-.027 1026.081-124.149 70.64c-68.281 38.856-214.972 122.38-325.978 185.612l-201.83 114.964z"/><path fill="#8495b9" d="M186.22 1586.219V372.44h748.553l.351 1152.234.352 1152.238 467.322-269.926 467.322-269.926.352-882.312.351-882.308h742.958l-.352 1213.426-.351 1213.43-1213.429.414-1213.43.286zm892.669-187.966V374.29l322.727-185.264c177.5-101.898 324.203-186.071 326.006-187.06l3.279-1.778-.046 1025.986-.045 1025.986-325.062 185.037c-178.784 101.774-325.466 185.041-325.961 185.041-.495 0-.9-460.782-.9-1023.967z"/><path fill="#7487b0" d="M186.22 1585.52V372.44h748.554v1152.214c0 633.721.253 1152.218.56 1152.218.307 0 210.761-121.417 467.673-269.81l467.111-269.807.352-882.407.351-882.407h742.956v2426.157H186.22zm892.669-187.16V374.497l324.166-186.067C1581.347 86.09 1728.05 2.156 1729.063 1.907c1.52-.413 1.779 178.055 1.489 1024.858l-.352 1025.307-324.607 184.996c-178.533 101.749-325.079 185.033-325.656 185.074-.577 0-1.05-460.658-1.05-1023.781z"/><path fill="#466196" d="M186.22 1585.52V372.44h748.554v1152.363c0 921.342.352 1152.222 1.749 1151.655.962-.414 211.414-121.839 467.672-269.885l465.923-269.169.352-882.482.351-882.481h742.956v2426.157H186.22zm892.69-187.139l.02-1023.843 323.637-185.687c178-102.129 324.693-186.091 325.986-186.588 2.2-.827 2.327 64.803 1.999 1024.373l-.352 1025.275-325.052 185.153c-178.78 101.835-325.324 185.157-325.657 185.157-.33 0-.594-460.73-.582-1023.84z"/><path fill="#2a4886" d="M186.22 1585.52V372.44h748.554v1152.33c0 845.797.415 1152.197 1.558 1151.812.857-.414 211.445-121.698 467.973-269.806l466.416-269.285.05-882.527.05-882.523h741.559v2426.157H186.218zm892.723-187.114l.054-1023.868 317.906-182.311C1571.752 91.955 1718.115 8.004 1722.155 5.672l7.346-4.244v2050.715l-319.214 181.889c-175.577 100.04-321.963 183.32-325.312 185.07l-6.088 3.185.054-1023.868z"/><path fill="#082b73" d="M186.22 1585.52V372.44h748.553l.351 1152.611.352 1152.615 467.657-270.088 467.657-270.087.014-882.527.016-882.523h741.559v2426.157H186.219zm893.017-187.035l.352-1023.827 322.508-185.166c177.38-101.84 323.61-185.785 324.957-186.546 2.331-1.324 2.447 47.84 2.41 1023.905l-.04 1025.292-321.898 183.291c-177.043 100.81-323.414 184.098-325.268 185.083l-3.37 1.778.35-1023.827z"/></svg>