<?xml version="1.0" encoding="UTF-8" standalone="no"?>
<svg
   xmlns:dc="http://purl.org/dc/elements/1.1/"
   xmlns:cc="http://creativecommons.org/ns#"
   xmlns:rdf="http://www.w3.org/1999/02/22-rdf-syntax-ns#"
   xmlns:svg="http://www.w3.org/2000/svg"
   xmlns="http://www.w3.org/2000/svg"
   viewBox="0 0 2800 2800"
   height="2800"
   width="2800"
   id="svg4818"
   version="1.1">
  <metadata
     id="metadata4824">
    <rdf:RDF>
      <cc:Work
         rdf:about="">
        <dc:format>image/svg+xml</dc:format>
        <dc:type
           rdf:resource="http://purl.org/dc/dcmitype/StillImage" />
        <dc:title></dc:title>
      </cc:Work>
    </rdf:RDF>
  </metadata>
  <defs
     id="defs4822" />
  <g
     transform="matrix(41.362908,0,0,41.362908,186.21928,-113016.15)"
     id="g4844">
    <path
       id="path4858"
       d="m 0,2770.6386 v -29.3615 H 9.0486054 18.09721 l 0.0085,27.8694 0.0085,27.8694 11.288049,-6.5164 11.288048,-6.5163 0.01005,-21.3446 0.01005,-21.3446 8.989429,-0.01 8.989429,-0.01 v 29.3616 29.3616 H 29.344609 0 Z m 21.589829,-4.5176 0.0085,-24.7832 7.746301,-4.447 c 4.260465,-2.4458 7.803382,-4.4767 7.87315,-4.513 l 0.126849,-0.066 v 24.8051 24.8052 l -7.835549,4.464 c -4.309552,2.4553 -7.856285,4.4763 -7.881629,4.4912 -0.03888,0.023 -0.04476,-3.848 -0.0376,-24.7561 z"
       style="fill:#c1cadc;stroke-width:0.03382664" />
    <path
       id="path4856"
       d="m 0,2770.6555 v -29.3446 H 9.0486054 18.09721 l 0.0085,27.8556 0.0085,27.8556 11.298097,-6.5259 11.298097,-6.5258 0.0085,-21.3298 0.0085,-21.3297 h 8.980946 8.980945 v 29.3446 29.3446 H 29.344609 0 Z m 21.581395,-4.5315 v -24.7705 l 7.77167,-4.4593 c 4.274419,-2.4527 7.821142,-4.4883 7.881607,-4.5236 l 0.109936,-0.064 -6.76e-4,24.8067 -6.43e-4,24.8068 -3.001454,1.7078 c -1.650798,0.9394 -5.197223,2.9587 -7.880944,4.4874 l -4.879496,2.7794 z"
       style="fill:#a2afc9;stroke-width:0.03382664" />
    <path
       id="path4854"
       d="m 0,2770.6555 v -29.3446 H 9.0486054 18.09721 l 0.0085,27.8567 0.0085,27.8568 11.298097,-6.5258 11.298097,-6.5258 0.0085,-21.331 0.0085,-21.3309 h 8.980966 8.980962 l -0.0085,29.3361 -0.0085,29.3362 -29.336152,0.01 L 0,2800.0001 Z m 21.581395,-4.5443 v -24.7556 l 7.802338,-4.479 c 4.291285,-2.4635 7.838007,-4.4985 7.881606,-4.5224 l 0.07927,-0.043 -0.0011,24.8045 -0.0011,24.8045 -7.858778,4.4735 c -4.322328,2.4605 -7.868559,4.4736 -7.880514,4.4736 -0.01196,0 -0.02174,-11.14 -0.02174,-24.7557 z"
       style="fill:#8495b9;stroke-width:0.03382664" />
    <path
       id="path4852"
       d="m 0,2770.6386 v -29.3277 h 9.0486257 9.0486253 v 27.8562 c 0,15.321 0.0061,27.8563 0.01355,27.8563 0.0074,0 5.095398,-2.9354 11.306553,-6.523 l 11.293009,-6.5229 0.0085,-21.3333 0.0085,-21.3333 h 8.980946 8.980945 v 29.3277 29.3277 H 29.344609 0 Z m 21.581395,-4.5248 v -24.7532 l 7.83714,-4.4984 c 4.310426,-2.4742 7.857158,-4.5034 7.881629,-4.5094 0.03674,-0.01 0.04301,4.3047 0.03601,24.7772 l -0.0085,24.7881 -7.84778,4.4725 c -4.316279,2.4599 -7.859196,4.4734 -7.87315,4.4744 -0.01395,0 -0.02537,-11.137 -0.02537,-24.7512 z"
       style="fill:#7487b0;stroke-width:0.03382664" />
    <path
       id="path4850"
       d="m 0,2770.6386 v -29.3277 h 9.0486257 9.0486253 v 27.8598 c 0,22.2746 0.0085,27.8564 0.04228,27.8427 0.02326,-0.01 5.111205,-2.9456 11.306553,-6.5248 l 11.264271,-6.5075 0.0085,-21.3351 0.0085,-21.3351 h 8.980946 8.980945 v 29.3277 29.3277 H 29.344609 0 Z m 21.5819,-4.5243 5.05e-4,-24.7527 7.824313,-4.4892 c 4.303372,-2.4691 7.849877,-4.499 7.881126,-4.511 0.05317,-0.02 0.05627,1.5667 0.04833,24.7655 l -0.0085,24.7873 -7.858553,4.4763 c -4.322204,2.462 -7.865121,4.4764 -7.87315,4.4764 -0.008,0 -0.01437,-11.1387 -0.01409,-24.7526 z"
       style="fill:#466196;stroke-width:0.03382664" />
    <path
       id="path4848"
       d="m 0,2770.6386 v -29.3277 h 9.0486257 9.0486253 v 27.859 c 0,20.4482 0.01002,27.8558 0.03766,27.8465 0.02071,-0.01 5.111942,-2.9422 11.313842,-6.5229 l 11.276181,-6.5103 0.0012,-21.3362 0.0012,-21.3361 h 8.964059 8.964059 v 29.3277 29.3277 H 29.327695 0 Z m 21.582722,-4.5237 0.0013,-24.7533 7.685777,-4.4076 c 4.227177,-2.4242 7.765691,-4.4538 7.863366,-4.5102 l 0.17759,-0.1026 v 24.7893 24.7893 l -7.717396,4.3974 c -4.244797,2.4186 -7.783857,4.432 -7.864808,4.4743 l -0.147183,0.077 0.0013,-24.7533 z"
       style="fill:#2a4886;stroke-width:0.03382664" />
    <path
       id="path4846"
       d="m 0,2770.6386 v -29.3277 H 9.0486054 18.09721 l 0.0085,27.8658 0.0085,27.8659 11.306199,-6.5297 11.306201,-6.5297 3.38e-4,-21.3362 3.69e-4,-21.3361 h 8.964059 8.964059 v 29.3277 29.3277 H 29.327695 0 Z m 21.589829,-4.5218 0.0085,-24.7523 7.79704,-4.4766 c 4.288372,-2.4621 7.823679,-4.4916 7.856237,-4.51 0.05636,-0.032 0.05915,1.1566 0.05825,24.7542 l -9.47e-4,24.7877 -7.782283,4.4313 c -4.280254,2.4372 -7.818952,4.4508 -7.863772,4.4746 l -0.08149,0.043 0.0085,-24.7523 z"
       style="fill:#082b73;stroke-width:0.03382664" />
  </g>
</svg>
