<svg xmlns="http://www.w3.org/2000/svg" width="2800" height="2800"><path fill="#989899" d="M452.833 2774.68c-39.087-20.582-266.984-97.044-413.177-138.625-24.845-7.066-39.875-78.182-22.309-105.558 12.01-18.718 41.584-22.653 160.368-21.343 110.176 1.216 145.642-2.913 145.642-16.955 0-45.358 45.954-66.264 134.918-61.378 77.966 4.282 87.863 1.716 92.499-23.977 7.829-43.398 43.742-64.456 93.09-54.587 75.126 15.026 32.017-18.82-69.717-54.735-106.176-37.483-128.207-62.326-101.605-114.577 15.046-29.554 26.753-34.402 74.597-30.893 193.837 14.214 496.267 171.893 650.385 339.09 68.531 74.348 74.201 106.644 30.996 176.553-34.816 56.333-63.01 60.748-109.433 17.137l-33.335-31.317-51.434 60.089c-57.197 66.823-82.61 72.696-135.51 31.317-46.024-36-67.7-35.997-79.13 0-17.684 55.721-57.697 61.58-139.038 20.361l-74.812-37.91-27.345 37.54c-32.034 43.976-56.983 45.913-125.65 9.754zm929.918-1313.37c-6.283-841.58-15.106-1331.973-24.128-1340.994-9.373-9.373-52.175 22.454-125.525 93.342-167.285 161.666-237.779 224.13-231.788 205.38 9.495-29.712 360.363-423.467 373.366-419 18.871 6.48 689.422 775.383 689.422 790.54 0 7.233-16.026 44.777-35.614 83.43-121.991 240.739-380.068 1035.222-583.205 1795.385-17.444 65.278-36.42 118.687-42.17 118.687s-14.91-597.047-20.358-1326.77zm622.725 1277.825c-34.951-59.24-47.623-62.144-105.28-24.133-22.891 15.09-50.644 23.975-61.674 19.742-27.286-10.47-66.059-88.363-56.45-113.405 12.725-33.16-15.712-23.242-69.977 24.402-59.7 52.419-84.699 47.672-118.128-22.43-31.987-67.078-12.72-103.474 107.261-202.611 161.026-133.051 600.024-331.26 672.276-303.534 48.256 18.517 44.112 115.112-5.615 130.895-15.444 4.902-30.79 27.4-35.81 52.503-4.833 24.16-21.466 54.719-36.964 67.91-20.58 17.516-25.93 34.907-19.841 64.496 8.008 38.922 10.663 40.073 67.619 29.311 32.605-6.16 85.028-11.443 116.494-11.74 49.025-.464 60.065 5.371 77.144 40.757 18.75 38.847 23.798 40.767 85.097 32.365 35.84-4.913 90.574-2.09 121.631 6.273 54.065 14.559 56.043 17.16 46.478 61.146-23.646 108.737-19.533 106.048-174.256 113.913-99.83 5.074-174.226 18.338-253.17 45.135-134.174 45.546-142.404 45.997-165.468 9.065-17.222-27.577-20.475-27.843-71.796-5.887-29.566 12.649-61.693 26.28-71.394 30.292-9.718 4.018-31.351-15.948-48.177-44.465z"/><path fill="#e15e5e" d="M384.335 2735.278c-65.368-27.095-174.083-63.522-241.589-80.952-101.837-26.292-124.122-37.195-130.865-64.026-18.416-73.281-2.723-80.309 160.713-71.967l150.68 7.69 18.572-38.01c17.612-36.046 23.59-37.846 115.574-34.828 96.989 3.183 97.003 3.178 105.55-39.562 9.431-47.151 10.231-47.464 112.85-44.102 64.17 2.103 69.183.162 46.453-17.934-14.014-11.16-73.758-38.723-132.765-61.252-113.379-43.288-131.73-61.955-106.766-108.603 13.058-24.397 24.62-27.393 75.477-19.546 206.15 31.801 496.884 186.622 632.645 336.894 60.469 66.931 66.57 109.893 23.398 164.776-37.08 47.14-48.495 47.2-103.942.54l-44.402-37.361-12.488 33.757c-17.03 46.035-68.395 98.58-95.988 98.19-12.467-.172-38.853-12.979-58.634-28.451-47.977-37.529-56.408-36.222-99.656 15.447l-37.014 44.221-79.124-37.071-79.125-37.072-29.313 36.01c-36.302 44.595-43.717 43.94-190.241-16.792zm1820.526 21.182c-20.675-31.138-21.97-31.248-84.957-7.194-85.482 32.647-92.562 31.459-113.48-19.04-25.082-60.555-34.547-62.976-99.696-25.499-53.756 30.922-58.894 31.477-81.582 8.801-13.317-13.309-28.121-47.783-32.897-76.609l-8.684-52.41-61.017 44.24c-33.56 24.332-66.544 44.24-73.298 44.24-18.212 0-55.117-45.82-66.188-82.177-12.137-39.856 76.344-140.516 193.29-219.898 174.52-118.462 472.072-244.603 576.987-244.603 38.05 0 41.643 4.37 41.643 50.66 0 40.077-7.513 54.083-35.965 67.047-25.918 11.81-35.966 27.659-35.966 56.731 0 25.62-10.501 45.964-28.773 55.742-18.122 9.7-28.772 30.123-28.772 55.175 0 56.915 22.557 74.075 76.888 58.494 24.863-7.131 75.46-12.965 112.436-12.965 59.825 0 68.622 4.171 79.853 37.866 12.182 36.547 16.693 37.925 129.487 39.562 64.276.939 121.362 6.199 126.858 11.7 5.496 5.502 1.176 37.871-9.601 71.931l-19.594 61.929-122.284 9.394c-129.576 9.956-281.998 44.204-347.515 78.085-52.646 27.223-62.5 25.957-87.173-11.202zm-786.492-558.218c-.925-257.155-5.976-831.923-11.223-1277.262-9.945-844.05-13.207-884.289-68-838.815-12.724 10.561-23.135 12.938-23.135 5.283 0-16.202 55.19-68.997 62.983-60.249 194.476 218.303 646.621 742.247 651.497 754.953 3.737 9.738-9.672 50.203-29.799 89.921-103.97 205.174-259.99 665.525-447.02 1318.976-65.677 229.46-122.61 430.15-126.516 445.975-3.907 15.825-7.861-181.627-8.787-438.782z"/><path fill="#7f7f7f" d="M384.335 2735.278c-65.368-27.095-174.083-63.522-241.589-80.952-101.837-26.292-124.122-37.195-130.865-64.026-18.416-73.281-2.723-80.309 160.713-71.967l150.68 7.69 18.572-38.01c17.612-36.046 23.59-37.846 115.574-34.828 96.989 3.183 97.003 3.178 105.55-39.562 9.431-47.151 10.231-47.464 112.85-44.102 64.17 2.103 69.183.162 46.453-17.934-14.014-11.16-73.758-38.723-132.765-61.252-113.379-43.288-131.73-61.955-106.766-108.603 13.058-24.397 24.62-27.393 75.477-19.546 206.15 31.801 496.884 186.622 632.645 336.894 60.469 66.931 66.57 109.893 23.398 164.776-37.08 47.14-48.495 47.2-103.942.54l-44.402-37.361-12.488 33.757c-17.03 46.035-68.395 98.58-95.988 98.19-12.467-.172-38.853-12.979-58.634-28.451-47.977-37.529-56.408-36.222-99.656 15.447l-37.014 44.221-79.124-37.071-79.125-37.072-29.313 36.01c-36.302 44.595-43.717 43.94-190.241-16.792zm1634.645-26.322c-21.362-59.075-51.23-64.283-121.08-21.114l-47.311 29.24-22.722-32.44c-29.315-41.853-28.797-47.76 8.625-98.376 17.24-23.32 27.553-46.193 22.916-50.83-11.448-11.448-78.279 24.526-146.415 78.813-52.937 42.177-57.719 43.377-82.72 20.75-41.72-37.756-31.942-82.696 31.882-146.52 72.966-72.966 174.403-140.459 322.818-214.791 128.503-64.36 347.313-138.046 376.579-126.816 33.02 12.671 21.89 65.387-16.922 80.143-26.273 9.989-35.965 24.286-35.965 53.052 0 24.897-13.448 50.158-36.568 68.69-32.922 26.392-35.348 35.05-24.335 86.858 13.61 64.029 8.883 62.817 168.8 43.278l86.318-10.546 16.31 43.655 16.31 43.656 123.956-4.324c122.73-4.281 123.956-3.98 123.956 30.495 0 66.058-38.723 86.49-180.534 95.256-83.747 5.177-171.754 21.788-246.73 46.567l-116.55 38.52-29.847-29.847-29.847-29.847-66.29 28.414c-36.458 15.628-68.57 28.415-71.357 28.415-2.788 0-13.263-22.658-23.277-50.351zm-600.61-510.714c-.926-257.155-5.977-831.923-11.224-1277.262-9.945-844.05-13.207-884.289-68-838.815-12.724 10.561-23.135 12.938-23.135 5.283 0-16.202 55.19-68.997 62.983-60.249 194.476 218.303 646.621 742.247 651.497 754.953 3.737 9.738-9.672 50.203-29.799 89.921-103.97 205.174-259.99 665.525-447.02 1318.976-65.677 229.46-122.61 430.15-126.516 445.975-3.907 15.825-7.861-181.627-8.787-438.782z"/><path fill="#5e5eab" d="M384.335 2735.278c-65.368-27.095-174.083-63.522-241.589-80.952-101.837-26.292-124.122-37.195-130.865-64.026-18.416-73.281-2.723-80.309 160.713-71.967l150.68 7.69 18.572-38.01c17.612-36.046 23.59-37.846 115.574-34.828 96.989 3.183 97.003 3.178 105.55-39.562 9.431-47.151 10.231-47.464 112.85-44.102 64.17 2.103 69.183.162 46.453-17.934-14.014-11.16-73.758-38.723-132.765-61.252-113.379-43.288-131.73-61.955-106.766-108.603 13.058-24.397 24.62-27.393 75.477-19.546 206.15 31.801 496.884 186.622 632.645 336.894 60.469 66.931 66.57 109.893 23.398 164.776-37.08 47.14-48.495 47.2-103.942.54l-44.402-37.361-12.488 33.757c-17.03 46.035-68.395 98.58-95.988 98.19-12.467-.172-38.853-12.979-58.634-28.451-47.977-37.529-56.408-36.222-99.656 15.447l-37.014 44.221-79.124-37.071-79.125-37.072-29.313 36.01c-36.302 44.595-43.717 43.94-190.241-16.792zm1634.645-26.322c-21.362-59.075-51.23-64.283-121.08-21.114l-47.311 29.24-22.722-32.44c-29.315-41.853-28.797-47.76 8.625-98.376 17.24-23.32 27.553-46.193 22.916-50.83-11.448-11.448-78.279 24.526-146.415 78.813-52.937 42.177-57.719 43.377-82.72 20.75-41.72-37.756-31.942-82.696 31.882-146.52 72.966-72.966 174.403-140.459 322.818-214.791 128.503-64.36 347.313-138.046 376.579-126.816 33.02 12.671 21.89 65.387-16.922 80.143-26.273 9.989-35.965 24.286-35.965 53.052 0 24.897-13.448 50.158-36.568 68.69-32.922 26.392-35.348 35.05-24.335 86.858 13.61 64.029 8.883 62.817 168.8 43.278l86.318-10.546 16.31 43.655 16.31 43.656 123.956-4.324c122.73-4.281 123.956-3.98 123.956 30.495 0 66.058-38.723 86.49-180.534 95.256-83.747 5.177-171.754 21.788-246.73 46.567l-116.55 38.52-29.847-29.847-29.847-29.847-66.29 28.414c-36.458 15.628-68.57 28.415-71.357 28.415-2.788 0-13.263-22.658-23.277-50.351z"/><path fill="#d30606" d="M408.82 2729.8c-115.461-50.118-344.03-117.582-367.655-108.517-19.149 7.349-38.47-50.181-26.942-80.224 5.764-15.02 38.953-17.189 154.64-10.103 81.015 4.962 152.555 5.951 158.977 2.199 6.423-3.753 17.939-23.291 25.591-43.42 13.563-35.671 16.415-36.362 113.061-27.38l99.148 9.215 9.442-42.988c12.258-55.811 16.519-57.63 98.97-42.226 141.83 26.496 107.496-35.033-53.853-96.513-120.07-45.75-143.146-62.998-130.028-97.183 7.856-20.471 20.503-23.4 68.864-15.95 197.177 30.377 443.608 157.053 601.398 309.142 74.6 71.904 86.104 113.528 46.865 169.55-28.933 41.307-51.034 40.355-92.696-3.992-40.758-43.386-92.558-49.518-79.842-9.453 10.309 32.48-41.876 103.095-75.854 102.644-13.273-.173-40.317-12.98-60.098-28.453-48.507-37.943-58.731-36.339-101.723 15.96-36.704 44.65-37.33 44.811-82.623 21.39-101.498-52.487-115.994-53.993-149.437-15.53-37.524 43.156-38.021 43.13-156.204-8.169zm1610.16-20.844c-21.362-59.075-51.23-64.283-121.08-21.114l-47.311 29.24-22.722-32.44c-29.315-41.853-28.797-47.76 8.625-98.376 17.24-23.32 27.553-46.193 22.916-50.83-11.448-11.448-78.279 24.526-146.415 78.813-52.937 42.177-57.719 43.377-82.72 20.75-41.72-37.756-31.942-82.696 31.882-146.52 72.966-72.966 174.403-140.459 322.818-214.791 128.503-64.36 347.313-138.046 376.579-126.816 33.02 12.671 21.89 65.387-16.922 80.143-26.273 9.989-35.965 24.286-35.965 53.052 0 24.897-13.448 50.158-36.568 68.69-32.922 26.392-35.348 35.05-24.335 86.858 13.61 64.029 8.883 62.817 168.8 43.278l86.318-10.546 16.31 43.655 16.31 43.656 123.956-4.324c122.73-4.281 123.956-3.98 123.956 30.495 0 66.058-38.723 86.49-180.534 95.256-83.747 5.177-171.754 21.788-246.73 46.567l-116.55 38.52-29.847-29.847-29.847-29.847-66.29 28.414c-36.458 15.628-68.57 28.415-71.357 28.415-2.788 0-13.263-22.658-23.277-50.351z"/><path fill="#191989" d="M408.82 2729.8c-115.461-50.118-344.03-117.582-367.655-108.517-19.149 7.349-38.47-50.181-26.942-80.224 5.764-15.02 38.953-17.189 154.64-10.103 81.015 4.962 152.555 5.951 158.977 2.199 6.423-3.753 17.939-23.291 25.591-43.42 13.563-35.671 16.415-36.362 113.061-27.38l99.148 9.215 9.442-42.988c12.258-55.811 16.519-57.63 98.97-42.226 141.83 26.496 107.496-35.033-53.853-96.513-120.07-45.75-143.146-62.998-130.028-97.183 7.856-20.471 20.503-23.4 68.864-15.95 197.177 30.377 443.608 157.053 601.398 309.142 74.6 71.904 86.104 113.528 46.865 169.55-28.933 41.307-51.034 40.355-92.696-3.992-40.758-43.386-92.558-49.518-79.842-9.453 10.309 32.48-41.876 103.095-75.854 102.644-13.273-.173-40.317-12.98-60.098-28.453-48.507-37.943-58.731-36.339-101.723 15.96-36.704 44.65-37.33 44.811-82.623 21.39-101.498-52.487-115.994-53.993-149.437-15.53-37.524 43.156-38.021 43.13-156.204-8.169z"/><path fill="#00007e" d="M407.818 2714.997c-149.254-64.757-358.805-121.206-371.812-100.16-7.288 11.792-13.423 7.28-18.975-13.95-16.175-61.855-4.81-65.774 158.319-54.604 162.604 11.137 191.165 3.759 191.165-49.38 0-27.005 6.328-28.11 107.03-18.672l107.03 10.03 9.45-50.369c9.168-48.87 11.013-50.102 62.009-41.414 98.035 16.704 124.49 12.791 124.49-18.407 0-28.144-81.65-77.2-227.476-136.67-38.74-15.799-49.57-26.796-40.429-41.049 10.34-16.12 32.265-14.468 127.48 9.61 184.145 46.567 357.232 143.132 503.68 281.005 78.214 73.635 90.895 110.19 54.762 157.858-18.863 24.883-22.886 23.988-80.826-17.984-79.19-57.364-105.064-57.673-96.77-1.157 4.626 31.512-2.401 51.199-26.282 73.634l-32.596 30.622-49.31-30.475c-66.495-41.096-91.423-38.413-117.846 12.683-12.275 23.738-24.173 43.159-26.44 43.159-2.267 0-29.614-12.148-60.772-26.996-102.69-48.934-117.454-49.93-143.823-9.685-29.127 44.453-32.392 44.29-152.058-7.63z"/></svg>