<?xml version="1.0" encoding="UTF-8" standalone="no"?>
<svg
   xmlns:dc="http://purl.org/dc/elements/1.1/"
   xmlns:cc="http://creativecommons.org/ns#"
   xmlns:rdf="http://www.w3.org/1999/02/22-rdf-syntax-ns#"
   xmlns:svg="http://www.w3.org/2000/svg"
   xmlns="http://www.w3.org/2000/svg"
   viewBox="0 0 2800 2800"
   height="2800"
   width="2800"
   id="svg4683"
   version="1.1">
  <metadata
     id="metadata4689">
    <rdf:RDF>
      <cc:Work
         rdf:about="">
        <dc:format>image/svg+xml</dc:format>
        <dc:type
           rdf:resource="http://purl.org/dc/dcmitype/StillImage" />
        <dc:title></dc:title>
      </cc:Work>
    </rdf:RDF>
  </metadata>
  <defs
     id="defs4687" />
  <g
     style="display:inline"
     id="layer1">
    <g
       transform="matrix(10.789718,0,0,10.789718,6.8581151,-27221.722)"
       id="g4716">
      <path
         id="path4730"
         d="m 41.333332,2780.0914 c -3.622669,-1.9076 -24.744287,-8.9941 -38.2935999,-12.8479 -2.30268148,-0.6549 -3.6956523,-7.246 -2.06759675,-9.7832 1.11312395,-1.7348 3.85406295,-2.0995 14.86300565,-1.9781 10.211221,0.1127 13.498192,-0.27 13.498192,-1.5714 0,-4.2038 4.259119,-6.1414 12.504359,-5.6886 7.225941,0.3969 8.143233,0.1591 8.572845,-2.2222 0.725606,-4.0221 4.0541,-5.9738 8.627761,-5.0591 6.962704,1.3926 2.967252,-1.7443 -6.461454,-5.0729 -9.840565,-3.474 -11.882344,-5.7764 -9.416882,-10.6191 1.394462,-2.7391 2.479471,-3.1884 6.913705,-2.8632 17.965025,1.3174 45.994461,15.9312 60.278263,31.4272 6.35152,6.8906 6.87701,9.8838 2.87266,16.363 -3.22677,5.221 -5.83978,5.6302 -10.14225,1.5883 l -3.089535,-2.9025 -4.766967,5.5691 c -5.301115,6.1932 -7.656395,6.7375 -12.559173,2.9025 -4.265576,-3.3366 -6.274467,-3.3362 -7.333783,0 -1.639063,5.1643 -5.347429,5.7073 -12.886225,1.8871 l -6.933608,-3.5135 -2.534401,3.4792 c -2.968904,4.0757 -5.281236,4.2552 -11.645316,0.904 z m 86.185528,-121.7243 c -0.58226,-77.9982 -1.4,-123.4483 -2.23615,-124.2844 -0.86872,-0.8687 -4.83566,2.0811 -11.63379,8.651 -15.504063,14.9834 -22.03755,20.7726 -21.482262,19.0349 0.879961,-2.7538 33.398742,-39.2473 34.603822,-38.8334 1.74899,0.6006 63.89618,71.8632 63.89618,73.268 0,0.6703 -1.4853,4.1499 -3.30066,7.7323 -11.30628,22.3119 -35.22504,95.9453 -54.05196,166.3978 -1.61673,6.05 -3.3755,11 -3.90837,11 -0.53287,0 -1.38193,-55.3348 -1.88681,-122.9662 z m 57.71474,118.4299 c -3.23936,-5.4903 -4.41374,-5.7595 -9.75754,-2.2366 -2.12149,1.3986 -4.69368,2.222 -5.71597,1.8297 -2.52887,-0.9704 -6.12233,-8.1896 -5.23175,-10.5105 1.17931,-3.0732 -1.45625,-2.1541 -6.48554,2.2616 -5.53311,4.8582 -7.84999,4.4183 -10.9482,-2.0788 -2.96466,-6.2169 -1.17891,-9.5901 9.941,-18.7782 14.92406,-12.3313 55.61075,-30.7014 62.30713,-28.1318 4.47234,1.7162 4.08832,10.6687 -0.52039,12.1315 -1.43144,0.4543 -2.85371,2.5395 -3.31901,4.866 -0.44782,2.2391 -1.9894,5.0714 -3.42575,6.2939 -1.90736,1.6235 -2.40321,3.2353 -1.83895,5.9776 0.74226,3.6073 0.98828,3.714 6.26698,2.7166 3.0219,-0.5709 7.88049,-1.0606 10.79684,-1.0881 4.54364,-0.043 5.5668,0.4978 7.14977,3.7774 1.73775,3.6004 2.2056,3.7783 7.8868,2.9996 3.32171,-0.4553 8.39452,-0.1937 11.27292,0.5814 5.01079,1.3493 5.19405,1.5904 4.30755,5.6671 -2.19147,10.0778 -1.81031,9.8286 -16.15018,10.5575 -9.25234,0.4703 -16.14742,1.6996 -23.46405,4.1832 -12.43533,4.2212 -13.19807,4.263 -15.33569,0.8401 -1.59614,-2.5558 -1.89764,-2.5805 -6.65407,-0.5456 -2.7402,1.1723 -5.71778,2.4357 -6.61688,2.8075 -0.90064,0.3724 -2.90565,-1.4781 -4.46502,-4.1211 z"
         style="fill:#989899;stroke-width:1.33333325" />
      <path
         id="path4728"
         d="m 34.98486,2776.4396 c -6.058325,-2.5112 -16.13411,-5.8873 -22.390633,-7.5027 -9.438404,-2.4368 -11.5037476,-3.4473 -12.12865651,-5.934 -1.70681479,-6.7918 -0.25242767,-7.4431 14.89496651,-6.67 l 13.965153,0.7127 1.721303,-3.5228 c 1.632281,-3.3407 2.186245,-3.5076 10.711478,-3.2278 8.988988,0.295 8.990281,0.2945 9.782518,-3.6667 0.87401,-4.37 0.94817,-4.399 10.459009,-4.0874 5.94727,0.1949 6.411847,0.015 4.305239,-1.6621 -1.298785,-1.0343 -6.835913,-3.5889 -12.304729,-5.6769 -10.508053,-4.012 -12.20894,-5.7421 -9.895185,-10.0654 1.21017,-2.2612 2.281774,-2.5388 6.995218,-1.8116 19.106133,2.9474 46.051658,17.2963 58.634099,31.2236 5.60431,6.2033 6.16972,10.185 2.16858,15.2716 -3.43665,4.369 -4.49457,4.3746 -9.63346,0.05 l -4.115189,-3.4626 -1.157376,3.1286 c -1.578321,4.2666 -6.338973,9.1365 -8.896283,9.1004 -1.155502,-0.016 -3.600914,-1.2029 -5.434247,-2.6369 -4.446582,-3.4782 -5.227944,-3.3571 -9.236232,1.4317 l -3.430435,4.0984 -7.333333,-3.4358 -7.333333,-3.4358 -2.716753,3.3374 c -3.364483,4.1331 -4.051779,4.0724 -17.631719,-1.5563 z m 168.72788,1.9631 c -1.91616,-2.8859 -2.03629,-2.8961 -7.87388,-0.6667 -7.92252,3.0257 -8.57877,2.9156 -10.51738,-1.7647 -2.32468,-5.6122 -3.20191,-5.8366 -9.23999,-2.3632 -4.98215,2.8659 -5.45831,2.9173 -7.56108,0.8157 -1.23425,-1.2335 -2.60627,-4.4286 -3.04892,-7.1002 l -0.80483,-4.8574 -5.65512,4.1002 c -3.11032,2.2551 -6.16732,4.1002 -6.79334,4.1002 -1.68787,0 -5.10822,-4.2466 -6.13436,-7.6163 -1.12486,-3.6938 7.0757,-13.0231 17.91438,-20.3803 16.17467,-10.9791 43.752,-22.67 53.47556,-22.67 3.52649,0 3.85955,0.4051 3.85955,4.6952 0,3.7144 -0.69636,5.0125 -3.33334,6.214 -2.40206,1.0945 -3.33333,2.5634 -3.33333,5.2579 0,2.3744 -0.97323,4.2599 -2.66667,5.1662 -1.67954,0.8989 -2.66666,2.7918 -2.66666,5.1136 0,5.275 2.09061,6.8654 7.1261,5.4213 2.3043,-0.6609 6.99359,-1.2016 10.42064,-1.2016 5.54463,0 6.3599,0.3866 7.40084,3.5095 1.12907,3.3872 1.54711,3.5149 12.00098,3.6666 5.95714,0.087 11.24793,0.5745 11.7573,1.0844 0.50938,0.5099 0.10894,3.5099 -0.88986,6.6666 l -1.816,5.7396 -11.33334,0.8707 c -12.00924,0.9227 -26.13582,4.0968 -32.208,7.2369 -4.87928,2.5231 -5.79253,2.4058 -8.07925,-1.0382 z m -72.8927,-51.7361 c -0.0858,-23.8333 -0.55387,-77.1033 -1.04018,-118.3777 -0.92172,-78.2273 -1.22403,-81.9566 -6.30225,-77.742 -1.17935,0.9788 -2.14428,1.1991 -2.14428,0.4896 0,-1.5016 5.11505,-6.3947 5.83732,-5.5839 18.02425,20.2325 59.92941,68.792 60.38128,69.9696 0.34639,0.9026 -0.89641,4.6529 -2.76175,8.334 -9.63596,19.0157 -24.09602,61.6814 -41.43024,122.2438 -6.08696,21.2666 -11.36347,39.8666 -11.72557,41.3333 -0.36211,1.4667 -0.72855,-16.8333 -0.81433,-40.6667 z"
         style="fill:#e15e5e;stroke-width:1.33333325" />
      <path
         id="path4726"
         d="m 34.98486,2776.4396 c -6.058325,-2.5112 -16.13411,-5.8873 -22.390633,-7.5027 -9.438404,-2.4368 -11.5037476,-3.4473 -12.12865651,-5.934 -1.70681479,-6.7918 -0.25242767,-7.4431 14.89496651,-6.67 l 13.965153,0.7127 1.721303,-3.5228 c 1.632281,-3.3407 2.186245,-3.5076 10.711478,-3.2278 8.988988,0.295 8.990281,0.2945 9.782518,-3.6667 0.87401,-4.37 0.94817,-4.399 10.459009,-4.0874 5.94727,0.1949 6.411847,0.015 4.305239,-1.6621 -1.298785,-1.0343 -6.835913,-3.5889 -12.304729,-5.6769 -10.508053,-4.012 -12.20894,-5.7421 -9.895185,-10.0654 1.21017,-2.2612 2.281774,-2.5388 6.995218,-1.8116 19.106133,2.9474 46.051658,17.2963 58.634099,31.2236 5.60431,6.2033 6.16972,10.185 2.16858,15.2716 -3.43665,4.369 -4.49457,4.3746 -9.63346,0.05 l -4.115189,-3.4626 -1.157376,3.1286 c -1.578321,4.2666 -6.338973,9.1365 -8.896283,9.1004 -1.155502,-0.016 -3.600914,-1.2029 -5.434247,-2.6369 -4.446582,-3.4782 -5.227944,-3.3571 -9.236232,1.4317 l -3.430435,4.0984 -7.333333,-3.4358 -7.333333,-3.4358 -2.716753,3.3374 c -3.364483,4.1331 -4.051779,4.0724 -17.631719,-1.5563 z M 186.48512,2774 c -1.9798,-5.4751 -4.74806,-5.9578 -11.22182,-1.9568 l -4.3848,2.71 -2.10592,-3.0066 c -2.71693,-3.879 -2.66893,-4.4264 0.79938,-9.1176 1.5979,-2.1613 2.55366,-4.2812 2.1239,-4.711 -1.06102,-1.061 -7.25493,2.2731 -13.56984,7.3045 -4.90628,3.909 -5.34946,4.0202 -7.66666,1.9232 -3.86664,-3.4993 -2.96032,-7.6644 2.9549,-13.5796 6.7626,-6.7626 16.16384,-13.0179 29.91907,-19.9071 11.9098,-5.9649 32.18926,-12.7942 34.90164,-11.7534 3.06038,1.1744 2.02881,6.0601 -1.56831,7.4277 -2.43503,0.9258 -3.33333,2.2509 -3.33333,4.9169 0,2.3075 -1.24634,4.6487 -3.38908,6.3663 -3.05123,2.446 -3.27607,3.2485 -2.25544,8.0501 1.26133,5.9342 0.82334,5.8219 15.64452,4.011 l 8,-0.9774 1.51164,4.046 1.51162,4.046 11.48838,-0.4007 c 11.3748,-0.3968 11.48836,-0.3688 11.48836,2.8263 0,6.1223 -3.58888,8.0159 -16.73204,8.8284 -7.76178,0.4798 -15.91831,2.0193 -22.86723,4.3159 l -10.80185,3.5701 -2.76628,-2.7663 -2.76627,-2.7663 -6.14371,2.6335 c -3.37903,1.4484 -6.35513,2.6335 -6.61353,2.6335 -0.2584,0 -1.22918,-2.1 -2.1573,-4.6666 z m -55.66508,-47.3334 c -0.0858,-23.8333 -0.55387,-77.1033 -1.04018,-118.3777 -0.92172,-78.2273 -1.22403,-81.9566 -6.30225,-77.742 -1.17935,0.9788 -2.14428,1.1991 -2.14428,0.4896 0,-1.5016 5.11505,-6.3947 5.83732,-5.5839 18.02425,20.2325 59.92941,68.792 60.38128,69.9696 0.34639,0.9026 -0.89641,4.6529 -2.76175,8.334 -9.63596,19.0157 -24.09602,61.6814 -41.43024,122.2438 -6.08696,21.2666 -11.36347,39.8666 -11.72557,41.3333 -0.36211,1.4667 -0.72855,-16.8333 -0.81433,-40.6667 z"
         style="fill:#7f7f7f;stroke-width:1.33333325" />
      <path
         id="path4724"
         d="m 34.98486,2776.4396 c -6.058325,-2.5112 -16.13411,-5.8873 -22.390633,-7.5027 -9.438404,-2.4368 -11.5037476,-3.4473 -12.12865651,-5.934 -1.70681479,-6.7918 -0.25242767,-7.4431 14.89496651,-6.67 l 13.965153,0.7127 1.721303,-3.5228 c 1.632281,-3.3407 2.186245,-3.5076 10.711478,-3.2278 8.988988,0.295 8.990281,0.2945 9.782518,-3.6667 0.87401,-4.37 0.94817,-4.399 10.459009,-4.0874 5.94727,0.1949 6.411847,0.015 4.305239,-1.6621 -1.298785,-1.0343 -6.835913,-3.5889 -12.304729,-5.6769 -10.508053,-4.012 -12.20894,-5.7421 -9.895185,-10.0654 1.21017,-2.2612 2.281774,-2.5388 6.995218,-1.8116 19.106133,2.9474 46.051658,17.2963 58.634099,31.2236 5.60431,6.2033 6.16972,10.185 2.16858,15.2716 -3.43665,4.369 -4.49457,4.3746 -9.63346,0.05 l -4.115189,-3.4626 -1.157376,3.1286 c -1.578321,4.2666 -6.338973,9.1365 -8.896283,9.1004 -1.155502,-0.016 -3.600914,-1.2029 -5.434247,-2.6369 -4.446582,-3.4782 -5.227944,-3.3571 -9.236232,1.4317 l -3.430435,4.0984 -7.333333,-3.4358 -7.333333,-3.4358 -2.716753,3.3374 c -3.364483,4.1331 -4.051779,4.0724 -17.631719,-1.5563 z M 186.48512,2774 c -1.9798,-5.4751 -4.74806,-5.9578 -11.22182,-1.9568 l -4.3848,2.71 -2.10592,-3.0066 c -2.71693,-3.879 -2.66893,-4.4264 0.79938,-9.1176 1.5979,-2.1613 2.55366,-4.2812 2.1239,-4.711 -1.06102,-1.061 -7.25493,2.2731 -13.56984,7.3045 -4.90628,3.909 -5.34946,4.0202 -7.66666,1.9232 -3.86664,-3.4993 -2.96032,-7.6644 2.9549,-13.5796 6.7626,-6.7626 16.16384,-13.0179 29.91907,-19.9071 11.9098,-5.9649 32.18926,-12.7942 34.90164,-11.7534 3.06038,1.1744 2.02881,6.0601 -1.56831,7.4277 -2.43503,0.9258 -3.33333,2.2509 -3.33333,4.9169 0,2.3075 -1.24634,4.6487 -3.38908,6.3663 -3.05123,2.446 -3.27607,3.2485 -2.25544,8.0501 1.26133,5.9342 0.82334,5.8219 15.64452,4.011 l 8,-0.9774 1.51164,4.046 1.51162,4.046 11.48838,-0.4007 c 11.3748,-0.3968 11.48836,-0.3688 11.48836,2.8263 0,6.1223 -3.58888,8.0159 -16.73204,8.8284 -7.76178,0.4798 -15.91831,2.0193 -22.86723,4.3159 l -10.80185,3.5701 -2.76628,-2.7663 -2.76627,-2.7663 -6.14371,2.6335 c -3.37903,1.4484 -6.35513,2.6335 -6.61353,2.6335 -0.2584,0 -1.22918,-2.1 -2.1573,-4.6666 z"
         style="fill:#5e5eab;stroke-width:1.33333325" />
      <path
         id="path4722"
         d="m 37.254226,2775.9318 c -10.701131,-4.6449 -31.8851285,-10.8975 -34.0746011,-10.0574 -1.7747728,0.6811 -3.5654594,-4.6508 -2.49706182,-7.4352 0.53419932,-1.3921 3.61025002,-1.5931 14.33214292,-0.9364 7.508579,0.4599 14.138969,0.5516 14.734204,0.2038 0.595235,-0.3478 1.662531,-2.1586 2.371769,-4.0241 1.256993,-3.3061 1.521341,-3.3701 10.478597,-2.5376 l 9.189073,0.854 0.875074,-3.9842 c 1.136104,-5.1726 1.531012,-5.3411 9.172734,-3.9135 13.144829,2.4557 9.962785,-3.2469 -4.991241,-8.9449 -11.12812,-4.2402 -13.266858,-5.8387 -12.051041,-9.007 0.728061,-1.8973 1.900236,-2.1688 6.382325,-1.4783 18.274578,2.8154 41.113932,14.5558 55.73812,28.6516 6.91386,6.6641 7.98015,10.5218 4.34341,15.714 -2.68148,3.8284 -4.72982,3.7401 -8.59107,-0.37 -3.777519,-4.021 -8.578365,-4.5894 -7.399824,-0.8761 0.955411,3.0102 -3.881146,9.5549 -7.030278,9.5131 -1.230108,-0.016 -3.73656,-1.2029 -5.569893,-2.637 -4.49571,-3.5166 -5.443291,-3.3679 -9.427762,1.4791 -3.401782,4.1382 -3.459821,4.1532 -7.657617,1.9825 -9.406857,-4.8645 -10.750358,-5.0041 -13.849927,-1.4393 -3.47771,3.9997 -3.523842,3.9973 -14.477133,-0.7571 z M 186.48512,2774 c -1.9798,-5.4751 -4.74806,-5.9578 -11.22182,-1.9568 l -4.3848,2.71 -2.10592,-3.0066 c -2.71693,-3.879 -2.66893,-4.4264 0.79938,-9.1176 1.5979,-2.1613 2.55366,-4.2812 2.1239,-4.711 -1.06102,-1.061 -7.25493,2.2731 -13.56984,7.3045 -4.90628,3.909 -5.34946,4.0202 -7.66666,1.9232 -3.86664,-3.4993 -2.96032,-7.6644 2.9549,-13.5796 6.7626,-6.7626 16.16384,-13.0179 29.91907,-19.9071 11.9098,-5.9649 32.18926,-12.7942 34.90164,-11.7534 3.06038,1.1744 2.02881,6.0601 -1.56831,7.4277 -2.43503,0.9258 -3.33333,2.2509 -3.33333,4.9169 0,2.3075 -1.24634,4.6487 -3.38908,6.3663 -3.05123,2.446 -3.27607,3.2485 -2.25544,8.0501 1.26133,5.9342 0.82334,5.8219 15.64452,4.011 l 8,-0.9774 1.51164,4.046 1.51162,4.046 11.48838,-0.4007 c 11.3748,-0.3968 11.48836,-0.3688 11.48836,2.8263 0,6.1223 -3.58888,8.0159 -16.73204,8.8284 -7.76178,0.4798 -15.91831,2.0193 -22.86723,4.3159 l -10.80185,3.5701 -2.76628,-2.7663 -2.76627,-2.7663 -6.14371,2.6335 c -3.37903,1.4484 -6.35513,2.6335 -6.61353,2.6335 -0.2584,0 -1.22918,-2.1 -2.1573,-4.6666 z"
         style="fill:#d30606;stroke-width:1.33333325" />
      <path
         id="path4720"
         d="m 37.254226,2775.9318 c -10.701131,-4.6449 -31.8851285,-10.8975 -34.0746011,-10.0574 -1.7747728,0.6811 -3.5654594,-4.6508 -2.49706182,-7.4352 0.53419932,-1.3921 3.61025002,-1.5931 14.33214292,-0.9364 7.508579,0.4599 14.138969,0.5516 14.734204,0.2038 0.595235,-0.3478 1.662531,-2.1586 2.371769,-4.0241 1.256993,-3.3061 1.521341,-3.3701 10.478597,-2.5376 l 9.189073,0.854 0.875074,-3.9842 c 1.136104,-5.1726 1.531012,-5.3411 9.172734,-3.9135 13.144829,2.4557 9.962785,-3.2469 -4.991241,-8.9449 -11.12812,-4.2402 -13.266858,-5.8387 -12.051041,-9.007 0.728061,-1.8973 1.900236,-2.1688 6.382325,-1.4783 18.274578,2.8154 41.113932,14.5558 55.73812,28.6516 6.91386,6.6641 7.98015,10.5218 4.34341,15.714 -2.68148,3.8284 -4.72982,3.7401 -8.59107,-0.37 -3.777519,-4.021 -8.578365,-4.5894 -7.399824,-0.8761 0.955411,3.0102 -3.881146,9.5549 -7.030278,9.5131 -1.230108,-0.016 -3.73656,-1.2029 -5.569893,-2.637 -4.49571,-3.5166 -5.443291,-3.3679 -9.427762,1.4791 -3.401782,4.1382 -3.459821,4.1532 -7.657617,1.9825 -9.406857,-4.8645 -10.750358,-5.0041 -13.849927,-1.4393 -3.47771,3.9997 -3.523842,3.9973 -14.477133,-0.7571 z"
         style="fill:#191989;stroke-width:1.33333325" />
      <path
         id="path4718"
         d="m 37.161316,2774.5599 c -13.832973,-6.0017 -33.2543269,-11.2335 -34.4598661,-9.2829 -0.6754266,1.0929 -1.2440205,0.6748 -1.75860384,-1.2929 -1.49914127,-5.7328 -0.44579678,-6.096 14.67311494,-5.0607 15.070296,1.0321 17.717371,0.3483 17.717371,-4.5767 0,-2.5028 0.586486,-2.6051 9.919654,-1.7305 l 9.919653,0.9296 0.875756,-4.6682 c 0.849708,-4.5293 1.020644,-4.6435 5.747013,-3.8383 9.086005,1.5481 11.537923,1.1855 11.537923,-1.706 0,-2.6084 -7.567471,-7.155 -21.08274,-12.6667 -3.590379,-1.4642 -4.594214,-2.4834 -3.746934,-3.8044 0.958296,-1.4941 2.990264,-1.3409 11.814876,0.8906 17.066777,4.3159 33.108566,13.2656 46.681467,26.0438 7.24903,6.8246 8.42431,10.2125 5.07541,14.6304 -1.74819,2.3062 -2.1211,2.2233 -7.49098,-1.6667 -7.339338,-5.3166 -9.737456,-5.3452 -8.968684,-0.1073 0.428656,2.9206 -0.222599,4.7452 -2.43593,6.8245 l -3.021008,2.8381 -4.570117,-2.8245 c -6.162725,-3.8088 -8.473141,-3.5601 -10.922026,1.1755 -1.137664,2.2 -2.240375,4 -2.450468,4 -0.210093,0 -2.744684,-1.1259 -5.632427,-2.502 -9.517359,-4.5353 -10.885705,-4.6275 -13.329602,-0.8976 -2.699499,4.1199 -3.002173,4.1048 -14.092852,-0.7071 z"
         style="fill:#00007e;stroke-width:1.33333325" />
    </g>
  </g>
</svg>
