<svg xmlns="http://www.w3.org/2000/svg" width="2800" height="2800"><path fill="#fce5d8" d="M12.622 2249.026c-.915-2.383-1.663-41.067-1.663-85.963 0-64.972.75-82.253 3.678-84.683 2.592-2.15 51.606-3.262 165.8-3.76l162.121-.707-21.95-14.517c-56.48-37.355-97.112-97.515-116.685-172.767-14.362-55.218-14.887-67.508-14.887-348.16v-259.83l-6.79-1.704c-10.72-2.69-109.807-14.846-137.042-16.81-13.561-.98-29.28-2.943-34.93-4.364L0 1253.177v-135.323C0 991.34.312 982.44 4.794 981.124c13.79-4.051 86.434-10.396 193.83-16.93 77.861-4.736 350.404-8.143 383.552-4.793l21.917 2.214 1.425 372.593c1.509 394.569 1.055 381.886 14.356 401.429 11.71 17.202 18.976 20.477 45.45 20.477 21.303 0 25.702-.93 41.569-8.791 53.258-26.386 95.492-85.936 118.448-167.012 6.058-21.397 6.077-22.207 7.478-315.965.772-161.981 2.402-296.053 3.62-297.936 1.741-2.69 46.288-3.425 207.53-3.425 112.92 0 205.61.308 205.973.685.365.377 1.29 181.913 2.055 403.413l1.393 402.729 20.215 3.345c22.13 3.662 101.585 12.975 135.26 15.854l21.232 1.816V560.449l5.798-3.103c12.424-6.649 611.962-13.79 706.28-8.413 194.288 11.077 336.925 81.666 407.979 201.903 51.588 87.296 63.516 216.97 28.899 314.156-10.751 30.183-35.025 75.266-54.49 101.2-20.987 27.966-58.7 64.44-85.697 82.885-10.866 7.423-19.75 14.204-19.744 15.068.006.864 8.945 6.187 19.863 11.829 84.728 43.782 152.178 137.93 174.746 243.915 11.44 53.727 9.738 123.95-4.565 188.28-30.596 137.614-120.67 247.497-257.177 313.738-41.793 20.281-76.603 33.51-116.435 44.25l-28.766 7.756 296.567.697 296.567.697v178.053H1407.103c-1267.541 0-1392.968-.39-1394.481-4.334zm249.644-41.03c9.671-6.338 11.699-14.888 11.699-49.332 0-25.22-.758-31.328-3.886-31.328-3.097 0-4.07 6.896-4.794 33.967-.75 28.03-1.771 34.918-5.843 39.41-10.398 11.471-33.96 9.238-39.892-3.781-1.75-3.841-3.118-20.602-3.118-38.219 0-26.064-.695-31.377-4.11-31.377-3.434 0-4.109 5.652-4.109 34.426 0 19.386 1.291 36.838 2.956 39.948 6.892 12.877 35.639 16.414 51.097 6.285zm627.748-.504c17.24-12.833 13.627-30.508-8.372-40.966-27.222-12.94-26.584-33.052 1.113-35.08 15.375-1.125 15.27-1.077 9.542-4.41-6.685-3.889-24.787-.52-33.336 6.205-5.226 4.11-6.93 7.993-6.93 15.786 0 11.986 4.424 16.887 21.312 23.613 25.91 10.318 22.213 34.146-5.299 34.146-12.573 0-15.852 1.945-11.219 6.654 3.561 3.62 25.657-.34 33.19-5.948zm865.932-.267c17.948-13.132 24.03-36.7 15.342-59.45-5.634-14.751-16.308-21.402-34.35-21.402-27.347 0-42.537 18.472-40.572 49.337 1.292 20.283 7.604 30.732 21.65 35.838 11.513 4.186 29.03 2.19 37.93-4.323zm-35.753-4.548c-11.25-6.114-17.386-26.173-13.41-43.835 5.426-24.098 29.825-33.587 46.97-18.268 7.352 6.569 8.882 10.14 9.971 23.273.764 9.212-.114 18.897-2.162 23.84-7.13 17.216-25.217 23.769-41.369 14.99zm151.548 9.479c18.385-5.106 21.357-12.196 21.357-50.944 0-28.285-.678-33.876-4.11-33.876-3.423 0-4.11 5.462-4.11 32.723 0 30.595-.427 33.22-6.577 40.37-9.137 10.623-27.152 10.47-36.423-.308-5.829-6.776-6.313-9.849-6.313-40.062 0-27.26-.686-32.723-4.11-32.723-3.423 0-4.109 5.46-4.109 32.698 0 37.966 2.146 45.568 14.363 50.878 10.795 4.691 16.733 4.937 30.032 1.244zm254.912-1.696c1.13-.692 2.055-9.918 2.055-20.502 0-14.17-.903-18.947-3.425-18.117-1.947.641-3.795 6.913-4.285 14.542-1.178 18.375-4.195 21.272-20.52 19.704-25.382-2.44-38.821-27.088-28.386-52.062 6.207-14.857 18.69-21.621 38.083-20.637 17.272.876 21.332-3.245 6.902-7.006-5.516-1.438-14.334-1.117-23.123.842-27.977 6.234-42.913 34.523-32.552 61.653 5.296 13.866 8.61 17.118 22.76 22.332 9.391 3.46 36.393 2.984 42.491-.75zm110.795-.789c14.546-6.604 22.763-21.483 22.763-41.219 0-28.213-12.009-41.73-37.397-42.097-15.697-.227-24.575 4.457-35.034 18.484-8.48 11.372-8.09 43.456.676 55.746 10.115 14.182 29.748 17.823 48.992 9.086zm-31.074-6.108c-10.512-5.087-15.525-18.498-14.13-37.798 1.104-15.255 2.3-18.26 9.997-25.138 19.25-17.2 45.467-4.795 47.184 22.325 1.246 19.682-.309 25.34-9.487 34.52-9.875 9.874-21.418 11.969-33.564 6.091zm169.273 7.103c1.303-.805 2.369-10.124 2.369-20.708 0-14.17-.903-18.947-3.425-18.117-1.947.641-3.795 6.913-4.284 14.542-1.176 18.329-4.212 21.27-20.356 19.72-21.73-2.088-35.027-20.414-30.874-42.553 4.062-21.651 19.394-32.112 44.396-30.29 16.58 1.209 19.13-4.65 3.018-6.932-33.27-4.711-57.75 14.93-57.75 46.334 0 28.9 18.047 43.693 49.783 40.809 8.115-.738 15.82-2 17.123-2.805zm-2032.596-29.222c.594-23.599 1.638-30.82 4.458-30.82 2.025 0 11.481 13.56 21.013 30.135 15.602 27.132 18.171 30.222 25.768 30.995l8.439.858v-42.638c0-35.65-.66-42.638-4.02-42.638-3.25 0-4.168 5.909-4.795 30.821-.558 22.21-1.72 30.821-4.157 30.821-1.86 0-11.23-13.561-20.82-30.136-15.836-27.37-18.23-30.215-26.068-30.995l-8.632-.858v42.638c0 35.651.659 42.638 4.02 42.638 3.25 0 4.168-5.909 4.794-30.82zM473.96 2169.6c0-39.158-.394-42.59-4.794-41.746-4.248.815-4.882 5.273-5.56 39.11-.825 41.139-.26 45.301 6.159 45.301 3.588 0 4.195-6.178 4.195-42.665zm106.548 2.738c15.28-43.589 15.611-45.002 10.533-45.002-1.979 0-8.386 14.39-14.945 33.56-15.257 44.6-17.524 44.647-32.561.686-7.637-22.327-12.692-33.16-15.753-33.762-2.48-.487-4.508-.16-4.508.729 0 .888 6.373 20.087 14.163 42.665 13.587 39.382 14.466 41.051 21.618 41.051 7.133 0 8.061-1.727 21.453-39.927zm107.145 37.188c0-1.507-5.918-2.74-13.15-2.74-16.074 0-19.726-3.297-19.726-17.808 0-14.247 3.67-17.808 18.356-17.808 6.48 0 11.78-1.232 11.78-2.74 0-1.506-4.83-2.739-10.734-2.739-17.357 0-19.402-1.732-19.402-16.438 0-14.908 1.934-16.438 20.772-16.438 6.657 0 12.104-1.232 12.104-2.74 0-1.582-8.676-2.739-20.547-2.739h-20.548v84.929h20.548c11.871 0 20.547-1.157 20.547-2.74zm63.012-10.735c0-27.856 6.357-29.092 22.584-4.39 6.906 10.512 13.617 17.773 16.456 17.807 6.626.08 6.325-.777-6.85-19.484l-11.643-16.533 6.85-5.109c14.066-10.491 16.437-13.747 16.395-22.514-.076-16.192-8.151-21.232-34.023-21.232h-17.988v42.465c0 35.92.633 42.464 4.11 42.464 3.095 0 4.109-3.323 4.109-13.474zm1.663-34.694c-2.573-6.705-1.968-20.114 1.173-25.982 2.897-5.414 17.225-7.37 23.465-3.203 9.496 6.34 10.197 18.742 1.624 28.724-5.367 6.25-23.916 6.575-26.262.461zm209.29 5.704c0-35.92-.633-42.465-4.11-42.465-3.476 0-4.109 6.545-4.109 42.465s.633 42.464 4.11 42.464c3.476 0 4.109-6.545 4.109-42.464zm84.93 6.027c0-40.145 1.04-43.013 15.615-43.013 4.973 0 9.041-1.232 9.041-2.74 0-1.652-11.415-2.739-28.766-2.739s-28.767 1.087-28.767 2.74c0 1.507 4.069 2.74 9.041 2.74 14.575 0 15.616 2.867 15.616 43.012 0 30.562.663 36.437 4.11 36.437s4.11-5.875 4.11-36.437zm115.064 33.698c0-1.507-5.917-2.74-13.15-2.74-16.073 0-19.725-3.297-19.725-17.808 0-14.51 3.652-17.808 19.725-17.808 7.233 0 13.15-1.232 13.15-2.74 0-1.506-5.917-2.739-13.15-2.739-15.73 0-19.725-3.33-19.725-16.438 0-13.108 3.995-16.438 19.725-16.438 7.233 0 13.15-1.232 13.15-2.74 0-1.582-8.675-2.739-20.547-2.739h-20.547v84.929h20.547c11.872 0 20.547-1.157 20.547-2.74zm180.242-2.48c14.09-7.234 20.978-19.958 20.903-38.615-.122-30.32-12.971-41.095-49.006-41.095h-20.635v84.929h19.286c13.582 0 22.294-1.543 29.452-5.218zm-37.717-6.945c-3.563-9.37-3.653-50.993-.13-60.258 2.264-5.957 4.373-7.028 13.834-7.028 6.14 0 14.897 1.932 19.461 4.292 14.315 7.402 20.117 30.195 12.355 48.535-5.64 13.322-13.743 19.045-29.055 20.516-12.833 1.233-13.833.865-16.465-6.057zm153.358 9.425c0-1.507-5.918-2.74-13.15-2.74-16.074 0-19.726-3.297-19.726-17.808 0-14.247 3.67-17.808 18.355-17.808 6.48 0 11.781-1.232 11.781-2.74 0-1.506-4.83-2.739-10.735-2.739-17.357 0-19.401-1.732-19.401-16.438 0-14.908 1.933-16.438 20.771-16.438 6.658 0 12.105-1.232 12.105-2.74 0-1.582-8.676-2.739-20.548-2.739H1416.4v84.929h20.547c11.872 0 20.548-1.157 20.548-2.74zm175.176-1.287c13.326-6.891 15.863-28.554 4.113-35.13-5.513-3.085-4.926-9.34 1.527-16.268 3.014-3.235 5.48-8.73 5.48-12.214 0-12.675-8.777-17.29-32.876-17.29h-21.917v84.928h17.944c10.426 0 21.205-1.686 25.73-4.026zm-32.167-4.74c-1.808-1.809-3.287-8.343-3.287-14.52 0-6.179 1.48-12.713 3.287-14.521 5.753-5.753 21.003-3.903 28.343 3.437 8.205 8.204 8.403 12.32 1.047 21.672-4.32 5.492-8.121 7.219-15.89 7.219-5.617 0-11.692-1.48-13.5-3.288zm-1.624-42.141c-.915-2.384-1.663-7.83-1.663-12.105 0-13.861 2.376-16.438 15.165-16.438 7.11 0 13.56 1.72 16.145 4.306 6.39 6.39 5.447 19.24-1.784 24.305-8.12 5.688-25.67 5.645-27.863-.068zm366.004 33.812c1.133-23.751 6.223-23.951 21.283-.836 7.761 11.913 13.467 17.931 17.001 17.931 6.03 0 5.67-.907-7.768-19.544-11.238-15.587-11.357-18.907-.892-24.862 9.47-5.389 14.414-16 11.978-25.709-2.724-10.853-11.229-14.814-31.807-14.814h-18.568v42.465c0 35.3.671 42.464 3.979 42.464 2.966 0 4.186-4.35 4.794-17.095zm.566-30.512c-.796-2.075-1.066-9.78-.6-17.123.849-13.34.857-13.35 11.392-14.216 12.881-1.059 20.964 5.249 20.964 16.359 0 10.798-8.753 18.753-20.634 18.753-5.688 0-10.271-1.555-11.122-3.773zm478.914 16.786c.62-24.696 1.561-30.82 4.735-30.82 2.186 0 11.761 13.801 21.381 30.82 16.024 28.35 18.068 30.821 25.491 30.821h8.07v-42.464c0-36.508-.595-42.465-4.242-42.465-3.586 0-4.17 4.403-3.786 28.505.444 27.797-.912 35.658-5.86 33.967-1.336-.457-10.187-14.391-19.67-30.966-15.849-27.704-17.954-30.205-26.087-30.995l-8.846-.858v42.638c0 35.651.658 42.638 4.02 42.638 3.248 0 4.167-5.909 4.794-30.82zm166.523 28.082c0-1.507-5.918-2.74-13.15-2.74-16.073 0-19.726-3.297-19.726-17.808 0-14.54 3.65-17.808 19.887-17.808 8.177 0 12.66-1.056 11.62-2.74-.932-1.506-6.922-2.739-13.313-2.739-14.197 0-18.194-3.61-18.194-16.438 0-13.108 3.996-16.438 19.726-16.438 7.232 0 13.15-1.232 13.15-2.74 0-1.582-8.675-2.739-20.547-2.739h-20.548v84.929h20.548c11.872 0 20.547-1.157 20.547-2.74zm-1464.472-104.547c3.838-1.749 6.978-4.214 6.978-5.48 0-3.639-3.561-2.606-10.958 3.18-7.779 6.085-6.256 6.964 3.98 2.3zm-277-81.065c.991-28.252 2.552-56.916 3.469-63.697l1.667-12.328-8.913 10.959c-17.291 21.26-59.35 60.452-80.85 75.34-11.97 8.287-32.865 20.885-46.435 27.995l-24.673 12.927 76.966.086 76.967.087 1.802-51.369zm1145.112 45.918c152.613-6.869 270.48-37.57 366.207-95.39 118.18-71.38 189.942-179.487 208.392-313.935 4.425-32.244 3.769-97.32-1.262-125.182-20.524-113.676-93.553-208.487-191.068-248.058-19.56-7.938-21.418-9.823-21.477-21.811-.047-9.533 3.483-13.222 23.245-24.296 53.174-29.796 104.267-83.44 133.643-140.319 25.904-50.153 37.596-98.925 37.57-156.708-.048-100.01-30.462-178.997-93.008-241.538-65.613-65.608-164.136-106.462-301.486-125.014-33.114-4.473-58.352-4.98-241.09-4.839-180.762.14-361.162 3.79-446.562 9.035l-28.767 1.767-.69 741.412-.69 741.412 241.78 2.585c132.978 1.422 245.477 2.78 249.998 3.016 4.52.237 33.89-.725 65.265-2.137zm-111.445-312.56c-29.607-1.416-50.427-3.591-52.738-5.51-3.178-2.637-3.82-27.658-3.82-149.069 0-132.373.42-146.249 4.531-149.66 3.628-3.01 20.972-3.733 86.984-3.624 80.335.133 83.139.322 109.134 7.368 63.761 17.284 105.157 53.956 118.43 104.917 5.263 20.202 5.375 61 .22 80.364-10.852 40.775-36.985 71.365-78.556 91.955-44.028 21.806-90.868 27.721-184.185 23.259zm135.612-34.85c71.178-19.238 108.374-66.76 102.945-131.522-4.421-52.733-39.99-90.754-99.23-106.07-26.277-6.794-88.254-10.513-130.133-7.809l-36.985 2.388v246.568l15.068 1.758c8.288.966 40.342 1.44 71.231 1.052 46.636-.586 59.715-1.665 77.104-6.365zm-182.58-556.37l-8.22-1.757v-279.39l15.069-2.163c8.287-1.19 48.355-2.39 89.038-2.667 69-.47 75.444-.093 95.888 5.604 31.271 8.714 54.114 20.752 71.4 37.628 62.03 60.561 41.31 176.68-38.956 218.315-41.323 21.435-73.646 26.95-155.402 26.513-33.33-.179-64.297-1.115-68.817-2.082zm136.982-28.014c64.936-7.925 109.205-35.527 125.71-78.382 3.153-8.19 5.55-23.395 6.383-40.508 1.158-23.78.52-29.548-4.824-43.696-12.09-32.004-40.288-53.001-84.804-63.147-15.997-3.646-32.987-4.638-76.71-4.477-30.89.114-62.636 1-70.546 1.97l-14.384 1.765v113.151c0 87.958.763 113.46 3.425 114.534 6.587 2.658 91.313 1.772 115.75-1.21z"/><path fill="#fbdac7" d="M15.038 2247.196c-.828-3.39-1.16-42.533-.737-86.984l.767-80.82 166.434-.706c91.538-.388 166.397-1.621 166.352-2.74-.045-1.118-7.134-6.084-15.753-11.035-65.984-37.9-113.348-110.475-131.799-201.951-10.02-49.677-11.209-85.7-11.238-340.402-.015-135.989-.741-247.253-1.613-247.253s-23.988-2.994-51.369-6.652c-27.38-3.66-66.426-8.062-86.768-9.785-20.342-1.722-39.76-3.683-43.15-4.358L0 1253.283V984.784l6.164-2.568c6.71-2.797 73.512-8.604 174.653-15.183 123.994-8.066 413.935-10.225 421-3.136 1.252 1.256 2.892 170.772 3.646 376.702 1.364 373.032 1.39 374.466 7.117 386.839 15.653 33.824 52.767 41.465 97.434 20.06 15.067-7.221 25.369-15.11 43.489-33.3 34.845-34.98 57.396-76.314 73.429-134.59l7.216-26.229.817-291.606c.575-204.943 1.704-292.673 3.798-295.197 2.408-2.901 41.284-3.591 202.415-3.591 109.69 0 201.385.748 203.769 1.663 3.924 1.506 4.333 39.542 4.333 402.787v401.124l6.164 2.557c8.986 3.727 124.767 18.065 159.585 19.762l13.698.668 1.37-614.138c.929-416.263 2.28-615.048 4.194-616.962 9.358-9.357 597.131-18.54 708.115-11.062 142.474 9.598 255.46 49.313 336.28 118.201 102.176 87.091 143.83 240.888 103.403 381.78-9.374 32.673-35.65 84.8-57.361 113.796-21.217 28.336-61.591 67.495-88.581 85.916-10.877 7.423-19.771 14.204-19.766 15.068.006.864 8.267 5.841 18.36 11.06 87.408 45.201 154.632 138.623 178.167 247.602 7.602 35.204 6.767 127.061-1.531 168.47-29.84 148.891-120.323 262.256-264.867 331.85-32.73 15.758-86.495 35.399-120.545 44.034-13.561 3.44-25.828 7.29-27.26 8.558-1.43 1.267 133.257 2.303 299.308 2.303h301.909V2253.36H16.542zm247.144-37.556c11.66-7.109 14.919-20.105 13.934-55.558-.723-26.029-1.188-28.116-6.26-28.116-5.124 0-5.569 2.283-6.85 35.182-1.278 32.842-1.8 35.53-7.837 40.41-7.346 5.938-16.174 6.653-26.129 2.117-9.606-4.377-10.492-7.758-11.967-45.654-1.138-29.238-1.901-33.582-5.77-32.83-3.862.751-4.46 5.937-4.46 38.734v37.867l7.687 6.607c10.074 8.657 34.448 9.292 47.652 1.241zm81.644-25.281c0-16.038.8-29.963 1.778-30.943 2.668-2.675 6.597 2.706 24.59 33.67 15.844 27.268 16.712 28.213 25.157 27.396l8.747-.847v-43.797c0-39.533-.466-43.887-4.794-44.72-4.335-.835-4.794 2.006-4.794 29.615 0 27.164-.51 30.44-4.618 29.648-2.54-.489-12.118-13.832-21.284-29.652-16.122-27.825-16.976-28.763-26.203-28.763h-9.538l-.76 40.975c-.42 22.536-.115 42.66.676 44.721.79 2.061 3.599 3.322 6.24 2.802 4.217-.83 4.803-4.501 4.803-30.105zm130.133-14.558c0-43.378-.221-45.205-5.479-45.205s-5.48 1.827-5.48 45.205c0 43.377.222 45.204 5.48 45.204s5.48-1.827 5.48-45.204zm108.531 2.74c7.956-22.603 14.53-42.637 14.61-44.52.079-1.884-2.154-3.425-4.962-3.425-4.017 0-7.182 5.992-14.836 28.082-5.35 15.445-10.556 30.925-11.566 34.401-3.88 13.35-10.249 5.034-21.629-28.237-9.544-27.902-12.178-33.008-17.41-33.751-7.79-1.107-7.753-.513 1.608 25.693 4.274 11.966 11.204 31.378 15.4 43.137 7.418 20.791 7.86 21.358 15.975 20.548 8.146-.814 8.693-1.82 22.81-41.929zm106.532 36.985c0-2.99-4.11-4.483-15.068-5.48l-15.068-1.37v-27.396l13.698-1.37c9.741-.974 13.698-2.557 13.698-5.48 0-2.921-3.957-4.504-13.698-5.478l-13.698-1.37v-24.657l15.068-1.37c10.958-.996 15.068-2.49 15.068-5.48 0-3.31-4.262-4.109-21.917-4.109h-21.918l-.76 40.975c-.42 22.536-.13 42.621.643 44.635 2.14 5.578 43.952 3.628 43.952-2.05zm64.382-12.353c.933-11.182 2.536-16.414 5.029-16.414 2.012 0 8.839 7.397 15.17 16.438 7.16 10.224 13.802 16.769 17.573 17.313 8.652 1.25 7.571-3.175-4.897-20.053-6.027-8.158-10.958-16.05-10.958-17.535 0-1.486 3.593-4.825 7.985-7.42 14.74-8.706 17.796-23.668 7.324-35.849-6.196-7.207-7.95-7.687-28.082-7.687h-21.473l-.761 40.975c-.419 22.536-.114 42.66.676 44.721.791 2.061 3.6 3.338 6.241 2.836 3.747-.71 5.104-4.52 6.173-17.325zm3.287-32.03c-4.7-4.7-4.148-25.463.787-29.558 4.795-3.98 15.632-1.849 21.76 4.28 6.511 6.51 5.242 16.47-2.917 22.888-8.154 6.414-14.797 7.223-19.63 2.39zm138.174 40.652c7.957-9.25 8.835-26.206 1.685-32.55-2.637-2.34-10.662-6.988-17.834-10.328-23.122-10.768-18.95-30.102 6.494-30.102 7.996 0 10.655-1.107 10.655-4.438 0-3.743-2.641-4.248-16.85-3.22-14.142 1.023-17.887 2.422-23.288 8.7-12.868 14.96-7.655 28.374 15.585 40.105 14.23 7.183 16.334 9.257 16.334 16.09 0 10.87-6.674 15.4-22.342 15.164-11.377-.172-13.273.559-13.273 5.114 0 4.84 1.618 5.21 18.177 4.156 15.682-.999 19.066-2.191 24.657-8.691zm68.877-35.403c.66-37.784.198-43.388-3.701-44.884-2.487-.954-5.527-.02-6.877 2.114-2.856 4.51-3.39 82.846-.584 85.651 1.056 1.057 3.83 1.555 6.164 1.107 3.578-.687 4.361-7.58 4.998-43.988zm85.544 4.856l1.37-38.323 10.958-1.37c7.306-.913 10.959-2.74 10.959-5.48 0-3.403-5.175-4.109-30.136-4.109-24.962 0-30.136.706-30.136 4.11 0 2.74 3.652 4.566 10.958 5.479l10.959 1.37.717 35.615c.807 40.077 1.424 43.243 8.178 41.95 4.225-.808 4.968-5.534 6.173-39.242zm114.557 34.962c-.694-3.66-4.469-5.118-15.954-6.164l-15.044-1.37v-27.396l14.555-.834c11.958-.685 14.399-1.663 13.675-5.48-.643-3.392-4.567-5.014-14.555-6.014l-13.675-1.37v-24.657l15.044-1.37c11.634-1.06 15.256-2.483 15.976-6.279.845-4.45-1.2-4.834-21.893-4.11l-22.825.8-.762 40.975c-.418 22.536-.149 42.57.6 44.519.957 2.497 7.926 3.545 23.564 3.545 19.667 0 22.1-.548 21.294-4.795zm181.026-2.254c12.023-7.022 19.477-22.14 19.477-39.504 0-31.365-14.449-43.684-51.369-43.795l-19.862-.06v91.112l21.357-1.237c14.303-.827 24.344-2.98 30.397-6.516zm-38.97-5.736c-1.004-1.005-1.826-15.755-1.826-32.78 0-34.821 1.91-38.21 19.638-34.845 20.726 3.933 28.262 15.07 26.29 38.854-1.05 12.662-2.643 16.324-9.934 22.839-6.693 5.98-11.396 7.758-20.512 7.758-6.506 0-12.65-.822-13.655-1.826zm152.964 7.306c0-2.99-4.109-4.483-15.068-5.48l-15.068-1.37v-27.396l13.699-1.37c9.74-.974 13.698-2.557 13.698-5.48 0-2.921-3.957-4.504-13.698-5.478l-13.699-1.37v-24.657l15.068-1.37c10.959-.996 15.068-2.49 15.068-5.48 0-3.31-4.261-4.109-21.917-4.109h-21.917l-.761 40.975c-.42 22.536-.13 42.621.643 44.635 2.14 5.578 43.952 3.628 43.952-2.05zm165.368 3.774c19.664-3.932 29.62-26.436 16.82-38.02-6.506-5.887-7.06-13.086-1.37-17.808 5.343-4.435 5.288-20.346-.089-25.723-5.434-5.435-18.075-7.71-36.897-6.64l-15.068.857-.762 40.975c-.418 22.536-.149 42.57.6 44.519 1.462 3.81 21.82 4.83 36.766 1.84zm-19.481-9.407c-3.404-2.03-4.795-6.347-4.795-14.89 0-13.426 2.898-16.455 14.87-15.543 15.865 1.21 23.65 16.432 13.212 25.839-6.54 5.893-17.487 8.053-23.287 4.594zm-1.795-41.998c-4.53-5.46-2.684-23.756 2.74-27.15 7.953-4.979 22.476 1.126 25.46 10.702 3.76 12.06-20.23 26.052-28.2 16.448zm153.292 46.936c14.21-9.576 20.44-22.48 20.22-41.883-.317-27.87-13.833-42.352-39.53-42.352-26.448 0-42.349 16.942-42.422 45.198-.079 30.933 12.086 45.181 38.593 45.2 9.978.009 16.6-1.756 23.139-6.163zm-38.596-10.373c-10.564-10.564-14.286-31.933-7.767-44.59 6.856-13.313 13.933-18.313 25.918-18.313 9.559 0 12.84 1.465 18.591 8.3 3.841 4.564 7.75 12.382 8.686 17.371 2.406 12.828-3.082 30.566-11.509 37.194-9.537 7.502-26.436 7.521-33.92.038zm161.749 13.044c12.45-6.221 16.429-19.158 16.433-53.43.003-25.815-.718-31.185-4.381-32.59-7.392-2.837-9.227 4.675-9.27 37.956-.042 31.276-.204 32.119-7.261 37.67-9.172 7.214-20.196 7.238-29.317.063-6.936-5.456-7.159-6.596-7.903-40.41-.72-32.713-1.094-34.795-6.245-34.795-5.124 0-5.53 2.084-6.25 32.073-.857 35.635 2.694 49.694 13.662 54.096 9.19 3.688 32.616 3.322 40.532-.633zm87.114-15.017c.449-9.403 2.02-17.096 3.491-17.096 1.472 0 8.487 8.014 15.59 17.808 9.328 12.862 14.636 17.808 19.111 17.808 3.408 0 6.197-.729 6.197-1.62 0-.89-4.932-8.649-10.959-17.241-6.027-8.593-10.91-17.419-10.853-19.613.058-2.195 4.065-6.473 8.904-9.507 5.938-3.723 9.09-8.061 9.697-13.344 2.426-21.126-8.547-29.835-35.94-28.527l-17.012.813-.761 40.975c-.42 22.536-.115 42.66.676 44.721s3.6 3.336 6.24 2.833c3.857-.735 4.964-4.285 5.62-18.01zm3.979-29.812c-2.134-.896-3.425-6.963-3.425-16.094 0-16.468 4.282-20.167 17.52-15.134 11.216 4.265 14.776 20.03 6.141 27.197-4.193 3.48-15.967 5.825-20.236 4.031zm153.927 45.66c6.632-2.522 7.027-3.765 7.027-22.108 0-18.588-.268-19.397-6.164-18.56-5.336.758-6.348 2.9-7.534 15.943l-1.37 15.068-13.132.84c-11.848.758-14.058-.086-22.602-8.63-8.085-8.084-9.47-11.333-9.47-22.208 0-26.315 11.403-37.123 39.166-37.123 16.408 0 18.65-.603 17.824-4.794-.801-4.067-4.13-4.795-21.924-4.795-16.997 0-22.446 1.088-28.707 5.731-13.964 10.355-20.057 22.276-20.057 39.236 0 29.198 14.95 44.072 44.298 44.072 8.59 0 18.78-1.202 22.645-2.672zm115.471-1.73c14.511-6.885 21.708-20.937 21.597-42.172-.155-30.069-12.171-43.835-38.262-43.835-21.625 0-36.885 11.695-42.409 32.5-5.593 21.066 1.729 46.023 15.732 53.62 9.968 5.409 31.827 5.352 43.342-.112zm-36.588-12.042c-7.967-7.423-12.735-24.5-10.366-37.127 4.449-23.717 31.957-34.707 46.796-18.696 19.59 21.138 6.558 61.308-19.89 61.308-6.87 0-12.743-1.948-16.54-5.485zm172.153 13.608c4.46-2.387 5.3-5.856 5.3-21.917 0-17.255-.525-19.082-5.48-19.082-4.58 0-5.48 1.827-5.48 11.14 0 17.343-3.609 21.736-17.86 21.736-17.823 0-28.952-10.557-30.74-29.16-2.529-26.32 10.732-39.331 40.084-39.331 9.027 0 17.088-1.093 17.914-2.43 6.387-10.333-38.71-11.564-52.29-1.426-13.785 10.293-18.43 19.233-19.455 37.446-1.116 19.842 4.35 31.357 19.173 40.395 9.946 6.064 39.448 7.652 48.834 2.629zm70.002-28.122c.176-16.224.977-30.155 1.778-30.957 2.345-2.345 6.916 4.028 24.374 33.99 15.839 27.18 16.78 28.206 25.127 27.396l8.673-.841v-43.797c0-39.533-.467-43.887-4.795-44.72-4.334-.835-4.794 2.006-4.794 29.615 0 27.084-.519 30.437-4.587 29.652-2.523-.487-10.603-11.365-17.956-24.173-21.053-36.67-20.512-36.046-30.364-35.092l-8.735.846-.762 40.975c-.418 22.536-.114 42.66.677 44.721.79 2.061 3.6 3.329 6.24 2.816 4.198-.814 4.844-4.648 5.124-30.43zm166.798 25.479c0-2.99-4.11-4.483-15.068-5.48l-15.068-1.37v-27.396l13.698-1.37c9.741-.974 13.698-2.557 13.698-5.48 0-2.921-3.957-4.504-13.698-5.478l-13.698-1.37v-24.657l15.068-1.37c10.958-.996 15.068-2.49 15.068-5.48 0-3.31-4.262-4.109-21.917-4.109h-21.917l-.762 40.975c-.419 22.536-.13 42.621.644 44.635 2.14 5.578 43.952 3.628 43.952-2.05zm-1464.582-103.422c9.454-5.381 10.874-8.904 3.588-8.904-5.718 0-17.047 7.386-17.047 11.114 0 3.823 4.017 3.164 13.459-2.21zm-278.088-63.012c.918-19.212 2.74-48.492 4.05-65.067 1.31-16.575 1.881-30.684 1.27-31.353-.61-.67-4.95 3.645-9.642 9.589-30.984 39.236-87.418 84.754-134.316 108.334-11.759 5.912-21.379 11.352-21.379 12.088 0 .737 35.629 1.34 79.174 1.34h79.174zm1227.862 22.984c103.163-13.478 180.582-36.091 255.911-74.75 46.662-23.946 80.406-48.526 117.929-85.902 81.325-81.006 123.192-185.296 123.15-306.768-.05-140.893-77.43-263.481-198.064-313.78l-18.627-7.768.82-10.868c.797-10.58 1.543-11.314 28.092-27.614 34.654-21.275 87.356-72.092 108.288-104.413 25.382-39.192 41.364-77.454 51.157-122.473 7.39-33.967 6.681-108.74-1.389-146.653-14.397-67.635-40.62-117.59-85.31-162.512-41.276-41.491-95.934-73.363-164.401-95.865-87.006-28.594-165.116-38.184-310.95-38.176-148.012.008-492.088 8.063-532.182 12.458l-14.388 1.577.69 742.932.69 742.933 165.748 1.535c270.63 2.508 434.148 1.161 472.836-3.893zm-211.698-311.459c-16.85-1.133-31.952-2.873-33.561-3.868-2.015-1.245-2.926-47.386-2.926-148.285v-146.478l7.535-2.888c4.919-1.886 35.585-2.497 88.353-1.762 72.367 1.007 83.096 1.749 102.578 7.087 51.06 13.992 86.78 40.133 105.242 77.02 36.129 72.183 9.924 157.25-59.879 194.38-46.35 24.654-105.05 31.673-207.342 24.794zm116.934-24.514c82.528-9.492 130.224-46.36 139.784-108.05 8.336-53.793-15.514-100.703-63.379-124.66-35.97-18.004-53.55-20.724-133.938-20.724h-69.86v252.048l28.765 1.519c50.244 2.652 74.704 2.619 98.628-.133zM1879.4 1166.75c-9.795-.584-20.582-1.694-23.972-2.468l-6.165-1.406V886.523l10.274-2.019c5.65-1.11 46.026-2.09 89.724-2.179 88.49-.178 96.925 1.009 135.01 18.996 22.367 10.563 45.789 31.875 55.109 50.143 13.74 26.933 17.387 62.142 10.031 96.845-12.434 58.665-56.528 97.072-128.92 112.293-24.788 5.213-101.03 8.534-141.091 6.147zm150.21-33.58c41.064-12.155 71.739-33.82 85.176-60.16 14.332-28.093 17.284-70.212 6.99-99.734-9.599-27.533-39.089-50.275-79.367-61.207-20.405-5.538-81.156-7.992-131.328-5.305l-37.16 1.99v232.864l67.806-1.253c59.241-1.095 70.342-2.004 87.884-7.196z"/><path fill="#f9c9ac" d="M15.361 2249.026c-.914-2.383-1.663-40.355-1.663-84.38 0-58.607.88-80.93 3.288-83.336 2.484-2.484 43.652-3.288 168.488-3.288 90.86 0 165.201-.926 165.201-2.06 0-1.132-5.69-5.077-12.644-8.766-44.068-23.378-88.189-72.007-110.55-121.846-11.269-25.116-23.333-64.255-29.197-94.719-4.606-23.935-5.076-47.996-5.847-299.408l-.838-273.381-6.237-2.371c-10.18-3.871-161.156-22.083-183.062-22.083-2.992 0-3.015-267.72-.023-269.57 4.937-3.05 119.557-12.523 225.114-18.603 63.145-3.637 362.444-4.955 370.538-1.631 4.531 1.86 4.794 21.746 4.794 363.185 0 248.349.93 366.25 2.978 377.324 4.387 23.733 12.536 39.004 25.326 47.46 9.816 6.49 13.667 7.3 34.666 7.3 21.956 0 25.161-.758 45.394-10.744 51.087-25.215 93.93-86.848 117.214-168.618 5.819-20.436 5.881-23.396 6.56-311.035.377-159.722 1.338-293.185 2.135-296.585l1.45-6.181 204.732.702 204.732.702 1.37 402.729 1.37 402.728 31.506 4.605c46.551 6.803 142.564 16.49 146.91 14.822 3.186-1.222 3.77-96.847 3.77-616.532V560.361l6.165-1.248c13.224-2.677 70.473-4.7 240.404-8.495 234.039-5.226 405.377-5.215 472.12.03 242.132 19.032 399.903 129.643 435.734 305.49 10.904 53.514 11.854 108.8 2.703 157.213-17.717 93.723-77.387 183.266-157.723 236.687-10.234 6.805-18.608 13.237-18.608 14.294 0 1.057 5.24 4.267 11.644 7.132 20.883 9.346 58.74 35.928 80.21 56.322 66.47 63.14 108.012 155.818 112.785 251.62 2.73 54.79-6.39 119.866-24.382 173.968-30.706 92.334-96.664 176.02-182.996 232.182-50.527 32.87-108.902 59.073-168.489 75.63-16.575 4.606-35.684 9.97-42.464 11.92-10.338 2.974 37 3.768 293.142 4.916l305.471 1.37.723 86.984.724 86.984H1408.512c-1266.328 0-1391.637-.39-1393.15-4.334zm247.273-38.778c12.088-8.972 13.987-16.022 14.03-52.09l.04-33.562h-13.698v31.328c0 17.23-1.144 34.339-2.544 38.019-4.522 11.896-28.06 15.312-36.412 5.284-2.255-2.708-3.998-16.547-4.878-38.737-1.319-33.239-1.6-34.556-7.534-35.4-6.124-.869-6.164-.64-6.164 35.111 0 42.958 2.215 48.925 20.547 55.356 9.196 3.227 28.978.358 36.613-5.31zm623.851 2.304c16.189-7.352 21.753-24.065 12.648-37.988-1.243-1.9-8.959-6.832-17.147-10.96-11.55-5.821-15.071-9.09-15.71-14.586-1.1-9.452 5.813-14.701 18.68-14.188 11.818.47 16.76-5.636 8.248-10.192-6.52-3.49-9.825-3.467-22.858.152-14.775 4.102-21.055 11.326-21.055 24.22 0 8.538 1.667 12.117 8.205 17.618 4.512 3.797 10.984 7.751 14.383 8.787 24.339 7.418 19.637 28.631-6.345 28.631-11.48 0-13.503.787-13.503 5.251 0 9.569 17.014 11.176 34.454 3.255zm866.995-.972c28.025-14.132 33.714-61.956 9.624-80.905-12.035-9.467-29.227-10.611-44.484-2.96-16.505 8.276-23.21 17.684-24.863 34.879-3.291 34.254 11.188 53.86 40.546 54.903 3.824.136 12.454-2.526 19.177-5.917zm-34.454-13.778c-13.671-11.759-13.722-44.2-.088-55.927 7.808-6.716 20.295-8.217 29.11-3.5 12.882 6.895 18.03 36.69 8.985 52.002-8.51 14.405-25.935 17.81-38.007 7.425zm157.684 15.493c16.617-6.649 19.128-13.802 19.128-54.507 0-34.286-.051-34.565-6.165-33.697-5.934.843-6.215 2.16-7.534 35.4-.88 22.19-2.623 36.028-4.878 38.736-8.351 10.028-31.89 6.612-36.412-5.284-1.4-3.68-2.544-20.789-2.544-38.019v-31.328h-13.698v36.376c0 40.371 1.877 46.048 17.474 52.836 11.451 4.984 21.255 4.839 34.629-.513zm250.504.009c3.673-1.41 4.313-5.363 3.658-22.606-.715-18.806-1.343-20.897-6.274-20.897-4.63 0-5.612 2.113-6.34 13.629-1.044 16.55-4.051 20.62-15.227 20.606-29.038-.035-42.42-38.275-20.681-59.097 7.63-7.31 10.096-8.023 28.047-8.121 17.53-.096 19.68-.681 19.68-5.357 0-7.559-17.706-10.901-36.317-6.855-26.603 5.784-41.894 28.83-37.697 56.817 3.478 23.193 25.254 37.692 52.55 34.99 7.782-.77 16.153-2.17 18.601-3.11zm109.98-.78c16.727-7.596 24.093-19.683 25.163-41.292 1.007-20.341-3.952-32.96-16.6-42.233-10.255-7.522-32.953-7.587-45.93-.132-18.465 10.607-27.437 42.872-18.074 64.994 9.028 21.33 32.313 29.168 55.442 18.664zm-33.414-14.862c-6.018-5.176-7.667-9.324-8.71-21.904-1.563-18.85 2.834-30.79 13.337-36.223 11.894-6.15 21.159-4.91 30.097 4.028 6.92 6.92 8.009 10.067 8.009 23.159 0 18.472-4.132 28.268-14.096 33.42-10.875 5.624-20.149 4.821-28.637-2.48zm172.633 15.684c3.417-1.312 4.343-5.948 4.343-21.76 0-20.55-1.69-24.438-9.342-21.501-3.222 1.236-4.357 5.443-4.357 16.154 0 15.546-2.038 17.817-15.977 17.797-28.275-.04-40.152-39.708-18.092-60.426 6.15-5.775 9.791-6.7 26.758-6.792 17.49-.096 19.64-.682 19.64-5.357 0-7.581-17.71-10.9-36.436-6.829-31.728 6.9-47.014 41.17-31.845 71.395 4.583 9.131 9.716 13.253 22.366 17.956 9.828 3.655 32.638 3.316 42.942-.638zM345.196 2184.64c0-18.969 1.025-30.021 2.732-29.45 1.502.501 10.44 13.857 19.862 29.679 16.491 27.692 17.514 28.798 27.404 29.616l10.274.85v-91.12l-6.164.876c-5.9.838-6.198 2.142-6.942 30.326-.428 16.199-1.814 29.452-3.08 29.452-1.267 0-10.065-13.562-19.552-30.136-17.232-30.106-17.26-30.137-27.741-30.137h-10.491V2215.005h13.698zm130.133-14.84v-43.834h-13.698l-.761 40.975c-.42 22.536-.117 42.656.672 44.711.789 2.055 4.214 3.342 7.61 2.86 6.116-.868 6.177-1.314 6.177-44.711zm96.229 35.223c2.293-5.49 9.51-25.3 16.035-44.021 9.465-27.155 11.087-34.338 8.018-35.516-7.758-2.977-10.911 1.79-21.384 32.327-5.878 17.14-11.54 32.142-12.581 33.336-3.445 3.949-7.583-4.567-17.03-35.047-8.652-27.91-9.886-30.2-16.712-31.003-4.708-.553-7.37.437-7.37 2.74 0 3.586 26.274 80.395 29.02 84.838.792 1.28 5.128 2.328 9.636 2.328 6.84 0 8.888-1.653 12.368-9.982zm118.834 4.64c0-4.583-2.242-5.46-15.753-6.165l-15.753-.822v-27.396l14.383-.828c12.001-.691 14.383-1.688 14.383-6.021s-2.382-5.33-14.383-6.021l-14.383-.828v-24.657l15.753-.822c13.511-.704 15.753-1.582 15.753-6.164 0-4.878-2.025-5.343-23.287-5.343h-23.287V2215.005h23.287c21.262 0 23.287-.465 23.287-5.343zm63.56-10.195c.465-8.794 2.218-15.997 4.04-16.597 1.769-.583 8.484 6.408 14.922 15.537 9.571 13.572 13.104 16.597 19.384 16.597 4.224 0 7.68-.711 7.68-1.58 0-.87-4.932-8.467-10.959-16.884-6.027-8.417-10.958-16.419-10.958-17.782 0-1.362 4.314-6.547 9.588-11.52 12.132-11.442 13.255-25.527 2.864-35.918-6.025-6.025-9.016-6.725-28.766-6.725h-22.042V2215.005h6.713c6.238 0 6.77-1.099 7.534-15.537zm1.115-38.11c-.915-2.384-1.663-7.214-1.663-10.735 0-11.642 2.855-15.068 12.558-15.068 11.844 0 19.058 9.448 15.12 19.804-4.003 10.532-22.628 14.826-26.015 5.999zm209.29 8.252v-45.395l-6.165.876c-6.067.862-6.176 1.573-6.917 45.395l-.752 44.519h13.834zm84.929 8.958c0-40.146 1.04-43.013 15.616-43.013 7.214 0 9.04-1.107 9.04-5.48 0-5.16-1.826-5.479-31.505-5.479-29.68 0-31.506.318-31.506 5.48 0 4.372 1.826 5.479 9.04 5.479 14.576 0 15.617 2.867 15.617 43.013v36.437h13.698zm115.065 30.958c0-4.719-1.826-5.48-13.15-5.48-15.397 0-19.726-3.353-19.726-15.28 0-11.092 3.978-14.267 19.232-15.352 8.696-.62 12.274-2.072 12.274-4.983 0-2.912-3.578-4.364-12.274-4.983-14.8-1.053-19.232-4.275-19.232-13.982 0-10.535 4.787-13.911 19.726-13.911 11.324 0 13.15-.761 13.15-5.48 0-5.049-1.826-5.479-23.287-5.479h-23.287V2215.005h23.287c21.46 0 23.287-.43 23.287-5.48zm182.673-1.657c13.078-9.75 18.707-22.3 18.491-41.228-.218-19.14-4.848-28.367-18.441-36.742-7.227-4.452-12.819-5.266-32.042-4.663l-23.287.73-.762 40.975c-.418 22.536-.1 42.695.707 44.8 2.477 6.455 45.523 3.443 55.334-3.872zm-39.025-7.423c-.76-1.98-1.03-17.083-.6-33.561l.784-29.96 11.268-.824c8.876-.65 13.06.684 19.712 6.281 16.104 13.551 14.289 45.734-3.181 56.387-9.89 6.03-25.943 6.993-27.983 1.677zm152.234 9.216c0-4.582-2.241-5.46-15.753-6.164l-15.753-.822v-27.396l14.383-.828c12.002-.691 14.384-1.688 14.384-6.021s-2.382-5.33-14.384-6.021l-14.383-.828v-24.657l15.753-.822c13.512-.704 15.753-1.582 15.753-6.164 0-4.878-2.025-5.343-23.287-5.343h-23.287V2215.005h23.287c21.262 0 23.287-.465 23.287-5.343zm179.647-3.2c9.56-9.56 10.167-24.345 1.385-33.693l-6.346-6.755 5.805-7.38c7.654-9.73 7.34-19.054-.92-27.313-6.09-6.09-8.931-6.725-30.135-6.725h-23.412v90.971l23.226-.966c20.729-.862 23.997-1.737 30.397-8.138zm-38.262-6.75c-.914-2.383-1.663-7.213-1.663-10.734 0-11.664 2.852-15.068 12.622-15.068 9.813 0 20.254 7.768 20.254 15.068 0 12-27.145 21.336-31.213 10.735zm-.538-43.61c-.945-3.767-.945-9.93 0-13.698 1.455-5.795 3.314-6.849 12.078-6.849 11.7 0 16.934 3.848 16.934 12.452 0 8.2-8.42 14.945-18.657 14.945-6.926 0-8.976-1.356-10.355-6.85zm365.988 42.264c0-20.894 3.82-20.853 18.455.2 7.69 11.064 12.454 15.3 17.926 15.936 10.238 1.19 9.49-3.151-3.505-20.363-6.027-7.983-10.958-15.769-10.958-17.301 0-1.533 3.458-4.576 7.685-6.762 8.073-4.174 14.232-14.518 14.232-23.902 0-3.059-3.604-9.165-8.008-13.57-7.442-7.441-9.476-8.008-28.767-8.008h-20.758V2215.005h6.85c6.553 0 6.848-.717 6.848-16.639zm1.102-36.496c-.807-2.102-1.076-8.574-.6-14.383.79-9.604 1.645-10.638 9.428-11.395 15.32-1.49 23.535 15.04 12.457 25.065-6.102 5.522-19.27 5.963-21.285.713zm478.337 22.999c0-17.338 1.112-30.136 2.619-30.136 1.44 0 7.745 8.938 14.01 19.862 22.347 38.962 23.569 40.41 34.094 40.41h9.55v-90.79l-6.165.876c-5.86.832-6.231 2.34-7.534 30.631-1.607 34.92-1.31 34.99-24.576-5.784-14.331-25.116-14.555-25.342-25.078-25.342h-10.618V2215.005h13.699zm167.119 24.657c0-4.719-1.827-5.48-13.15-5.48-15.397 0-19.726-3.353-19.726-15.28 0-11.092 3.978-14.267 19.231-15.352 8.696-.62 12.275-2.072 12.275-4.983 0-2.988-3.725-4.345-13.645-4.97-14.658-.925-17.754-3.417-17.82-14.345-.06-10.169 4.864-13.561 19.684-13.561 11.324 0 13.15-.761 13.15-5.48 0-5.049-1.826-5.479-23.286-5.479h-23.287V2215.005h23.287c21.46 0 23.287-.43 23.287-5.48zm-1465.577-102.808c8.333-4.308 10.116-7.938 5.35-10.884-3.653-2.258-19.184 7.09-19.184 11.545 0 4.633 3.965 4.443 13.834-.66zm-276.536-75.27c.921-24.862 2.607-54.758 3.747-66.436 1.147-11.76 1.011-21.224-.305-21.214-1.307.011-5.26 4.252-8.782 9.426-10.625 15.602-51.933 55.518-76.663 74.078-12.782 9.593-36.614 24.39-52.96 32.884-16.346 8.493-29.72 15.999-29.72 16.68 0 .68 36.677.911 81.504.512l81.505-.725zm1146.464 41.179c158.73-7.448 287.08-43.694 383.263-108.236 54.479-36.556 90.672-72.376 123.848-122.57 41.227-62.374 63.452-130.103 69.21-210.915 7.678-107.756-24.373-202.548-92.736-274.273-28.07-29.45-50.872-46.232-85.191-62.7-15.822-7.592-30.616-14.706-32.876-15.807-4.482-2.185-6.797-16.13-3.453-20.796 1.146-1.599 10.097-7.668 19.891-13.487 89.239-53.017 151.074-141.712 168.512-241.709 9.318-53.433 2.857-131.421-15.16-182.986-51.071-146.162-191.427-229.015-420.468-248.205-66.717-5.59-500.023-.215-643.817 7.986l-32.876 1.875v1487.63l239.72 2.931c131.845 1.613 246.5 3.108 254.787 3.323 8.287.215 38.593-.712 67.346-2.061zm-110.647-318.115c-32.05-1.335-51.579-3.274-54.108-5.373-3.36-2.788-3.959-25.164-3.959-147.99 0-110.049.792-145.193 3.307-146.747 1.818-1.124 33.564-2.544 70.546-3.155 74.618-1.234 108.07 2.093 142.925 14.215 50.706 17.633 84.853 52.071 97.042 97.866 5.284 19.851 5.082 60.643-.39 79.278-17.076 58.133-68.092 97.944-139.526 108.88-29.297 4.485-60.926 5.312-115.837 3.026zm131.673-29.43c69.767-18.842 106.143-61.655 106.143-124.927 0-16.82-5.994-41.261-13.935-56.828-13.602-26.662-48.503-50.7-88.802-61.164-25.979-6.745-82.88-10.143-128.764-7.69l-41.094 2.196-.761 120.545c-.418 66.3-.102 123.257.703 126.572 1.857 7.65 12.158 8.537 89.096 7.669 47.057-.531 59.608-1.564 77.414-6.373zm-181.52-561.682l-6.85-2.037V887.712l13.699-2.227c7.534-1.224 46.985-2.424 87.668-2.666 68.054-.403 75.646.031 94.911 5.431 83.435 23.388 119.892 83.336 100.433 165.143-8.688 36.523-37.763 71.313-74.274 88.875-37.837 18.198-57.333 21.363-137.508 22.32-39.177.467-74.313-.067-78.08-1.188zm134.314-22.398c48.895-5.898 84.335-21.271 108.027-46.862 21.805-23.552 27.209-39.434 27.378-80.471.123-29.624-.535-34.231-6.648-46.575-14.113-28.498-42.934-47.99-84.994-57.484-16.306-3.68-32.99-4.555-80.82-4.236-33.15.222-65.204 1.275-71.23 2.341l-10.96 1.939-.72 113.65c-.663 104.41-.342 113.927 3.948 117.073 5.845 4.288 82.24 4.699 116.02.625z"/><path fill="#f8b58e" d="M16.438 2167.061v-86.299l166.434-.042c92.362-.025 168.146-1.126 170.282-2.478 2.886-1.828.487-4.143-9.589-9.255-34.34-17.423-68.698-49.01-92.946-85.453-25.002-37.575-40.526-78.244-51.24-134.239-5.58-29.156-5.81-39.297-6.835-301.843-.908-232.669-1.624-271.889-4.987-273.18-6.831-2.62-80.277-12.197-128.655-16.774-25.615-2.424-49.347-4.98-52.738-5.68L0 1250.544V985.007l6.164-1.287c16.994-3.547 148.477-13.385 245.884-18.397 94.305-4.853 340.251-4.839 346.106.022 4.091 3.395 4.536 35.467 5.206 375.324l.733 371.61 6.51 14.403c16.586 36.695 54.504 45.262 100.336 22.67 55.381-27.3 99.526-93.027 121.11-180.322 4.039-16.337 4.72-50.964 6.1-310.163l1.554-291.773h405.468l1.37 401.816c.753 220.999 2.05 402.497 2.884 403.33 3.644 3.643 143.684 20.859 169.68 20.859h13.732v-614.89c0-387.028.968-615.488 2.612-616.504 16.242-10.038 644.133-18.822 726.135-10.159 177.79 18.784 305.628 81.691 374.013 184.048 38.504 57.631 55.262 113.553 57.882 193.145 1.812 55.075-2.187 85.542-17.06 129.993-25.408 75.929-79.342 147.175-143.57 189.655-12.076 7.988-21.943 15.155-21.925 15.926.02.772 10.256 6.723 22.751 13.226 91.605 47.67 159.645 145.363 178.456 256.23 5.786 34.103 5.875 98.268.19 136.538-23.673 159.368-120.265 283.71-276.013 355.316-31.799 14.619-86.624 33.377-125.286 42.864-22.646 5.557-29.89 8.284-26.027 9.795 2.945 1.152 142.508 2.182 310.14 2.287l304.787.193v172.598H16.438zm245.709 45.34c13.708-8.358 15.552-14.431 15.75-51.856.15-28.782-.513-34.354-4.387-36.827-3.337-2.13-5.732-1.945-8.904.688-3.53 2.929-4.34 9.9-4.34 37.356 0 31.775-.356 34.005-6.088 38.02-8.717 6.105-22.17 5.398-28.417-1.494-4.405-4.86-5.359-10.949-6.113-39.04-.492-18.305-1.909-34.329-3.149-35.609-1.24-1.28-4.845-1.505-8.01-.5-5.432 1.724-5.755 3.698-5.75 35.203.005 48.252 6.88 59.286 36.98 59.352 8.787.02 16.829-1.878 22.428-5.292zm82.471-23.425c.436-15.034 1.851-28.394 3.146-29.689 1.313-1.312 7.465 6.554 13.904 17.778 21.532 37.534 24.033 40.68 32.333 40.68 13.247 0 14.207-3.254 14.207-48.157 0-33.46-.796-42.241-4.075-44.963-2.24-1.86-5.94-2.666-8.219-1.79-3.316 1.272-4.144 7.05-4.144 28.91 0 15.027-1.089 27.994-2.42 28.817-1.33.822-8.917-9.892-16.86-23.81-17.961-31.48-20.888-34.895-29.91-34.895-12.812 0-13.822 3.502-13.822 47.944 0 42.28 1.57 49.091 10.902 47.307 3.332-.637 4.325-6.271 4.958-28.132zm131.466-17.598c.42-25.042-.368-46.121-1.779-47.532-1.393-1.393-5.123-1.712-8.289-.707-5.536 1.757-5.755 3.521-5.755 46.39 0 24.51.874 45.437 1.942 46.505 1.068 1.068 4.459 1.581 7.534 1.141 5.335-.763 5.627-2.873 6.347-45.797zm92.969 42.942c1.439-1.884 9.144-22.315 17.122-45.403 14.829-42.91 15.315-49.647 3.312-45.837-4.224 1.34-8.094 9.345-16.029 33.148-5.753 17.26-11.693 31.689-13.2 32.065-1.506.377-7.365-12.753-13.02-29.178-5.654-16.425-11.66-31.527-13.348-33.56-3.496-4.213-12.27-4.935-14.577-1.2-2.084 3.372 27.911 88.505 32.128 91.185 5.129 3.258 14.697 2.596 17.612-1.22zm121.339-.685c5.782-6.967-1.432-12.328-16.589-12.328-10.925 0-13.486-.971-14.98-5.677-.991-3.123-1.05-8.67-.132-12.329 1.41-5.62 3.326-6.651 12.351-6.651 14.217 0 19.35-2.258 19.35-8.512 0-4.238-2.037-5.186-11.139-5.186-14.517 0-21.737-4.062-21.737-12.23 0-9.986 7.03-15.167 20.581-15.167 13.032 0 17.38-3.462 12.195-9.709-2.304-2.776-8.97-3.99-21.929-3.99-29.133 0-27.285-3.252-27.285 48.01 0 33.182.881 45.038 3.425 46.064 1.883.76 12.211 1.48 22.951 1.598 14.22.158 20.454-.9 22.938-3.893zm61.418 2.447c3.21-1.232 4.333-5.493 4.333-16.438 0-18.519 4.078-19.152 14.731-2.29 4.335 6.862 9.663 14.257 11.84 16.433 4.313 4.313 16.074 5.36 18.376 1.634.79-1.277-4.069-9.888-10.797-19.134-6.728-9.246-12.232-18.032-12.232-19.524 0-1.492 3.564-4.556 7.921-6.809 16.01-8.278 16.737-34.547 1.188-42.879-4.235-2.27-15.165-3.848-26.639-3.848h-19.456l-.757 43.724c-.417 24.048-.147 45.315.599 47.259 1.495 3.897 4.341 4.386 10.893 1.872zm6.16-52.217c-1.005-1.005-1.827-7.208-1.827-13.784 0-13.99 5.146-17.639 16.183-11.473 9.59 5.358 10.88 16.869 2.542 22.709-6.524 4.569-13.782 5.664-16.898 2.548zm129.646 49.786c10.96-5.668 16.468-14.5 16.468-26.409 0-7.92-1.822-11.638-8.429-17.198-4.636-3.9-10.017-7.092-11.959-7.092-5.959 0-17.967-11.055-17.967-16.54 0-6.876 8.042-10.857 21.928-10.857 10.182 0 11.24-.624 10.454-6.164-.757-5.33-2.744-6.274-14.672-6.972-10.776-.631-15.854.58-23.198 5.529-19.665 13.252-16.709 34.046 6.536 45.98 7.357 3.778 15.153 9.544 17.324 12.813 3.563 5.366 3.363 6.53-2.053 11.945-4.932 4.932-8.177 5.755-18.215 4.624-12.74-1.436-16.86 1.703-13.55 10.325 2.112 5.506 26.695 5.517 37.333.016zm76.193.806c5.245-5.245 4.542-85.409-.787-89.832-2.241-1.86-5.94-2.666-8.22-1.79-3.465 1.329-4.144 8.93-4.144 46.423 0 24.659.822 45.656 1.827 46.66 2.806 2.806 7.686 2.176 11.324-1.461zm84.929 0c2.227-2.227 3.287-15.038 3.287-39.725v-36.437h9.254c11.36 0 17.74-6.212 12.664-12.329-2.626-3.164-9.875-4.11-31.506-4.11-21.632 0-28.88.946-31.506 4.11-5.077 6.117 1.304 12.329 12.664 12.329h9.253v36.437c0 35.774 1.614 43.013 9.589 43.013 1.657 0 4.493-1.48 6.3-3.288zm114.02 1.625c2.383-.915 4.333-3.865 4.333-6.556 0-6.117-5.314-8.22-20.772-8.22h-12.104v-24.656h10.734c14.27 0 19.402-2.252 19.402-8.512 0-4.206-2.029-5.186-10.734-5.186-16.582 0-19.402-1.992-19.402-13.699 0-11.893 2.736-13.698 20.771-13.698 10.05 0 12.105-.88 12.105-5.186 0-2.853-1.95-5.935-4.334-6.85-7.823-3.001-41.02-1.787-44.432 1.625-4.596 4.596-4.596 84.717 0 89.313 3.413 3.413 36.61 4.626 44.432 1.625zm181.04-5.383c29.05-14.847 31.63-65.968 4.132-81.854-7.523-4.346-14.546-5.537-32.876-5.573l-23.31-.045-.757 43.724c-.416 24.048-.095 45.45.714 47.557 2.268 5.91 38.225 3.281 52.097-3.809zm-33.698-9.94c-2.15-2.15-3.287-13.504-3.287-32.824 0-29.05.11-29.564 6.703-31.218 10.486-2.632 25.718 3.71 30.33 12.628 5.444 10.528 5.223 32.646-.406 40.683-4.35 6.21-19.057 14.018-26.402 14.018-2.008 0-5.13-1.48-6.938-3.287zm150.133 12.876c5.782-6.967-1.432-12.328-16.588-12.328-10.926 0-13.487-.971-14.98-5.677-.991-3.123-1.051-8.67-.133-12.329 1.41-5.62 3.327-6.651 12.352-6.651 14.217 0 19.35-2.258 19.35-8.512 0-4.238-2.037-5.186-11.14-5.186-14.517 0-21.737-4.062-21.737-12.23 0-9.986 7.03-15.167 20.582-15.167 13.031 0 17.38-3.462 12.195-9.709-4.187-5.045-41.02-5.608-45.927-.702-4.751 4.752-4.624 88.865.137 90.786 1.884.76 12.212 1.48 22.952 1.598 14.22.158 20.454-.9 22.937-3.893zm174.141-2.12c14.874-7.692 19.312-26.352 8.92-37.506-5.74-6.16-5.793-6.728-1.37-14.436 9.763-17.01 3.141-32.952-15.104-36.365-4.981-.932-15.838-1.309-24.125-.838l-15.068.857-.757 43.724c-.417 24.048-.085 45.479.738 47.623 1.99 5.184 35.003 3.023 46.766-3.06zm-30.578-11.29c-.806-2.102-1.076-8.574-.599-14.383.824-10.03 1.32-10.541 9.847-10.15 11.146.512 17.048 5.174 17.048 13.466 0 11.296-22.564 20.792-26.296 11.067zm-.01-41.122c-.813-2.117-1.082-7.973-.6-13.013.765-7.98 1.959-9.27 9.237-9.983 17-1.663 23.312 18.314 7.666 24.262-9.507 3.615-14.582 3.22-16.304-1.266zm152.357 52.477c18.97-12.911 26.902-33.109 21.851-55.646-3.668-16.369-9.185-24.41-20.399-29.732-21.642-10.27-49.484-1.498-60.123 18.942-7.159 13.752-7.448 39.707-.59 52.86 10.177 19.516 40.37 26.434 59.26 13.576zm-30.607-10.665c-17.104-6.2-21.444-41.98-6.86-56.563 15.306-15.306 38.247-5.74 41.717 17.397 4.015 26.777-13.803 46.799-34.857 39.166zm156.883 10.57c12.517-8.416 15.819-19.63 16.003-54.362.12-22.569-.762-29.876-3.92-32.498-9.534-7.912-11.872-1.754-12.821 33.765-1.051 39.36-3.945 45.656-20.983 45.656-17.523 0-19.653-4.613-19.653-42.553 0-27.21-.814-34.16-4.34-37.087-3.158-2.621-5.581-2.814-8.903-.708-3.842 2.435-4.565 8.052-4.565 35.456 0 17.91.958 35.992 2.128 40.183 4.935 17.668 38.284 24.77 57.054 12.148zm84.01-6.092c.401-6.014 1.376-13.818 2.167-17.342 1.835-8.177 5.847-5.137 17.8 13.49 8.764 13.658 19.43 19.636 25.036 14.03 1.997-1.997-.559-7.752-8.42-18.959-6.207-8.85-11.287-17.045-11.287-18.21 0-1.166 4.315-6.19 9.589-11.164 10.191-9.611 12.55-21.031 6.629-32.095-4.1-7.66-18.955-13.286-35.083-13.286-23.325 0-22.23-2.367-22.23 48.008 0 45.775.59 48.306 10.96 46.987 2.733-.348 4.353-4.183 4.839-11.459zm3.927-42.99c-1.808-1.808-3.288-7.109-3.288-11.78 0-9.568 4.2-15.068 11.507-15.068 5.983 0 15.89 9.394 15.89 15.068 0 5.674-9.907 15.068-15.89 15.068-2.712 0-6.41-1.48-8.219-3.287zm159.497 50.049c3.624-3.008 4.394-7.761 3.76-23.217-.775-18.939-.988-19.456-8.33-20.301-7.329-.844-7.534-.495-7.534 12.817 0 17.662-5.18 23.423-18.914 21.032-5.852-1.02-12.911-5.022-17.386-9.858-6.265-6.771-7.534-10.61-7.534-22.798 0-25.052 14.925-36.115 44.067-32.664 12.99 1.539 13.465 1.351 13.465-5.316 0-8.01-5.422-10.196-25.43-10.253-30.911-.088-51.28 20.389-51.28 51.552 0 28.872 19.792 45.383 52.402 43.716 10.096-.516 20.18-2.608 22.714-4.71zm112.308-.917c14.837-8.472 22.174-23.432 21.948-44.75-.213-20.088-6.516-32.457-20.293-39.824-26.818-14.34-58.998 1.645-65.994 32.779-2.879 12.814.6 33.407 7.407 43.84 9.467 14.511 38.377 18.55 56.932 7.955zm-29.894-10.02c-10.472-4.398-15.959-13.515-17.053-28.332-3.184-43.102 46.5-50.987 50.627-8.035 1.288 13.404-2.931 26.178-10.807 32.713-5.389 4.473-16.553 6.265-22.767 3.654zm166.894 10.937c3.624-3.008 4.394-7.761 3.76-23.217-.765-18.691-1.058-19.434-7.645-19.434-6.33 0-6.912 1.09-7.676 14.363-1.03 17.886-6.665 22.199-22.717 17.39-14.223-4.262-21.66-14.397-21.66-29.52 0-25.141 12.11-35.525 40.16-34.433 16.66.648 17.373.409 17.373-5.845 0-16.883-47.747-11.833-64.885 6.862-19.8 21.601-13.965 60.938 10.916 73.577 9.098 4.622 15.301 5.656 29.66 4.942 10.134-.504 20.17-2.575 22.714-4.685zm67.346-24.873c.754-15.805 2.385-28.737 3.625-28.737 1.24 0 9.91 12.936 19.265 28.746 17.152 28.984 20.819 32.157 33.49 28.977l6.632-1.665v-44.967c0-42.494-.3-45.063-5.455-46.699-9.5-3.015-10.983.867-10.983 28.759 0 14.89-1.1 27.753-2.443 28.583-1.344.83-8.883-9.884-16.753-23.81-17.591-31.128-20.84-34.91-29.994-34.91-12.812 0-13.822 3.503-13.822 47.945 0 42.279 1.57 49.088 10.902 47.31 3.306-.63 4.45-6.729 5.536-29.532zm167.119 27.462c3.174-2.024 3.422-3.728 1.087-7.492-2.126-3.429-7.2-5.118-17.122-5.7l-14.101-.829v-24.37h10.734c14.27 0 19.402-2.252 19.402-8.512 0-4.206-2.029-5.186-10.735-5.186-16.581 0-19.401-1.992-19.401-13.699 0-11.72 2.815-13.698 19.487-13.698 11.501 0 17.614-6.602 10.363-11.193-5.79-3.666-41.91-3.048-45.74.782-2.267 2.267-3.288 16.134-3.288 44.657 0 28.522 1.02 42.39 3.288 44.656 3.942 3.942 40.04 4.4 46.026.584zm-1465.693-106.892c10.903-5.563 12.756-13.704 3.112-13.675-6.69.02-20.801 12.215-18.48 15.97 2.572 4.162 2.767 4.133 15.368-2.295zm-280.627-29.484c1.77-1.209 4.275-26.076 6.273-62.285 1.829-33.15 4.037-63.662 4.906-67.806 2.54-12.105-2.794-8.904-19.797 11.878-33.522 40.974-85.375 81.416-134.75 105.094-14.588 6.997-21.342 11.574-19.14 12.972 4.296 2.728 158.525 2.868 162.508.147zm1224.416-9.785c137.399-17.069 239.295-52.624 326.019-113.76 32.508-22.916 84.233-75.884 106.082-108.631 40.191-60.237 62.338-123.182 70.954-201.665 3.727-33.951 1.705-88.892-4.325-117.471-22.483-106.573-87.652-194.52-174.081-234.925-14.315-6.692-27.876-13.099-30.136-14.238-2.26-1.138-4.486-6.47-4.947-11.846-.803-9.38-.14-10.182 16.438-19.84 115.897-67.517 184.113-192.574 176.322-323.244-5.555-93.156-35.906-164.922-94.49-223.421-79.013-78.897-201.05-121.782-374.876-131.735-79.156-4.532-512.076 2.483-624.586 10.121l-25.342 1.72v744.93c0 409.71.308 745.116.685 745.345.377.23 82.669 1.285 182.871 2.346 255.02 2.7 412.303 1.42 453.412-3.686zm-210.497-316.823c-18.712-1.28-27.696-3.034-29.41-5.742-3.351-5.296-3.233-282.13.124-287.453 2.104-3.337 12.784-4.4 56.805-5.65 117.444-3.338 170.905 8.022 213.628 45.396 45.065 39.422 57.374 110.175 29.343 168.666-21.082 43.99-66.627 72.952-131.223 83.443-25.653 4.166-89.047 4.777-139.267 1.34zm116.507-19.273c48.116-4.563 86.942-19.437 112.055-42.927 26.66-24.937 36.527-51.84 34.922-95.211-.915-24.711-2.035-29.923-9.842-45.78-16.754-34.032-51.205-58.18-99.307-69.611-15.664-3.722-36.022-5.166-85.66-6.075-35.812-.655-68.174-.423-71.916.516l-6.803 1.708v127.341c0 70.038.308 127.488.685 127.666.656.31 62.853 3.712 85.614 4.683 6.027.257 24.14-.782 40.252-2.31zm-127.921-568.863c-8.388-.722-15.026-2.93-17.123-5.694-5.306-6.993-4.929-260.629.398-267.914 3.62-4.951 8.441-5.232 91.094-5.318 76.381-.079 89.492.535 105.078 4.917 66.724 18.76 101.318 60.557 101.294 122.387-.03 77.866-46.329 129.1-132.8 146.954-19.103 3.944-119.536 7.113-147.941 4.668zm157.952-27.749c68.615-18.684 101.261-57.942 101.87-122.503.233-24.591-.539-29.146-7.537-44.477-8.565-18.765-26.648-37.714-44.852-47-6.13-3.129-20.792-8.483-32.58-11.899-19.813-5.741-26.608-6.199-89.924-6.055-37.67.085-71.882 1.033-76.025 2.107l-7.534 1.951v115.927c0 63.76.924 116.864 2.054 118.01 1.13 1.146 31.643 1.536 67.807.866 55.53-1.027 69.011-2.104 86.72-6.927z"/><path fill="#f59359" d="M17.084 2167.746l.724-85.614 170.543-.706c108.123-.447 170.543-1.68 170.543-3.369 0-1.464-5.24-5.327-11.643-8.584-62.08-31.567-109.589-91.567-133.235-168.269-18.253-59.21-17.544-46.353-19.286-349.653-.872-151.686-2.341-276.548-3.266-277.472-3.156-3.153-109.3-16.932-170.232-22.098L0 1250.18V985.54l17.123-1.755c135.73-13.91 246.318-18.99 418.481-19.223 85.135-.114 156.948.678 159.585 1.76 4.531 1.861 4.797 21.764 4.842 363.004.052 394.813-.237 387.289 15.727 410.349 4.172 6.027 13.117 13.82 19.877 17.318 18.589 9.618 46.971 7.535 74.327-5.456 57.373-27.247 108.131-104.4 124.114-188.654 3.675-19.37 4.263-61.075 4.299-305.004.022-155.412 1.025-284.116 2.227-286.01 1.729-2.722 44.237-3.295 203.377-2.739l201.192.703.694 401.862c.656 379.714.957 401.941 5.48 403.298 14.842 4.457 130.473 17.886 162.314 18.852l20.548.623 1.37-616.422 1.37-616.42 31.505-1.862c102.097-6.03 309.584-11.024 473.96-11.407 195.184-.454 203.474-.058 281.645 13.453 200.703 34.689 328.49 139.231 360.55 294.965 23.062 112.022.325 220.227-64.296 305.984-20.683 27.449-64.71 69.23-89.724 85.149-10.656 6.78-19.442 14.177-19.524 16.437-.086 2.353 5.035 6.242 11.981 9.099 22.146 9.106 62.659 38.167 86.367 61.953 78.443 78.699 116.312 190.597 104.388 308.453-16.248 160.59-98.808 283.598-244.002 363.54-41.365 22.774-114.095 49.388-170.543 62.407-14.692 3.388-26.712 7.236-26.712 8.55 0 1.343 137.19 2.696 313.005 3.087l313.005.697.724 85.614.724 85.614H16.36zm242.6 47.286c17.146-7.781 20.113-16.818 19.159-58.356l-.769-33.45H261.637l-1.37 34.246c-.754 18.835-2.414 35.863-3.691 37.84-6.846 10.6-30.656 8.326-33.322-3.183-.75-3.24-1.668-20.068-2.038-37.396l-.674-31.506-8.904-.859-8.904-.858v39.529c0 35.782.536 40.21 5.652 46.714 10.047 12.773 32.252 15.924 51.299 7.28zm622.687 2.701c12.684-3.523 21.522-13.122 23.542-25.57 2.2-13.556-4.005-22.172-22.498-31.242-11.69-5.733-14.946-8.712-14.946-13.676 0-7.35 8.915-11.845 19.483-9.824 13.008 2.486 17.248-13.102 4.65-17.1-3.023-.96-11.123-.901-18 .13-17.04 2.555-28.05 13.539-28.05 27.982 0 13.942 4.828 20.213 21.618 28.077 23.832 11.162 21.553 24.797-4.146 24.797-14.461 0-14.733.147-14.733 8.018 0 8.303 2.925 10.23 16.438 10.826 3.767.166 11.256-.921 16.642-2.418zm867.568-1.463c5.547-2.317 12.462-6.324 15.367-8.904 13.096-11.629 19.415-41.826 12.552-59.99-10.549-27.92-47.396-36.504-70.316-16.38-12.448 10.93-17.178 22.375-17.178 41.565 0 21.19 7.808 35.8 22.763 42.59 14.005 6.358 23.576 6.65 36.812 1.12zm-30.933-21.688c-5.676-5.675-6.725-9.342-6.725-23.498 0-14.886.901-17.674 8.008-24.781 18.284-18.284 38.566-5.19 38.566 24.898 0 11.92-1.233 15.323-8.008 22.097-10.218 10.218-22.415 10.71-31.841 1.284zm157.56 22.323c5.424-1.868 12.176-7.26 15.752-12.579 5.745-8.545 6.26-12.326 6.26-46.063v-36.753l-8.905.858-8.904.859-.764 34.577c-.853 38.591-3.468 44.416-19.949 44.416-15.145 0-17.49-5.445-19.011-44.15l-1.37-34.843H1823.237l-.717 36.985c-.635 32.785-.103 37.984 4.69 45.784 8.057 13.111 29.317 17.81 49.355 10.909zm252.43-2.054c4.419-2.365 5.191-5.98 5.191-24.306 0-22.756-2.544-27.024-13.952-23.404-3.882 1.233-5.138 4.969-5.778 17.185-.78 14.91-1.168 15.65-8.646 16.506-17.486 2-31.911-12.226-31.886-31.445.014-10.649 9.343-25.124 18.484-28.68 4.187-1.63 14.455-2.234 23.12-1.361 13.982 1.408 15.768.998 17.349-3.982 2.473-7.79-2.471-12.535-15.18-14.568-14.896-2.381-31.394.643-41.813 7.664-34.36 23.156-29.25 78.375 8.223 88.86 11.507 3.22 36.865 1.825 44.888-2.47zm103.94 2.905c11.016-3.06 25.522-16.801 29.847-28.271 4.666-12.379 3.478-34.583-2.514-46.96-12.246-25.299-45.295-30.226-68.991-10.287-24.634 20.728-20.692 68.966 6.745 82.547 12.767 6.32 20.492 6.977 34.913 2.971zm-25.016-19.961c-7.42-5.697-10.721-14.748-10.721-29.395 0-11.92 1.233-15.322 8.008-22.097 10.481-10.481 22.57-10.77 31.848-.76 5.561 6.002 6.718 10.048 6.718 23.499 0 14.306-.957 17.206-8.008 24.256-8.566 8.566-20.115 10.431-27.845 4.497zm160.434 20.035c14.16-3.283 17.88-8.862 17.88-26.816 0-16.982-3.53-25.323-10.719-25.323-7.604 0-10.756 5.55-11.707 20.617-.852 13.493-.959 13.637-10.754 14.456-21.037 1.76-35.256-22.265-26.12-44.132 5.843-13.984 17.77-19.45 37.858-17.35 15.383 1.608 15.938 1.437 17.664-5.437 2.13-8.491-1.223-11.135-17.189-13.55-22.538-3.409-48.596 9.031-57.787 27.588-8.898 17.966-5.359 45.19 7.474 57.485 13.605 13.035 32.206 17.376 53.4 12.462zM347.35 2189.663c.431-14.691 1.664-26.686 2.74-26.656 1.075.031 9.059 12.36 17.741 27.397l15.786 27.34h24.591v-96.234l-8.904.858-8.904.859-1.37 27.396-1.37 27.397-6.849-10.879c-3.767-5.983-11.197-18.312-16.51-27.396-9.533-16.296-9.827-16.518-21.918-16.518h-12.255l-.758 43.724c-.416 24.048-.115 45.398.67 47.442.85 2.218 4.474 3.368 8.976 2.85l7.55-.868zm130.719-19.862v-46.574l-7.922-.905c-4.5-.513-8.92.67-10.232 2.74-2.663 4.2-3.254 81.774-.674 88.496 1.193 3.11 4.339 4.227 10.274 3.65l8.554-.833zm108.798 1.628c8.609-24.72 15.01-45.986 14.223-47.258-.787-1.273-4.954-2.314-9.26-2.314-8.534 0-9.235 1.295-22.896 42.302-3.484 10.46-7.52 19.411-8.967 19.894-1.448.482-6.749-11.773-11.78-27.235s-10.38-29.653-11.887-31.537c-1.506-1.883-6.287-3.424-10.623-3.424-10.679 0-10.355 3.272 4.513 45.56 19.348 55.032 16.776 50.732 29.771 49.781l11.252-.823zm104.895 38.097c0-6.31-1.188-6.957-15.069-8.22l-15.068-1.37v-21.916l14.142-.82c23.717-1.375 22.595-15.986-1.347-17.532-12.639-.816-12.795-.943-12.795-10.415v-9.589l15.068-1.37c13.881-1.261 15.069-1.909 15.069-8.218 0-6.756-.347-6.86-25.342-7.637l-25.342-.788v96.3l25.342-.789c24.995-.777 25.342-.881 25.342-7.636zm64.381-6.85c0-19.212 3.83-19.348 16.482-.585 8.38 12.426 10.963 14.394 19.862 15.134 13.202 1.097 13.098-2.003-.728-21.714-6.027-8.593-10.959-16.228-10.959-16.968 0-.74 4.315-5.66 9.589-10.934 12.75-12.75 13.266-26.058 1.468-37.856-7.862-7.863-8.842-8.096-30.821-7.324l-22.7.798-.758 43.724c-.416 24.048-.147 45.315.6 47.259.745 1.944 5.093 3.535 9.66 3.535 8.24 0 8.305-.118 8.305-15.069zm1.827-41.55c-3.616-3.617-1.874-20.246 2.289-21.843 6.75-2.59 17.047 1.31 18.541 7.023 2.784 10.645-13.454 22.196-20.83 14.82zm209.126 8.501v-48.117l-8.904.858-8.903.859-.758 43.724c-.416 24.048-.147 45.315.6 47.259.745 1.944 5.093 3.535 9.66 3.535h8.305zm84.93 8.393l1.37-38.356 10.958-1.37c9.497-1.187 10.958-2.282 10.958-8.218v-6.85h-65.751v6.85c0 5.936 1.461 7.031 10.958 8.219l10.96 1.37.716 35.615c.395 19.588 1.312 37.239 2.04 39.223.774 2.116 4.445 3.25 8.871 2.74l7.55-.868zm115.76 36.3c3.119-9.268-1.178-12.752-16.734-13.57l-15.467-.813v-21.917l15.068-1.37c13.88-1.262 15.068-1.91 15.068-8.22 0-6.309-1.187-6.956-15.068-8.218l-15.068-1.37v-19.178l14.363-.827c10.293-.593 15.09-2.187 16.931-5.627 5.037-9.41-.308-11.623-26.047-10.782l-24.425.799-.757 43.724c-.417 24.048-.147 45.315.599 47.259 1.886 4.914 49.886 5.017 51.537.11zm172.676-.348c26.635-11.396 36.896-48.228 20.811-74.7-8.237-13.558-20.28-17.76-48.251-16.838l-24.017.793-.757 43.724c-.417 24.048-.147 45.315.599 47.259 1.871 4.877 40.071 4.701 51.615-.238zm-30.91-44.171v-31.506h10.35c13.587 0 21.64 5.994 25.54 19.012 6.75 22.527-6.189 44-26.51 44h-9.38zm152.051 39.725c0-6.31-1.187-6.957-15.068-8.22l-15.068-1.37v-21.916l14.142-.82c14.355-.832 18.838-4.48 15.667-12.744-.997-2.597-6.428-4.259-15.667-4.794l-14.142-.82v-19.178l15.068-1.37c13.88-1.261 15.068-1.909 15.068-8.218 0-6.756-.347-6.86-25.342-7.637l-25.341-.788v96.3l25.341-.789c24.995-.777 25.342-.881 25.342-7.636zm172.657 3.897c10.608-5.034 18.993-20.18 16.226-29.31-1.016-3.351-4.128-8.594-6.917-11.65-4.938-5.41-4.93-5.768.297-13.697 7.497-11.374 6.73-19.565-2.713-29.01-7.92-7.919-8.7-8.096-32.191-7.322l-24.075.793-.757 43.724c-.417 24.048-.147 45.315.599 47.259 2.009 5.235 38.047 4.663 49.531-.787zm-30.485-15.994c-.819-2.133-1.088-7.373-.6-11.644.714-6.232 2.426-7.941 8.666-8.656 7.972-.912 18.25 5.76 18.25 11.85 0 9.676-23.01 17.065-26.316 8.45zm-.014-41.127c-.825-2.151-1.095-6.774-.6-10.274 1.73-12.199 24.19-8.982 24.19 3.464 0 9.172-20.422 15.067-23.59 6.81zm365.505 45.69c.456-7.911 1.984-14.384 3.397-14.384 1.413 0 7.07 6.781 12.573 15.068 9.25 13.933 10.802 15.069 20.575 15.069 5.814 0 10.571-1.253 10.571-2.783s-5.576-10.446-12.39-19.811l-12.39-17.028 9.556-8.27c11.237-9.726 14.437-20.23 9.67-31.74-4.957-11.966-15.385-16.256-39.514-16.256h-20.683v96.235l8.903-.859c8.683-.837 8.925-1.215 9.732-15.241zm1.07-50.684c.706-9.77 1.859-11.788 7.157-12.539 8.013-1.136 14.232 3.951 14.232 11.642 0 8.14-5.054 12.54-14.403 12.54-7.516 0-7.795-.465-6.987-11.643zm478.325 38.355c.431-14.691 1.708-26.711 2.838-26.711 1.13 0 8.937 12.02 17.35 26.711l15.296 26.712 12.687.835 12.687.835v-96.535l-8.904.858-8.904.859-1.37 27.396c-1.545 30.902.444 31.409-21.515-5.48l-13.047-21.916h-24.34l-.757 43.724c-.417 24.048-.116 45.398.669 47.442.85 2.218 4.474 3.368 8.976 2.85l7.55-.868zm167.704 20c0-7.918-.32-8.1-15.753-8.905l-15.753-.821v-21.917l15.068-1.37c13.881-1.262 15.069-1.91 15.069-8.22 0-6.309-1.188-6.956-15.069-8.218l-15.068-1.37v-19.178l15.068-1.37c14.062-1.278 15.127-1.88 15.946-9.009l.877-7.639-25.534.79-25.534.79-.758 43.725c-.416 24.048-.147 45.315.6 47.259.968 2.525 8.421 3.535 26.099 3.535h24.742zm-1465.45-100.725c8.493-5.017 10.578-13.644 3.917-16.2-5.916-2.27-23.357 9.411-23.357 15.644 0 6.696 8.627 6.943 19.44.556zm-276.41-81.6c1.061-28.628 3.009-59.716 4.33-69.083 1.32-9.367 1.571-18.371.558-20.01-1.073-1.736-8.435 5.08-17.638 16.328-36.6 44.736-88.166 85.458-139.172 109.904-13.185 6.319-23.972 12.585-23.972 13.925 0 1.387 37.491 2.125 86.984 1.714l86.983-.724zm1147.356 47.938c289.82-14.492 483.412-128.73 551.789-325.607 26.845-77.294 32.2-168.446 14.092-239.832-26.361-103.919-96.384-189.5-185.07-226.187-8.287-3.428-16.608-7.476-18.492-8.994-6.064-4.89-3.95-15.337 4.11-20.32 89.047-55.048 140.276-114.894 168.713-197.093 14.975-43.285 19.305-75.555 17.388-129.578-2.161-60.922-11.977-102.648-34.871-148.237-61.307-122.08-194.426-192.065-401.223-210.937-85.027-7.76-671.419 2.152-682.858 11.543-2.724 2.236-3.425 154.85-3.425 746.376 0 592.428.696 743.793 3.425 744.686 1.883.616 106.983 2.205 233.555 3.53 126.572 1.327 241.226 2.617 254.787 2.867 13.562.25 48.698-.747 78.08-2.217zm-152.05-325.672l-16.438-1.71-.71-143.67c-.457-92.548.26-144.639 2.015-146.393 4.26-4.26 120.493-5.67 153.698-1.865 30.955 3.547 70.372 15.28 90.196 26.85 29.221 17.055 53.26 48.55 61.943 81.162 2.059 7.732 3.758 24.587 3.776 37.455.059 42.32-11.94 72.764-39.362 99.872-19.733 19.507-40.564 31.113-74.375 41.438-23.779 7.261-26.869 7.524-94.444 8.039-38.424.293-77.258-.237-86.3-1.178zm149.964-18.01c78.573-14.008 122.487-54.86 127.367-118.484 5.623-73.309-39.056-122.56-125.28-138.103-29.38-5.295-147.474-4.86-150.903.558-1.339 2.114-2.453 59.48-2.476 127.478-.033 96.918.713 124.26 3.452 126.533 7.595 6.303 115.545 7.777 147.84 2.019zm-159.553-570.918l-6.849-2.053V890.452l13.698-2.22c7.534-1.222 46.369-2.42 86.3-2.661 66.63-.404 74.322.042 93.54 5.425 84.303 23.609 119.38 85.493 95.345 168.206-13.824 47.57-52.671 80.551-113.053 95.98-19.216 4.91-32.365 5.856-92.27 6.637-38.424.501-72.944-.013-76.71-1.143zm158.9-20.927c23.879-5.185 56.09-19.571 71.958-32.139 15.016-11.893 30.488-36.63 36.27-57.993 7.18-26.521 4.967-64.131-4.966-84.433-17.874-36.534-56.017-56.836-116.96-62.252-36.453-3.24-131.44.756-134.548 5.66-1.293 2.04-2.37 55.22-2.393 118.178l-.042 114.469 6.164 2.66c9.933 4.287 120.248 1.119 144.517-4.15z"/><path fill="#f37429" d="M17.515 2249.026c.914-2.383 1.663-40.592 1.663-84.908v-80.575l171.685-.706c130.528-.536 171.947-1.493 172.78-3.991.602-1.808-5.46-6.601-13.47-10.653-67.45-34.115-114.91-96.113-137.748-179.947-14.756-54.164-15.066-61.242-15.12-345.986-.04-206.496-.79-264.18-3.483-267.863-2.652-3.626-14.658-6.21-52.739-11.349-60.033-8.1-132.615-15.063-137.498-13.19C.662 1250.98 0 1226.6 0 1117.776 0 1010.542.688 984.58 3.503 985.66c1.926.74 14.563.326 28.081-.918 140.85-12.966 215.95-16.524 383.838-18.186 86.088-.852 162.182-.701 169.097.336l12.573 1.885.76 369.012c.741 359.27.904 369.406 6.16 383.977 7.146 19.807 23.63 36.885 39.806 41.24 77.478 20.86 173.983-82.938 194.47-209.167 1.703-10.49 2.75-124.174 2.764-299.766l.02-282.87H1243.801v802.854l6.164 2.331c8.235 3.115 80.412 12.812 135.758 18.24 34.869 3.42 45.534 3.658 48.629 1.09 3.437-2.853 3.964-84.89 3.964-617.594V563.82l29.451-1.71c16.198-.94 66.437-2.996 111.641-4.569 45.204-1.572 96.367-3.382 113.695-4.021 17.329-.64 106.78-2.469 198.782-4.066 194.791-3.38 234.053-1.72 325.861 13.78 176.512 29.8 294.64 108.58 344.737 229.907 19.895 48.183 27.647 90.823 27.64 152.036-.008 64.72-10.919 109.941-40.093 166.151-26.786 51.61-72.927 103.083-121.192 135.197-12.884 8.573-23.426 16.688-23.426 18.035 0 1.346 7.706 6.299 17.123 11.006 94.25 47.111 162.859 139.952 184.278 249.365 9.752 49.814 8.144 118.939-4.121 177.13-26.321 124.88-104.308 229.06-221.817 296.32-52.956 30.31-117.197 54.419-187.607 70.403-33.323 7.565-36.663 8.875-31.292 12.279 2.044 1.295 145.802 2.374 319.462 2.397l315.744.042v80.595c0 44.328.748 82.546 1.663 84.93 1.515 3.948-122.17 4.333-1390.665 4.333-1268.496 0-1392.18-.385-1390.665-4.334zm246.847-33.57c14.922-8.604 17.988-19.202 17.174-59.354l-.722-35.615h-21.917l-1.37 36.53c-1.203 32.076-2.018 37.002-6.688 40.41-6.873 5.015-12.544 4.906-20.099-.385-5.732-4.015-6.089-6.244-6.089-38.02 0-37.074-1.562-41.026-15.587-39.418l-7.7.883v41.723c0 41.376.06 41.784 7.187 48.904 12.61 12.6 38.059 14.58 55.811 4.343zm625.662 1.48c10.546-5.181 18.045-17.328 18.045-29.226 0-12.793-6.367-20.815-22.115-27.864-22.752-10.184-22.18-20.182 1.154-20.182 12.827 0 12.867-.029 12.867-9.391 0-8.054-1.135-9.695-7.966-11.522-4.38-1.172-13.907-.856-21.168.7-16.881 3.621-27.029 14.75-27.029 29.643 0 13.476 6.89 21.974 24.51 30.227 11.038 5.17 13.914 7.82 13.282 12.237-.685 4.791-3.278 5.845-17.245 7.009l-16.437 1.37v9.465c0 7.73 1.255 9.836 6.849 11.489 8.41 2.485 26.212.488 35.253-3.955zm855.893 3.383c24.252-6.735 39.636-31.32 36.799-58.81-2.861-27.722-18.787-42.824-45.585-43.229-15.748-.237-31.967 8.344-41.179 21.787-12.684 18.512-9.8 57.099 5.288 70.753 5.418 4.904 23.11 12.087 30.219 12.268 2.26.058 8.766-1.188 14.458-2.769zm-23.281-24.666c-6.167-3.594-11.18-22.621-8.857-33.616 4.315-20.42 25.247-28.291 36.658-13.784 8.558 10.88 7.99 34.553-1.046 43.59-7.055 7.055-18.413 8.672-26.755 3.81zm159.141 21.283c3.695-1.815 9.295-6.778 12.444-11.027 5.176-6.983 5.726-11.46 5.726-46.574v-38.848l-8.452-.825c-4.731-.462-9.819.821-11.555 2.914-1.839 2.215-3.418 17.585-3.876 37.71-.772 33.88-.794 33.983-8.308 38.181-6.775 3.785-8.293 3.786-15.068.003-7.517-4.198-7.537-4.289-8.904-41.095l-1.37-36.888h-21.917l-.819 32.876c-.93 37.386.391 47.871 7.07 56.07 10.281 12.62 37.16 16.284 55.03 7.503zm249.094-1.01c5.829-3.651 6.217-5.52 5.48-26.397l-.794-22.468h-21.917l-.822 15.753-.822 15.753h-9.662c-7.116 0-11.863-2.2-18.008-8.345-7.647-7.647-8.231-9.523-6.99-22.44 1.07-11.128 2.989-15.503 9.115-20.773 7.086-6.094 9.394-6.539 26.503-5.104 17.994 1.508 18.844 1.305 21.28-5.105 3.372-8.868.806-14.69-7.198-16.337-3.601-.74-9.55-1.966-13.222-2.724-11.808-2.438-34.268 4.152-44.365 13.017-13.149 11.545-18.288 22.756-18.525 40.414-.348 25.882 13.136 43.598 37.621 49.43 11.539 2.748 34.53.21 42.326-4.674zm100.555 4.277c14.618-3.68 30.428-18.621 34.245-32.363 7.077-25.474-.635-52.642-17.985-63.365-11.444-7.073-34.702-8.005-46.511-1.864-38.204 19.867-38.116 82.939.133 96.49 13.529 4.793 15.216 4.854 30.118 1.102zm-25.81-28.855c-4.1-5.213-5.677-11.2-5.677-21.547 0-23.668 15.078-35.552 32.963-25.98 11.92 6.38 12.528 36.84.989 49.59-7.068 7.811-21.326 6.77-28.274-2.063zm174.562 26.083c5.967-2.257 6.233-3.534 5.479-26.371l-.792-23.999-9.302-.888c-11.426-1.091-13.888 2.33-13.943 19.38-.042 12.998-.054 13.014-9.478 13.014-19.895 0-31.186-21.069-22.471-41.928 5.267-12.604 14.107-16.327 35.93-15.131 15.709.86 16.458.599 19.027-6.652 3.42-9.652.204-12.983-15.296-15.845-16.556-3.056-37.349 1.47-48.823 10.629-13.51 10.784-19.194 23.373-19.2 42.527-.005 25.854 12.65 42.558 36.792 48.564 9.16 2.278 32.083.48 42.077-3.3zm-2032.698-.508c1.626-1.959 3.318-13.714 3.76-26.123l.805-22.563 15.068 25.439 15.068 25.438h27.397V2120.487l-7.7-.883c-13.12-1.504-15.58 3.101-15.65 29.3l-.064 23.636-13.13-22.397c-18.452-31.477-18.397-31.427-33.077-30.473l-12.569.817-.754 46.473c-.414 25.56-.145 48.06.6 49.999 1.76 4.587 16.43 4.561 20.246-.036zm131.862-1.738c1.59-2.972 2.836-23.199 2.836-46.05 0-45.656-1.672-51.108-15.203-49.568l-8.084.92-.753 46.473c-.415 25.56-.146 48.06.598 49.999 2.162 5.632 17.342 4.325 20.606-1.774zm92.517 1.875c4.802-6.13 33.157-90.439 31.697-94.244-.811-2.115-5.46-3.699-10.855-3.699-10.48 0-9.719-1.233-24.065 39.04-4.16 11.678-8.41 21.232-9.443 21.232-1.033 0-6.006-12.636-11.05-28.081-5.044-15.445-10.546-28.987-12.226-30.094-5.658-3.728-18.24-2.24-20.007 2.365-1.576 4.106 15.41 57.888 26.926 85.262 4.578 10.88 5.602 11.643 15.62 11.643 5.896 0 11.927-1.54 13.403-3.424zm123.537-4.26c1.422-10.028-4.203-14.233-19.038-14.233h-13.363v-18.891l14.383-.828 14.384-.828V2158.842l-14.384-.828c-13.91-.8-14.383-1.093-14.383-8.904 0-7.837.395-8.076 13.363-8.076 14.835 0 20.46-4.204 19.038-14.232-.866-6.113-1.772-6.315-28.291-6.315h-27.397l-.754 46.473c-.414 25.56-.128 48.105.638 50.099 1.052 2.741 7.912 3.433 28.15 2.84 25.585-.75 26.798-1.062 27.654-7.1zm63.487-8.754l1.37-15.068 9.408 13.698c11.603 16.895 12.78 17.714 25.522 17.766 13.693.056 13.537-5.553-.685-24.615-6.027-8.078-10.958-15.67-10.958-16.87 0-1.2 2.892-4.076 6.427-6.392 14.574-9.55 16.805-29.646 4.785-43.1-7.551-8.45-9.124-8.967-30.188-9.924-14.904-.676-23.559.1-26.28 2.359-3.278 2.72-4.058 11.886-4.058 47.688 0 48.489.966 51.718 15.055 50.335 7.86-.772 8.294-1.49 9.602-15.877zm0-53.605c0-8.96.602-9.699 7.258-8.904 15.193 1.815 14.521 18.675-.744 18.675-5.641 0-6.514-1.31-6.514-9.77zm209.583 19.36v-49.314l-7.7-.883c-14.6-1.674-15.587 1.491-15.587 49.984 0 48.489.966 51.718 15.055 50.335l8.232-.809zm85.688 10.427l.76-38.886 11.569-.839c11.236-.814 11.57-1.115 11.57-10.427v-9.59h-71.232v9.59c0 9.322.324 9.612 11.644 10.43l11.643.843v37.741c0 20.758.88 38.622 1.957 39.698 1.076 1.076 6.316 1.59 11.644 1.142l9.686-.816zm114.307 29.298v-9.59l-15.753-.82-15.753-.822v-9.31c0-9.272.055-9.311 14.1-10.136 26.203-1.54 26.203-19.295 0-20.834-13.54-.795-14.1-1.144-14.1-8.767 0-7.743.388-7.96 15.753-8.76l15.753-.823v-9.588c0-9.496-.127-9.597-13.014-10.424-7.157-.46-13.013-1.772-13.013-2.917 0-1.145 4.398-4.18 9.773-6.743 7.366-3.512 9.56-6.1 8.904-10.501-1.634-10.976-8.85-12.302-21.475-3.948-10.092 6.68-11.301 8.557-9.928 15.424 1.438 7.186.852 7.887-7.238 8.669l-8.802.85-.754 46.474c-.415 25.56-.128 48.105.637 50.099 1.052 2.741 7.912 3.433 28.15 2.84l26.76-.785zm175.88 5.216c16.641-8.056 26.397-25.162 26.397-46.284 0-34.042-17.707-49.34-57.109-49.34-13.581 0-23.43 1.272-25.446 3.287-4.608 4.608-4.608 90.183 0 94.792 5.752 5.752 42.526 4.144 56.159-2.455zm-33.618-19.816c-.769-2.003-1.038-14.64-.599-28.082.761-23.304 1.098-24.482 7.241-25.352 18.544-2.625 29.46 10.347 27.008 32.097-1.015 9.004-3.426 14.207-8.677 18.723-7.974 6.86-22.75 8.406-24.973 2.614zm153.62 14.6v-9.59l-15.753-.82-15.753-.822v-9.31c0-9.298.016-9.31 14.383-10.136l14.383-.828V2158.842l-14.383-.828c-13.911-.8-14.383-1.093-14.383-8.904 0-7.802.441-8.077 13.013-8.118 16.534-.053 20.531-2.647 19.397-12.583l-.904-7.922h-54.793l-.754 46.473c-.415 25.56-.128 48.105.637 50.099 1.052 2.741 7.912 3.433 28.15 2.84l26.76-.785zm167.045 8.246c3.923-1.491 10.167-5.986 13.877-9.988 8.088-8.728 9.084-25.016 2.174-35.561-4.266-6.511-4.266-7.488 0-14.71 7.708-13.048 4.236-25.956-9.1-33.834-9.374-5.537-49.078-6.47-54.274-1.274-3.466 3.466-4.883 85.252-1.624 93.746 1.307 3.406 5.96 4.333 21.739 4.333 11.041 0 23.285-1.22 27.208-2.712zm-25.953-28.967c0-9.306.404-9.723 8.627-8.904 17.223 1.713 16.547 18.666-.744 18.666-7.21 0-7.883-.834-7.883-9.762zm0-39.552c0-8.014.574-8.51 8.904-7.707 7.442.717 8.903 1.983 8.903 7.707 0 5.725-1.461 6.99-8.903 7.708-8.33.803-8.904.306-8.904-7.708zm363.825 67.944c1.808-1.809 3.288-7.973 3.288-13.699s.924-10.388 2.054-10.361c1.13.027 6.071 6.191 10.98 13.698 8.26 12.632 9.746 13.65 19.949 13.65 6.973 0 11.57-1.424 12.51-3.875.817-2.13-4.167-11.643-11.076-21.138l-12.562-17.265 8.052-6.301c11.424-8.941 15.329-22.214 10.168-34.564-5.91-14.145-16.612-18.62-42.214-17.654l-21.148.799-.754 46.473c-.415 25.56-.145 48.06.599 49.999 1.706 4.446 15.78 4.612 20.154.238zm3.288-66.574c0-9.241.538-9.89 7.534-9.086 6.352.731 7.534 2.157 7.534 9.086 0 6.93-1.182 8.355-7.534 9.086-6.996.805-7.534.155-7.534-9.086zm476.244 66.3c1.625-1.959 3.317-13.892 3.76-26.52l.804-22.957 15.119 25.834 15.118 25.834h27.296V2120.487l-7.868-.9c-4.327-.494-9.259.487-10.959 2.181-1.7 1.694-3.707 13.194-4.46 25.556l-1.37 22.477-13.102-22.34c-7.206-12.288-14.82-23.767-16.92-25.51-2.1-1.743-9.15-2.785-15.665-2.316l-11.846.852-.753 46.473c-.415 25.56-.145 48.06.599 49.999 1.76 4.587 16.431 4.561 20.247-.036zm168.943-7.397v-9.59l-15.753-.82-15.753-.822v-9.31c0-9.272.056-9.311 14.101-10.136 15.933-.936 22.437-6.719 17.109-15.212-2.093-3.335-7.298-5.046-17.109-5.622-13.54-.795-14.1-1.144-14.1-8.767 0-7.743.388-7.96 15.752-8.76l15.753-.823V2120.486h-54.793l-.754 46.474c-.414 25.56-.128 48.105.638 50.099 1.052 2.741 7.912 3.433 28.15 2.84l26.76-.785zM873.482 2078.707c1.356-2.637 3.298-28.835 4.315-58.217 1.018-29.383 2.81-59.877 3.983-67.764 3.303-22.198-.46-23.727-15.275-6.207-42.605 50.386-91.621 89.904-140.883 113.583-33.005 15.865-35.774 17.565-33.805 20.75 1 1.618 36.188 2.65 90.418 2.65 81.787 0 88.975-.378 91.247-4.795zm1230.373-7.066c66.213-9.366 122.684-22.328 170.591-39.156 173.148-60.82 282.53-177.977 317.4-339.964 8.253-38.336 10.415-118.24 4.173-154.21-9.143-52.68-26.68-97.41-54.646-139.371-34.9-52.37-73.395-86.26-127.057-111.865-26.707-12.743-30.82-15.59-30.82-21.326 0-5.226 3.603-8.725 17.122-16.624 42.22-24.668 92.731-71.681 117.573-109.433 44.324-67.356 61.63-129.331 58.906-210.953-3.268-97.91-33.695-171.415-96.57-233.284-67.281-66.206-166.263-106.947-306.615-126.203-60.357-8.28-445.322-6.146-674.867 3.742-30.644 1.32-43.058 2.86-45.89 5.69-5.664 5.664-5.87 1488.798-.207 1493.497 4.166 3.458 161.901 4.981 445.63 4.304 143.822-.343 179.392-1.182 205.277-4.844zm-198.429-322.528c-19.588-1.08-39.005-2.104-43.15-2.276l-7.533-.312v-287.196l20.555-1.926c11.305-1.06 48.598-1.299 82.874-.532 51.491 1.152 66.354 2.416 85.54 7.278 77.363 19.603 117.93 66.142 118.12 135.51.037 13.957-1.42 31.445-3.24 38.862-15.384 62.72-71.768 102.364-157.43 110.693-29.635 2.881-41.873 2.868-95.736-.101zm112.955-14.93c74.944-12.155 119.656-50.211 130.023-110.667 9.361-54.588-16.672-106.742-65.614-131.447-36.004-18.175-48.863-20.241-134.186-21.559l-77.367-1.195-2.848 7.492c-3.427 9.014-2.518 251.624.956 255.108 6.448 6.468 113.134 8.09 149.036 2.268zm-160.214-575.625c-2.671-1.182-3.424-30.644-3.424-133.991V892.09l13.013-2.025c7.157-1.114 45.684-2.09 85.614-2.171 66.405-.134 74.388.36 93.541 5.78 74.64 21.122 108.229 68.801 98.744 140.17-8.003 60.215-46.404 100.037-114.364 118.594-19.336 5.28-29.993 6.036-95.729 6.788-40.683.465-75.511.165-77.395-.668zm129.449-12.102c46.536-5.248 83.002-18.648 107.201-39.392 24.414-20.928 39.37-56.457 39.37-93.524 0-33.469-10.39-58.681-32.364-78.533-13.904-12.561-26.246-18.949-52.598-27.223-19.506-6.124-24.313-6.441-97.774-6.441-59.713 0-78.069.808-80.82 3.559-4.601 4.6-6.75 227.64-2.274 236.004 1.642 3.068 6.568 5.753 11.731 6.394 18.744 2.326 83.952 1.814 107.528-.844z"/><path fill="#f36816" d="M16.438 2250.62a2.748 2.748 0 012.74-2.74c1.764 0 2.74-28.766 2.74-80.819v-80.82H194.6c157.718 0 172.834-.39 174.413-4.505 2.009-5.234.787-6.175-29.75-22.891-14.112-7.726-31.041-20.39-45.345-33.922-48.462-45.844-75.819-103.433-90.318-190.127-3.837-22.947-4.616-63.824-5.63-295.595-1.005-230.07-1.742-269.183-5.097-270.47-6.605-2.535-76.705-11.961-123.013-16.542-24.109-2.385-48.457-4.822-54.108-5.417-5.65-.595-10.274.034-10.274 1.397 0 1.364-1.233 2.48-2.74 2.48-1.788 0-2.739-46.118-2.739-132.874 0-116.956 1.2-143.31 5.936-130.38.543 1.485 10.34 1.54 24.2.137 123.634-12.517 213.75-16.694 393.748-18.255l170.467-1.478.762 368.13.76 368.131 6.076 17.808c9.83 28.812 26.539 42.93 54.185 45.784 72.125 7.444 149.25-73.618 180.205-189.403 5.838-21.84 5.935-25.955 7.38-313.903l1.463-291.772 197.94-.703 197.94-.703v401.041c0 338.959.589 401.53 3.806 404.2 4.69 3.893 37.436 9.223 100.3 16.328 85.69 9.684 89.548 9.829 92.937 3.496 2.083-3.891 2.95-185.622 2.95-617.63V566.487l25.342-1.723c45.193-3.07 184.326-7.627 297.937-9.758 98.717-1.85 104.61-2.193 53.424-3.099-36.432-.644-4.78-1.561 86.298-2.498 128.82-1.326 252.454.153 209.584 2.508-13.538.744-10.88 1.298 15.068 3.142 261.025 18.545 419.878 128.763 453.832 314.885 6.692 36.686 6.715 110.864.043 142.355-10.883 51.372-27.121 89.691-56.826 134.1-26.835 40.12-60.204 71.852-116.92 111.188-3.39 2.352-6.164 5.866-6.164 7.81 0 1.943 10.4 8.686 23.111 14.985 71.075 35.22 131.37 104.509 162.462 186.699 32.825 86.767 29.13 208-9.307 305.47-22.01 55.815-49.184 96.244-96.777 143.99-39.589 39.714-71.839 63.674-120.584 89.585-48.87 25.977-121.194 51.144-179.447 62.444-27.607 5.355-33.276 8.129-28.465 13.925 2.597 3.13 55.628 3.746 321.943 3.746h318.834v80.82c0 52.053.975 80.82 2.74 80.82a2.748 2.748 0 012.739 2.74c0 1.822-465.74 2.739-1391.742 2.739s-1391.742-.917-1391.742-2.74zm247.652-32.457c16.96-9.681 19.37-16.394 20.42-56.856 1.062-40.988-.205-44.93-14.442-44.93-14.137 0-15.28 3.12-15.28 41.702 0 34.81-.062 35.154-6.85 38.247-5.123 2.334-8.574 2.334-13.698 0-6.756-3.078-6.85-3.572-6.85-36.236 0-37.27-1.999-43.713-13.57-43.713-16.62 0-16.565-.138-16.565 41.66 0 41.267 2.627 52.14 14.382 59.519 14.404 9.043 37.214 9.307 52.453.607zm628.698.15c8.762-4.037 19.295-20.435 19.455-30.29.174-10.651-9.286-22.48-23.562-29.465-8.161-3.993-15.59-8.474-16.507-9.959-2.783-4.503 5.309-7.839 15.472-6.377 13.455 1.934 16.981-1.117 15.943-13.795l-.874-10.68-17.119-.815c-28.108-1.34-44.524 10.85-44.524 33.06 0 12.34 8.093 22.374 24.928 30.904 18.906 9.581 17.741 14.464-3.695 15.485l-17.123.816-.838 11.553c-.776 10.703-.273 11.678 6.849 13.253 4.228.935 8.92 2.109 10.427 2.608 4.692 1.554 21.49-1.84 31.168-6.299zm867.402-1.606c16.408-8.833 24.69-25.483 24.69-49.646.003-33.165-13.666-48.51-44.605-50.076-22.259-1.127-33.702 4.074-45.465 20.665-11.295 15.93-13.08 43.318-3.96 60.756 13.769 26.329 41.052 33.53 69.34 18.301zm-38.483-26.539c-3.663-4.047-5.12-9.846-5.12-20.367 0-18.015 5.926-26.027 19.25-26.027 12.191 0 17.539 8.121 17.539 26.636 0 10.806-1.385 15.843-5.48 19.938-7.115 7.116-19.664 7.03-26.189-.18zm162.835 28.144c15.165-6.986 19.383-20.207 19.454-60.977.04-23.162-1.012-35.455-3.227-37.67-5.354-5.354-20.762-4.063-24.013 2.012-1.56 2.914-2.836 20.2-2.836 38.413 0 32.664-.093 33.158-6.849 36.236-5.123 2.334-8.574 2.334-13.698 0-6.787-3.093-6.85-3.438-6.85-38.247 0-38.479-1.164-41.702-15.067-41.702-13.905 0-15.068 3.221-15.068 41.731 0 47.386 5.293 59.246 28.903 64.763 12.704 2.968 26.353 1.383 39.25-4.559zm236.408 3.638c7.034-.954 14.172-3.401 15.863-5.439 1.909-2.3 2.773-12.897 2.28-27.947l-.796-24.243-12.057-.862c-14.415-1.032-16.61 1.518-16.668 19.355-.04 12.667-.264 13.013-8.385 13.013-18.157 0-27.61-21.899-17.714-41.036 5.13-9.918 11.041-11.78 33.633-10.594l18.044.947 2.494-9.51c2.172-8.285 1.677-10.171-3.84-14.639-5.286-4.28-10.008-4.973-28.522-4.188-18.695.792-23.978 2.126-33.572 8.477-15.06 9.97-23.331 26.272-23.281 45.886.05 19.207 5.928 32.957 18.038 42.194 9.163 6.99 28.91 12.837 37.584 11.13 2.26-.446 9.865-1.59 16.899-2.544zm122.823-4.042c15.87-7.88 25.145-23.867 26.575-45.81 2.248-34.512-15.361-55.72-46.267-55.72-35.698 0-57.263 25.08-53.438 62.149 4.018 38.93 37.607 57.017 73.13 39.38zm-36.875-27.439c-6.53-7.214-6.854-29.938-.566-39.535 5.937-9.061 20.416-9.898 27.914-1.613 6.759 7.469 7.07 29.146.56 39.087-6.031 9.212-20.472 10.279-27.908 2.061zm173.858 28.975c6.603-3.03 6.849-4.075 6.849-29.133v-25.99l-12.659-.82c-14.142-.917-15.996 1.627-16.07 22.053-.035 9.492-.64 10.273-7.953 10.273-12.198 0-19.806-7.869-21.416-22.151-1.2-10.641-.33-13.608 6.293-21.479l7.684-9.132 20.15 1.524c19.84 1.5 20.191 1.413 22.897-5.703 6.898-18.142-3.248-24.18-37.019-22.03-32.473 2.068-50.994 22.395-50.9 55.864.096 35.116 24.241 54.683 62.966 51.03 6.78-.64 15.41-2.577 19.178-4.306zm-2030.629.492c1.975-1.975 3.288-11.524 3.288-23.914v-20.627l12.74 21.86c7.008 12.022 14.096 22.765 15.753 23.872 4.842 3.235 24.904 2.396 28.492-1.19 4.62-4.62 4.62-95.652 0-100.272-4.324-4.323-20.437-4.228-23.263.137-1.219 1.884-2.833 12.054-3.586 22.602l-1.37 19.178-10.33-18.353c-5.68-10.094-12.241-20.265-14.578-22.602-5.073-5.073-25.942-5.727-30.707-.962-4.62 4.62-4.62 95.651 0 100.271 1.808 1.808 7.11 3.288 11.78 3.288 4.672 0 9.973-1.48 11.781-3.288zm130.682-50.135v-52.054h-24.657l-.75 49.222c-.414 27.072-.117 50.875.659 52.897.95 2.477 5.214 3.4 13.079 2.832l11.669-.844zm91.042 51.196c1.855-1.179 10.818-23.503 19.917-49.61 18.062-51.828 18.125-55.01 1.094-55.01-11.31 0-14.278 4.282-24.377 35.173-4.107 12.565-8.41 21.811-9.562 20.548-1.152-1.264-5.493-12.777-9.649-25.584-4.155-12.808-8.825-24.89-10.377-26.848-1.714-2.163-7.215-3.238-14.017-2.74-9.088.667-11.355 1.94-12.042 6.765-.904 6.347 24.838 83.042 31.338 93.369 2.904 4.612 6.45 6.153 14.09 6.122 5.617-.022 11.73-1.006 13.585-2.185zm123.472-1.06c1.808-1.809 3.288-6.494 3.288-10.411 0-10.32-4.866-13.699-19.726-13.699-12.2 0-13.15-.494-13.15-6.849 0-6.14 1.11-6.849 10.734-6.849 16.582 0 19.402-1.991 19.402-13.698s-2.82-13.698-19.402-13.698c-8.908 0-10.734-.933-10.734-5.48 0-4.718 1.826-5.479 13.15-5.479 14.86 0 19.726-3.379 19.726-13.698 0-11.732-4.523-13.699-31.506-13.699-15.738 0-26.143 1.213-28.219 3.288-2.3 2.3-3.287 17.351-3.287 50.136 0 32.784.987 47.835 3.287 50.135 2.076 2.076 12.48 3.288 28.219 3.288 15.737 0 26.143-1.212 28.218-3.288zm63-.149c1.569-1.89 3.26-7.745 3.76-13.013l.91-9.578 9.132 13.154c8.922 12.851 9.426 13.135 21.892 12.329 17.206-1.114 17.865-6.719 3.23-27.471-11.426-16.202-11.462-16.327-5.737-20.337 19.613-13.737 17.296-45.722-3.955-54.6-5.242-2.191-18.304-3.895-29.857-3.895-17.503 0-20.959.784-23.376 5.3-1.607 3.004-2.836 23.843-2.836 48.124 0 24.28 1.229 45.119 2.836 48.124 3.29 6.145 19.41 7.396 24.002 1.863zm3.3-69.165c0-5.93 1.107-7.073 6.164-6.355 4.046.575 6.164 2.759 6.164 6.355 0 3.597-2.118 5.78-6.164 6.355-5.057.718-6.164-.424-6.164-6.355zm207.665 69.313c2.3-2.3 3.288-17.35 3.288-50.135s-.987-47.835-3.288-50.136c-5.354-5.354-20.762-4.063-24.012 2.012-4.145 7.743-3.748 94.06.451 98.26 1.808 1.807 7.11 3.287 11.78 3.287 4.672 0 9.973-1.48 11.781-3.288zm84.93 0c2.227-2.227 3.287-15.037 3.287-39.725v-36.437h9.04c10.89 0 15.617-4.147 15.617-13.698 0-12.296-4.069-13.699-39.725-13.699-35.657 0-39.725 1.403-39.725 13.699 0 9.551 4.727 13.698 15.616 13.698h9.04v36.437c0 39.881 1.098 43.013 15.069 43.013 4.67 0 9.972-1.48 11.78-3.288zm114.018 1.625c5.975-2.293 5.975-21.778 0-24.07-2.383-.915-9.78-1.664-16.437-1.664-11.085 0-12.105-.577-12.105-6.849 0-6.386.92-6.849 13.602-6.849 10.644 0 14.219-1.152 16.438-5.3 7.037-13.148-.214-22.096-17.907-22.096-10.306 0-12.133-.825-12.133-5.48 0-4.652 1.827-5.479 12.105-5.479 18.035 0 20.771-1.805 20.771-13.698 0-11.331-2.812-13.58-17.347-13.874l-8.68-.175 8.904-4.431c9.618-4.787 11.449-12.184 5.09-20.56-4.89-6.442-8.606-6.064-22.928 2.328-10.69 6.266-12.014 8.08-10.988 15.069.974 6.641.21 7.944-4.661 7.944-11.425 0-12.402 4.207-12.402 53.424 0 32.784.987 47.835 3.288 50.135 3.437 3.438 47.313 4.724 55.39 1.625zm172.319-2.306c22.988-8.199 33.042-25.796 31.556-55.23-1.194-23.65-6.238-32.275-24.26-41.483-9.793-5.005-16.576-6.165-36.043-6.165-20.904 0-24.344.68-26.816 5.3-1.608 3.004-2.836 23.843-2.836 48.124 0 24.28 1.228 45.119 2.836 48.124 2.437 4.554 5.808 5.282 23.972 5.179 11.625-.066 25.84-1.799 31.59-3.85zm-28.263-49.454v-26.027l8.904.042c4.897.022 10.26.948 11.918 2.055 5.56 3.712 9.314 13.888 9.314 25.244 0 14.09-9.367 24.712-21.792 24.712h-8.344zm152.873 50.135c1.808-1.808 3.287-6.493 3.287-10.41 0-10.32-4.865-13.699-19.725-13.699-12.2 0-13.15-.494-13.15-6.849 0-6.14 1.11-6.849 10.734-6.849 16.581 0 19.402-1.991 19.402-13.698s-2.82-13.698-19.402-13.698c-8.908 0-10.735-.933-10.735-5.48 0-4.718 1.827-5.479 13.15-5.479 14.86 0 19.726-3.379 19.726-13.698 0-11.732-4.522-13.699-31.506-13.699-15.738 0-26.143 1.213-28.218 3.288-2.3 2.3-3.288 17.351-3.288 50.136 0 32.784.987 47.835 3.288 50.135 2.075 2.076 12.48 3.288 28.218 3.288s26.143-1.212 28.219-3.288zm165.435.453c20.33-5.647 31.392-32.178 20.124-48.265-3.55-5.068-3.522-7.023.232-16.58 3.845-9.787 3.846-11.818.014-20.99-2.96-7.084-7.146-11.368-13.842-14.166-11.827-4.941-51.075-5.45-55.802-.723-2.3 2.3-3.287 17.351-3.287 50.136 0 32.784.987 47.835 3.287 50.135 4.04 4.04 35.323 4.328 49.275.453zm-22.426-31.41c0-6.253 1.004-7.098 7.534-6.347 5.419.623 7.534 2.405 7.534 6.346 0 3.941-2.115 5.723-7.534 6.346-6.53.752-7.534-.093-7.534-6.346zm0-41.096c0-7.044 1.851-8.069 9.365-5.186 7.295 2.8 5.365 12.036-2.516 12.036-5.479 0-6.849-1.37-6.849-6.85zM1972 2219.936c1.808-1.808 3.287-7.452 3.287-12.541v-9.254l9.044 11.856c8.511 11.16 9.838 11.857 22.564 11.857 17.923 0 18.612-4.687 3.782-25.715l-11.54-16.364 8.278-8.278c14.924-14.924 12.896-37.181-4.451-48.855-7.682-5.17-12.974-6.265-30.273-6.265-12.653 0-22.268 1.304-24.252 3.288-2.3 2.3-3.288 17.351-3.288 50.136 0 51.035.674 53.423 15.068 53.423 4.671 0 9.973-1.48 11.78-3.288zm3.287-68.2c0-6.136 1.257-7.962 5.48-7.962 3.946 0 5.479 1.826 5.479 6.53 0 4.225-1.933 7.035-5.48 7.962-4.55 1.19-5.479.084-5.479-6.53zm476.151 68.2c1.967-1.966 3.308-11.6 3.338-23.972l.05-20.684 12.707 21.917c6.989 12.055 14.055 22.823 15.703 23.93 4.816 3.236 24.888 2.396 28.475-1.19 2.3-2.301 3.287-17.352 3.287-50.136 0-51.375-.601-53.424-15.683-53.424-11.324 0-15.277 8.334-13.972 29.455.49 7.913.184 14.386-.677 14.384-.861-.002-6.799-9.15-13.195-20.328-6.395-11.178-13.497-21.04-15.78-21.917-7.221-2.771-24.394-1.725-27.813 1.694-2.301 2.3-3.288 17.351-3.288 50.136 0 51.035.673 53.423 15.068 53.423 4.671 0 9.972-1.48 11.78-3.288zm166.073 1.625c5.185-1.99 5.911-17.581 1.046-22.446-1.808-1.808-9.205-3.288-16.438-3.288-12.2 0-13.15-.494-13.15-6.849 0-6.274 1.017-6.849 12.133-6.849 13.039 0 20.743-5.087 20.743-13.698s-7.704-13.698-20.743-13.698c-10.307 0-12.133-.825-12.133-5.48 0-4.718 1.826-5.479 13.15-5.479 7.233 0 14.63-1.48 16.438-3.288 4.865-4.865 4.139-20.456-1.046-22.446-8.077-3.1-51.953-1.812-55.39 1.625-2.301 2.3-3.288 17.351-3.288 50.136 0 32.784.987 47.835 3.287 50.135 3.438 3.438 47.314 4.724 55.391 1.625zM876.365 2080.077c1.255-3.39 3.118-30.82 4.141-60.957 1.023-30.136 2.803-61.077 3.955-68.757 1.153-7.68 1.622-15.385 1.042-17.122-2.443-7.33-11.564-2.269-22.695 12.593-17.594 23.493-55.92 60.062-83.568 79.74-13.457 9.578-39.356 24.673-57.553 33.544-18.198 8.872-33.906 16.95-34.907 17.95-1.001 1.001-.447 3.475 1.231 5.497 2.441 2.941 21.35 3.676 94.562 3.676h91.51zm1186.591-2.134c141.93-12.613 253.891-48.058 346.802-109.791 40.057-26.616 94.265-80.496 119.732-119.009 31.57-47.74 52.563-98.5 65.485-158.33 5.127-23.742 6.037-36.734 6.168-88.12.145-56.665-.286-62.004-7.202-89.204-27.63-108.67-92.383-190.122-183.92-231.349-19.856-8.942-23.786-11.75-23.786-16.993 0-3.454 1.043-6.28 2.317-6.28 1.274 0 15.76-8.878 32.19-19.73 99.9-65.976 160.008-176.71 160.008-294.776 0-103.991-35.54-191.728-103.58-255.708-76.385-71.827-191.625-113.311-349.832-125.935-87.09-6.95-668.709 3.709-677.413 12.413-3.097 3.097-3.811 1492.533-.718 1497.412 2.243 3.538 22.713 4.307 147.223 5.527 277.35 2.72 434.985 2.676 466.526-.127zm-161.64-331.531c-17.327-1.049-34.279-2.068-37.67-2.266l-6.164-.36v-281.468l10.274-1.698c21.09-3.486 130.223-1.833 156.104 2.365 80.095 12.99 126.618 54.426 134.957 120.2 9.375 73.945-33.215 134.096-109.683 154.91-38.666 10.524-76.304 12.642-147.817 8.317zm135.925-13.227c67.598-16.958 104.91-53.41 113.907-111.282 6.127-39.413-6.96-81.55-33.606-108.195-18.24-18.239-51.334-34.333-84.722-41.202-21.576-4.438-37.35-5.36-92.24-5.39-36.416-.019-68.162.713-70.545 1.627-3.869 1.485-4.334 15.87-4.334 134.191v132.528l6.165 1.41c11.082 2.535 43.634 3.46 93.833 2.668 38.525-.608 54.176-1.998 71.542-6.355zm-179.759-706.88V894.598l7.456-1.871c4.1-1.03 42.01-1.977 84.244-2.107 85.334-.262 94.59 1.046 131.582 18.6 51.326 24.355 73.513 74.604 60.356 136.694-10.94 51.63-48.459 86.991-110.229 103.891-18.757 5.132-30.616 5.988-97.383 7.025l-76.026 1.182zm127.242 122.926c83.722-8.14 134.112-42.721 147.98-101.554 18.67-79.205-21.106-133.045-109.317-147.972-20.2-3.418-143.814-2.093-152.92 1.639-4.516 1.851-4.776 9.719-4.109 124.272l.713 122.295 15.068 1.609c24.947 2.662 73.639 2.525 102.585-.29z"/></svg>