<svg xmlns="http://www.w3.org/2000/svg" xmlns:xlink="http://www.w3.org/1999/xlink" viewBox="0 0 740.833 740.833"><defs><linearGradient id="a"><stop offset="0" stop-color="#460000"/><stop offset="1" stop-color="#d2aa50" stop-opacity=".784"/></linearGradient><linearGradient id="c" x1="197.022" x2="550.544" y1="206.464" y2="46.436" gradientUnits="userSpaceOnUse" xlink:href="#a"/><mask id="b" maskUnits="userSpaceOnUse"><path fill="#fff" stroke-width=".96" d="M365.52 283.437c78.431-6.92 159.504-37.13 210.078-99.913 13.177-18.069 25.647-40.923 27.452-62.129-26.94 0-53.025-.763-79.534-1.162-21.166 85.846-106.057 152.73-195.348 146.845-84.583-1.437-158.47-68.048-180.335-147.818l-82.793.5c5.4 44.767 38.532 80.36 72.969 106.714 65.88 46.223 148.1 62.616 227.511 56.963zM514.875 79.933c-26.285 0-53.584.12-77.516.12-3.731 43.663-6.292 90.97-32.103 128.38-30.949 45.945-109.948 46.818-139.935-.674-24.066-38.044-29.705-84.62-31.801-128.712-26.943 0-54.09-.385-81.12-.567-.847 95.038 84.536 180.594 180.19 180.594 99.254-1.635 179.754-101.156 182.285-179.14zM343.92 235.483c37.394-2.114 61.92-36.175 70.34-69.713 12.293-41.077 11.776-84.194 11.74-126.65-24.074-.11-48.44-.26-72.24-.26 0 55.792-.864 143.221-2.003 171.14-1.139 27.919-32.366 27.606-32.366 0s-.911-171.84-.911-171.84H243.6c-.661 51.816-.168 106.115 22.262 153.844 13.985 29.785 45.079 48.208 78.058 43.48z"/></mask></defs><path fill="url(#c)" d="M0 0h660v300H0z" mask="url(#b)" transform="matrix(1.32292 0 0 1.32292 -66.146 171.98)"/></svg>